<?xml version="1.0" encoding="UTF-8" standalone="no"?>
<svg
   viewBox="0 0 24 24"
   version="1.1"
   id="svg4"
   sodipodi:docname="invertr-circle-outline.svg"
   inkscape:version="1.1.2 (0a00cf5339, 2022-02-04)"
   xmlns:inkscape="http://www.inkscape.org/namespaces/inkscape"
   xmlns:sodipodi="http://sodipodi.sourceforge.net/DTD/sodipodi-0.dtd"
   xmlns="http://www.w3.org/2000/svg"
   xmlns:svg="http://www.w3.org/2000/svg">
  <defs
     id="defs8" />
  <sodipodi:namedview
     id="namedview6"
     pagecolor="#505050"
     bordercolor="#eeeeee"
     borderopacity="1"
     inkscape:pageshadow="0"
     inkscape:pageopacity="0"
     inkscape:pagecheckerboard="0"
     showgrid="false"
     inkscape:zoom="14.101515"
     inkscape:cx="11.594499"
     inkscape:cy="12.800043"
     inkscape:window-width="1346"
     inkscape:window-height="728"
     inkscape:window-x="10"
     inkscape:window-y="10"
     inkscape:window-maximized="1"
     inkscape:current-layer="svg4"
     inkscape:snap-smooth-nodes="false"
     inkscape:object-nodes="true"
     inkscape:object-paths="false" />
  <circle
     style="opacity:0.992;fill:#24d8c6;fill-opacity:1;stroke:#157e73;stroke-width:3;stroke-opacity:1;stroke-miterlimit:4;stroke-dasharray:none"
     id="path2901"
     cy="12"
     cx="12"
     r="8" />
  <path
     d="m 4,12 c 0,-4.41 3.59,-8 8,-8 4.41,0 8,3.59 8,8 0,4.41 -3.59,8 -8,8 -4.41,0 -8,-3.59 -8,-8 m 18,0 C 22,6.4771525 17.522847,2 12,2 6.477153,2 2,6.4771525 2,12 c 0,5.522847 4.477153,10 10,10 5.522847,0 10,-4.477153 10,-10 m -9,1.5 V 11 11 7.5 h -2 v 3.5 0 2 0 0.5 z"
     id="path2"
     style="mix-blend-mode:normal;fill:#157e73;fill-opacity:1"
     sodipodi:nodetypes="csssccssscccccccccccc" />
  <rect
     style="opacity:0.992;fill:#157f74;fill-opacity:1;stroke:none;stroke-width:2.0178;stroke-miterlimit:4;stroke-dasharray:none;stroke-opacity:1"
     id="rect6611"
     width="2"
     height="2"
     x="11"
     y="14.5" />
</svg>
