<?xml version="1.0" encoding="UTF-8" standalone="no"?>
<svg
   viewBox="0 0 24 24"
   version="1.1"
   id="svg4"
   sodipodi:docname="plus-circle-outline.svg"
   inkscape:version="1.1.2 (0a00cf5339, 2022-02-04)"
   xmlns:inkscape="http://www.inkscape.org/namespaces/inkscape"
   xmlns:sodipodi="http://sodipodi.sourceforge.net/DTD/sodipodi-0.dtd"
   xmlns="http://www.w3.org/2000/svg"
   xmlns:svg="http://www.w3.org/2000/svg">
  <defs
     id="defs8" />
  <sodipodi:namedview
     id="namedview6"
     pagecolor="#505050"
     bordercolor="#eeeeee"
     borderopacity="1"
     inkscape:pageshadow="0"
     inkscape:pageopacity="0"
     inkscape:pagecheckerboard="0"
     showgrid="false"
     inkscape:zoom="14.101515"
     inkscape:cx="11.594499"
     inkscape:cy="12.800043"
     inkscape:window-width="1346"
     inkscape:window-height="728"
     inkscape:window-x="10"
     inkscape:window-y="10"
     inkscape:window-maximized="1"
     inkscape:current-layer="svg4"
     inkscape:snap-smooth-nodes="false"
     inkscape:object-nodes="false" />
  <circle
     style="opacity:0.992;fill:#24d8c6;fill-opacity:1;stroke:#157e73;stroke-width:3;stroke-opacity:1;stroke-miterlimit:4;stroke-dasharray:none"
     id="path2901"
     cy="12"
     cx="12"
     r="8" />
  <path
     d="M 12,20 C 7.59,20 4,16.41 4,12 4,7.59 7.59,4 12,4 c 4.41,0 8,3.59 8,8 0,4.41 -3.59,8 -8,8 M 12,2 A 10,10 0 0 0 2,12 10,10 0 0 0 12,22 10,10 0 0 0 22,12 10,10 0 0 0 12,2 m 1,5 h -2 v 4 H 7 v 2 h 4 v 4 h 2 v -4 h 4 v -2 h -4 z"
     id="path2"
     style="mix-blend-mode:normal;fill:#157e73;fill-opacity:1" />
</svg>
