<?xml version="1.0" encoding="UTF-8" standalone="no"?>
<svg
   xmlns:dc="http://purl.org/dc/elements/1.1/"
   xmlns:cc="http://creativecommons.org/ns#"
   xmlns:rdf="http://www.w3.org/1999/02/22-rdf-syntax-ns#"
   xmlns:svg="http://www.w3.org/2000/svg"
   xmlns="http://www.w3.org/2000/svg"
   xmlns:sodipodi="http://sodipodi.sourceforge.net/DTD/sodipodi-0.dtd"
   xmlns:inkscape="http://www.inkscape.org/namespaces/inkscape"
   id="svg8"
   version="1.1"
   viewBox="0 0 256 64"
   height="64mm"
   width="256mm"
   inkscape:export-filename="/home/eirexe/bitmap.png"
   inkscape:export-xdpi="25.4"
   inkscape:export-ydpi="25.4"
   inkscape:version="1.0 (4035a4fb49, 2020-05-01)"
   sodipodi:docname="sine_wave.svg">
  <defs
     id="defs2" />
  <sodipodi:namedview
     id="base"
     pagecolor="#000000"
     bordercolor="#666666"
     borderopacity="1.0"
     inkscape:pageopacity="0"
     inkscape:pageshadow="2"
     inkscape:zoom="1.4"
     inkscape:cx="335.67973"
     inkscape:cy="178.30004"
     inkscape:document-units="mm"
     inkscape:current-layer="layer1"
     inkscape:document-rotation="0"
     showgrid="false"
     inkscape:window-width="2560"
     inkscape:window-height="1080"
     inkscape:window-x="0"
     inkscape:window-y="0"
     inkscape:window-maximized="1"
     showguides="true"
     inkscape:guide-bbox="true">
    <sodipodi:guide
       position="13.049637,-75.008194"
       orientation="0,-1"
       id="guide1503" />
  </sodipodi:namedview>
  <metadata
     id="metadata5">
    <rdf:RDF>
      <cc:Work
         rdf:about="">
        <dc:format>image/svg+xml</dc:format>
        <dc:type
           rdf:resource="http://purl.org/dc/dcmitype/StillImage" />
        <dc:title />
      </cc:Work>
    </rdf:RDF>
  </metadata>
  <g
     inkscape:label="Capa 1"
     inkscape:groupmode="layer"
     id="layer1">
    <rect
       style="fill:#ffffff;fill-opacity:1;fill-rule:evenodd;stroke:none;stroke-width:24.9183;stroke-miterlimit:4;stroke-dasharray:none;stroke-opacity:1"
       id="rect2447"
       width="294.32922"
       height="10"
       x="-5.7215395"
       y="32" />
    <path
       id="path2441"
       title="sin((2*3.14159*x)/(6.28319/(3.14159*4)))"
       d="m -28.374888,34 c 1.339545,-0.7396 2.679085,-1.4791 4.018635,-2.2151 1.33954,-0.7359 2.67908,-1.4683 4.01863,-2.1934 1.33955,-0.7251 2.67905,-1.4431 4.01865,-2.1503 1.3395,-0.7072 2.6791,-1.4037 4.0186,-2.0861 1.3395,-0.6824 2.6790995,-1.3507 4.0185995,-2.0016 1.3396,-0.6509 2.6791,-1.2843 4.0187,-1.8974 1.3395,-0.613 2.6791,-1.2055 4.01860001,-1.7747 1.33949999,-0.5691 2.67909999,-1.1148 4.01859999,-1.6346 1.3396001,-0.5197 2.6791001,-1.0133 4.0187001,-1.4785 1.3395,-0.4652 2.6790004,-0.9019 4.0186004,-1.3081 1.3395,-0.4061 2.6791,-0.7816 4.0186,-1.1247 1.3396,-0.3431 2.6791,-0.6536 4.0186,-0.9303 1.3396,-0.2767 2.6791,-0.5194 4.0187,-0.727 1.3395,-0.2076 2.6791,-0.3799 4.0186,-0.5164 1.3395,-0.1365 2.6791,-0.2368 4.0186,-0.3008 1.3396,-0.064 2.6791,-0.0914 4.0187,-0.0823 1.3395,0.0091 2.6791,0.055 4.0186,0.1371 1.3395,0.0821 2.6791,0.2007 4.0186,0.355 1.3396,0.1543 2.6791,0.3446 4.0187,0.5696 1.3395,0.225 2.679,0.485 4.0186,0.7785 1.3395,0.2936 2.6791,0.6208 4.0186,0.9799 1.3396,0.3591 2.6791,0.7504 4.0186,1.1716 1.3396,0.4213 2.6791,0.8727 4.0187,1.3519 1.3395,0.4793 2.6791,0.9865 4.0186,1.519 1.3395,0.5326 2.6791,1.0906 4.0189,1.6712 1.339,0.5806 2.679,1.184 4.018,1.807 1.34,0.6231 2.679,1.2659 4.019,1.9253 1.34,0.6593 2.679,1.3353 4.019,2.0245 1.339,0.6892 2.679,1.3918 4.018,2.1041 1.34,0.7124 2.679,1.4346 4.019,2.1631 1.339,0.7285 2.678995,1.4633 4.018995,2.2008 1.339,0.7375 2.679,1.4778 4.017998,2.2171 1.34,0.7394 2.679,1.4778 4.019,2.2117 1.339,0.7339 2.679,1.4633 4.018,2.1847 1.34,0.7213 2.679,1.4345 4.019,2.1362 1.34,0.7016 2.679,1.3917 4.019,2.0668 1.339,0.6752 2.679,1.3353 4.018,1.9773 1.34,0.6421 2.679,1.2659 4.019,1.8685 1.339,0.6026 2.679,1.1839 4.019,1.7412 1.339,0.5574 2.679,1.0905 4.018,1.5971 1.34,0.5066 2.679,0.9864 4.019,1.4372 1.339,0.4509 2.679,0.8726 4.018,1.2634 1.34,0.3907 2.68,0.7503 4.019,1.0771 1.34,0.3268 2.679,0.6206 4.019,0.8803 1.339,0.2596 2.679,0.4849 4.018,0.6749 1.34,0.19 2.679,0.3445 4.019,0.4629 1.34,0.1184 2.679,0.2006 4.019,0.2464 1.339,0.0457 2.679,0.0548 4.018,0.0274 1.34,-0.0273 2.679,-0.0914 4.019,-0.1917 1.339,-0.1003 2.679,-0.2369 4.018,-0.4091 1.34,-0.1721 2.68,-0.38 4.019,-0.6224 1.34,-0.2424 2.679,-0.5194 4.019,-0.8296 1.339,-0.3102 2.679,-0.6538 4.018,-1.0288 1.34,-0.375 2.679,-0.7817 4.019,-1.2178 1.34,-0.4362 2.679,-0.902 4.019,-1.395 1.339,-0.493 2.679,-1.0134 4.018,-1.5585 1.34,-0.545 2.679,-1.1149 4.019,-1.7067 1.339,-0.5918 2.679,-1.2056 4.019,-1.8383 1.339,-0.6327 2.679,-1.2844 4.018,-1.9518 1.34,-0.6674 2.679,-1.3507 4.019,-2.0463 1.339,-0.6957 2.679,-1.4038 4.018,-2.1208 1.34,-0.7171 2.679,-1.4431 4.019,-2.1745 1.34,-0.7315 2.679,-1.4683 4.019,-2.207 1.339,-0.7386 2.679,-1.4791 4.018,-2.2178 1.34,-0.7386 2.679,-1.4755 4.019,-2.2069 1.339,-0.7315 2.679,-1.4575 4.019,-2.1745 1.339,-0.7171 2.679,-1.4252 4.018,-2.1208 1.34,-0.6957 2.679,-1.3789 4.019,-2.0464 1.339,-0.6675 2.679,-1.3191 4.018,-1.9519 1.34,-0.6327 2.68,-1.2465 4.019,-1.8383 1.34,-0.5918 2.679,-1.1616 4.019,-1.7068 1.339,-0.5451 2.679,-1.0654 4.018,-1.5585 1.34,-0.4931 2.679,-0.9588 4.019,-1.395 1.34,-0.4362 2.679,-0.8428 4.019,-1.2179 1.339,-0.3751 2.679,-0.7185 4.018,-1.0288 1.34,-0.3103 2.679,-0.5873 4.019,-0.8297 1.339,-0.2425 2.679,-0.4502 4.018,-0.6225 1.34,-0.1722 2.68,-0.3088 4.019,-0.4091 1.34,-0.1004 2.679,-0.1644 4.019,-0.1918 1.339,-0.0275 2.679,-0.0183 4.018,0.0273 1.34,0.0457 2.679,0.128 4.019,0.2464 1.34,0.1183 2.679,0.2729 4.019,0.4628 1.339,0.1899 2.679,0.4153 4.018,0.6749 1.34,0.2595 2.679,0.5535 4.019,0.8802 1.339,0.3267 2.679,0.6864 4.019,1.077 1.339,0.3907 2.679,0.8125 4.018,1.2633 1.34,0.4508 2.679,0.9307 4.019,1.4372 1.339,0.5065 2.679,1.0398 4.018,1.597 1.34,0.5573 2.68,1.1387 4.019,1.7412 1.34,0.6026 2.679,1.2264 4.019,1.8684 1.339,0.642 2.679,1.3022 4.018,1.9773 1.34,0.6751 2.679,1.3652 4.019,2.0669 1.339,0.7016 2.679,1.4148 4.019,2.1361 1.339,0.7213 2.679,1.4508 4.018,2.1847 1.34,0.7339 2.679,1.4723 4.019,2.2117 1.339,0.7393 2.679,1.4795 4.018,2.2171 1.34,0.7375 2.68,1.4723 4.019,2.2008 1.34,0.7285 2.679,1.4507 4.019,2.1631 1.339,0.7124 2.679,1.4149 4.018,2.1041 1.34,0.6893 2.679,1.3652 4.019,2.0246 1.34,0.6594 2.679,1.3022 4.019,1.9253 1.339,0.623 2.679,1.2263 4.018,1.807 1.34,0.5807 2.679,1.1387 4.019,1.6713 1.339,0.5326 2.679,1.0397 4.018,1.519 1.34,0.4793 2.68,0.9306 4.019,1.3519 1.34,0.4214 2.679,0.8125 4.019,1.1717 1.339,0.3592 2.679,0.6864 4.018,0.98 1.34,0.2936 2.679,0.5534 4.019,0.7786 1.34,0.2251 2.679,0.4152 4.019,0.5696 1.339,0.1544 2.679,0.2729 4.018,0.3551 1.34,0.0822 2.679,0.1279 4.019,0.1371 1.339,0.0093 2.679,-0.0183 4.019,-0.0822 1.339,-0.0639 2.679,-0.1643 4.018,-0.3007 1.34,-0.1364 2.679,-0.3088 4.019,-0.5164 1.339,-0.2075 2.679,-0.4502 4.018,-0.7268 1.34,-0.2767 2.68,-0.5873 4.019,-0.9304 1.34,-0.343 2.679,-0.7185 4.019,-1.1246 1.339,-0.4061 2.679,-0.8428 4.018,-1.308 1.34,-0.4651 2.679,-0.9588 4.019,-1.4785 1.339,-0.5196 2.679,-1.0654 4.019,-1.6345 1.339,-0.5691 2.679,-1.1617 4.018,-1.7747 1.34,-0.613 2.679,-1.2465 4.019,-1.8974 1.339,-0.6508 2.679,-1.3191 4.018,-2.0015 1.34,-0.6824 2.68,-1.3789 4.019,-2.0861 1.34,-0.7072 2.679,-1.4251 4.019,-2.1502 1.339,-0.7252 2.679,-1.4575 4.018,-2.1935 1.34,-0.7359 2.679,-1.4755 4.019,-2.215"
       style="fill:none;fill-rule:evenodd;stroke:#ffffff;stroke-width:15;stroke-miterlimit:4;stroke-dasharray:none;stroke-opacity:1" />
  </g>
</svg>
