<?xml version="1.0" encoding="UTF-8" standalone="no"?>
<svg
   xmlns:dc="http://purl.org/dc/elements/1.1/"
   xmlns:cc="http://creativecommons.org/ns#"
   xmlns:rdf="http://www.w3.org/1999/02/22-rdf-syntax-ns#"
   xmlns:svg="http://www.w3.org/2000/svg"
   xmlns="http://www.w3.org/2000/svg"
   xmlns:sodipodi="http://sodipodi.sourceforge.net/DTD/sodipodi-0.dtd"
   xmlns:inkscape="http://www.inkscape.org/namespaces/inkscape"
   inkscape:export-ydpi="192.00002"
   inkscape:export-xdpi="192.00002"
   inkscape:export-filename="/home/eirexe/Project Heartbeat/Project Heartbeat/graphics/slide_fx_star.png"
   sodipodi:docname="slide_fx_star.svg"
   inkscape:version="1.0 (4035a4fb49, 2020-05-01)"
   id="svg8"
   version="1.1"
   viewBox="0 0 8.4666659 8.4666669"
   height="32"
   width="32">
  <defs
     id="defs2">
    <filter
       height="1.5027518"
       y="-0.25137591"
       width="1.4931101"
       x="-0.24655504"
       id="filter1187"
       style="color-interpolation-filters:sRGB"
       inkscape:collect="always">
      <feGaussianBlur
         id="feGaussianBlur1189"
         stdDeviation="0.68007505"
         inkscape:collect="always" />
    </filter>
    <clipPath
       id="clipPath1205"
       clipPathUnits="userSpaceOnUse">
      <path
         d="m 4.6523885,1.134219 c -0.0741,0.0141 -0.1633401,0.0882 -0.2450101,0.2028301 -0.11195,0.15847 -0.20769,0.34885 -0.43377,0.86429 -0.18767,0.42728 -0.26285,0.57872 -0.36075,0.72313 -0.11412,0.16821 -0.19309,0.20174 -0.47487,0.20228 -0.16388,0 -0.30992,-0.0119 -0.71124,-0.0573 -0.16766,-0.0195 -0.3602101,-0.0395 -0.5029901,-0.0525 -0.10331,-0.009 -0.42837,-0.009 -0.48948,0 -0.19417,0.0303 -0.28395,0.0941 -0.29098,0.20661 -0.004,0.0692 0.0233,0.1433199 0.0871,0.2390599 0.10655,0.15901 0.27801,0.331 0.71232,0.71555 0.5165201,0.4570301 0.6744501,0.6349701 0.6977001,0.7853301 0.02,0.12656 -0.0514,0.35481 -0.245,0.78858 -0.19688,0.44134 -0.2325701,0.52084 -0.2650301,0.60035 -0.13629,0.33046 -0.19038,0.53978 -0.17199,0.6685 0.0168,0.12007 0.0784,0.18011 0.19309,0.18714 0.1682001,0.0114 0.4153801,-0.0914 0.9189201,-0.38077 0.4051,-0.23311 0.47866,-0.27475 0.56844,-0.32235 0.24393,-0.1298 0.38834,-0.18281 0.49976,-0.18443 0.0654,-5.6e-4 0.0871,0.005 0.16766,0.0454 0.14333,0.0719 0.3104601,0.20553 0.7031201,0.56249 0.54411,0.49543 0.75991,0.65228 0.94759,0.69014 0.0552,0.0114 0.0936,0.007 0.13792,-0.0146 0.0557,-0.027 0.0865,-0.073 0.11033,-0.16442 0.0114,-0.0438 0.0124,-0.06 0.0124,-0.17037 0,-0.0676 -0.003,-0.14441 -0.006,-0.17308 -0.0276,-0.20498 -0.0579,-0.36454 -0.13684,-0.72205 -0.12386,-0.55924 -0.1509,-0.71772 -0.1509,-0.89079 0,-0.0876 0.009,-0.14062 0.0298,-0.18714 0.0546,-0.11953 0.24988,-0.26502 0.6896,-0.5149 0.3575,-0.2028201 0.44945,-0.2558201 0.54356,-0.3126101 0.39969,-0.24123 0.57601,-0.4116 0.57601,-0.55547 0,-0.0838 -0.0519,-0.14765 -0.1655,-0.20444 -0.16226,-0.0811 -0.40456,-0.12765 -0.95408,-0.18498 -0.56898,-0.0584 -0.7215,-0.08 -0.88538,-0.12169 -0.20932,-0.0541 -0.278,-0.1087099 -0.35048,-0.2785399 -0.0633,-0.14928 -0.11412,-0.3402 -0.21148,-0.80156 -0.073,-0.34831 -0.11466,-0.52625 -0.1563,-0.66904 -0.0622,-0.21526 -0.12981,-0.3612901 -0.20553,-0.4456701 -0.0508,-0.0568 -0.11953,-0.0844 -0.18119,-0.073 z"
         id="path1207"
         style="fill:#f0bc2b;fill-opacity:1;stroke:none;stroke-width:0.7;stroke-miterlimit:4;stroke-dasharray:none;stroke-opacity:1;filter:url(#filter1187)" />
    </clipPath>
    <filter
       height="1.3706905"
       y="-0.18534526"
       width="1.3635815"
       x="-0.18179073"
       id="filter1419"
       style="color-interpolation-filters:sRGB"
       inkscape:collect="always">
      <feGaussianBlur
         id="feGaussianBlur1421"
         stdDeviation="0.50143504"
         inkscape:collect="always" />
    </filter>
  </defs>
  <sodipodi:namedview
     inkscape:window-maximized="1"
     inkscape:window-y="0"
     inkscape:window-x="1920"
     inkscape:window-height="1080"
     inkscape:window-width="2560"
     units="px"
     showgrid="false"
     inkscape:document-rotation="0"
     inkscape:current-layer="layer1"
     inkscape:document-units="mm"
     inkscape:cy="18.12098"
     inkscape:cx="5.1081677"
     inkscape:zoom="15.839192"
     inkscape:pageshadow="2"
     inkscape:pageopacity="0"
     borderopacity="1.0"
     bordercolor="#666666"
     pagecolor="#000000"
     id="base" />
  <metadata
     id="metadata5">
    <rdf:RDF>
      <cc:Work
         rdf:about="">
        <dc:format>image/svg+xml</dc:format>
        <dc:type
           rdf:resource="http://purl.org/dc/dcmitype/StillImage" />
        <dc:title></dc:title>
      </cc:Work>
    </rdf:RDF>
  </metadata>
  <g
     id="layer1"
     inkscape:groupmode="layer"
     inkscape:label="Capa 1">
    <path
       transform="matrix(0.91194893,0,0,0.91194893,0.28380934,0.41891059)"
       style="fill:#f0bc2b;fill-opacity:1;stroke:none;stroke-width:0.7;stroke-miterlimit:4;stroke-dasharray:none;stroke-opacity:1;filter:url(#filter1419)"
       id="path857"
       d="m 4.6523884,1.134219 c -0.0741,0.0141 -0.16334,0.0882 -0.24501,0.2028301 -0.11195,0.15847 -0.20769,0.34885 -0.43377,0.86429 -0.18767,0.42728 -0.26285,0.57872 -0.36075,0.72313 -0.11412,0.16821 -0.19309,0.20174 -0.47487,0.20228 -0.16388,0 -0.30992,-0.0119 -0.71124,-0.0573 -0.16766,-0.0195 -0.3602101,-0.0395 -0.5029901,-0.0525 -0.10331,-0.009 -0.42837,-0.009 -0.48948,0 -0.19417,0.0303 -0.28395,0.0941 -0.29098,0.20661 -0.004,0.0692 0.0233,0.1433199 0.0871,0.2390599 0.10655,0.15901 0.27801,0.331 0.71232,0.71555 0.5165201,0.45703 0.6744501,0.63497 0.6977001,0.78533 0.02,0.12656 -0.0514,0.35481 -0.245,0.78858 -0.19688,0.44134 -0.2325701,0.52084 -0.2650301,0.60035 -0.13629,0.33046 -0.19038,0.53978 -0.17199,0.6685 0.0168,0.12007 0.0784,0.18011 0.19309,0.18714 0.1682001,0.0114 0.4153801,-0.0914 0.9189201,-0.38077 0.4051,-0.23311 0.47866,-0.27475 0.56844,-0.32235 0.24393,-0.1298 0.38834,-0.18281 0.49976,-0.18443 0.0654,-5.6e-4 0.0871,0.005 0.16766,0.0454 0.14333,0.0719 0.31046,0.20553 0.70312,0.56249 0.54411,0.49543 0.75991,0.65228 0.94759,0.69014 0.0552,0.0114 0.0936,0.007 0.13792,-0.0146 0.0557,-0.027 0.0865,-0.073 0.11033,-0.16442 0.0114,-0.0438 0.0124,-0.06 0.0124,-0.17037 0,-0.0676 -0.003,-0.14441 -0.006,-0.17308 -0.0276,-0.20498 -0.0579,-0.36454 -0.13684,-0.72205 -0.12386,-0.55924 -0.1509,-0.71772 -0.1509,-0.89079 0,-0.0876 0.009,-0.14062 0.0298,-0.18714 0.0546,-0.11953 0.24988,-0.26502 0.6896,-0.5149 0.3575,-0.20282 0.44945,-0.25582 0.54356,-0.31261 0.39969,-0.24123 0.57601,-0.4116 0.57601,-0.55547 0,-0.0838 -0.0519,-0.14765 -0.1655,-0.20444 -0.16226,-0.0811 -0.40456,-0.12765 -0.95408,-0.18498 -0.56898,-0.0584 -0.7215,-0.08 -0.88538,-0.12169 -0.20932,-0.0541 -0.278,-0.1087099 -0.35048,-0.2785399 -0.0633,-0.14928 -0.11412,-0.3402 -0.21148,-0.80156 -0.073,-0.34831 -0.11466,-0.52625 -0.1563,-0.66904 -0.0622,-0.21526 -0.12981,-0.3612901 -0.20553,-0.4456701 -0.0508,-0.0568 -0.11953,-0.0844 -0.18119,-0.073 z" />
    <path
       d="M 4.5142171,1.6537939 C 4.4512223,1.6657807 4.3753566,1.7287754 4.3059264,1.826226 4.2107543,1.9609463 4.1293627,2.1227943 3.9371651,2.5609858 3.777621,2.9242298 3.7137082,3.0529736 3.6304803,3.1757411 3.5334634,3.3187416 3.4663285,3.3472465 3.2267786,3.3477056 c -0.1393195,0 -0.2634726,-0.010117 -0.6046472,-0.048713 -0.142533,-0.016578 -0.3062258,-0.03358 -0.4276075,-0.044632 -0.087827,-0.00765 -0.3641707,-0.00765 -0.4161222,0 -0.1650699,0.025759 -0.2413947,0.079997 -0.2473711,0.1756456 -0.0034,0.058829 0.019808,0.1218407 0.074046,0.2032322 0.090581,0.1351794 0.2363449,0.2813934 0.6055654,0.6083113 0.4391101,0.388536 0.5733713,0.5398083 0.5931369,0.667634 0.017003,0.1075926 -0.043697,0.301635 -0.2082821,0.6703964 C 2.428123,5.9547769 2.3977817,6.0223623 2.3701865,6.0899562 2.2543221,6.3708905 2.2083385,6.54884 2.2239724,6.6582688 2.2382546,6.7603441 2.2906227,6.8113859 2.3881242,6.8173624 2.5311164,6.8270539 2.7412517,6.7396604 3.1693267,6.493658 3.5137148,6.2954839 3.5762505,6.2600845 3.6525752,6.2196182 3.8599477,6.1092712 3.9827151,6.0642058 4.0774367,6.0628285 c 0.055599,-4.76e-4 0.074046,0.00425 0.142533,0.038596 0.1218493,0.061124 0.2639317,0.1747274 0.5977441,0.4781902 0.4625648,0.4211804 0.6460231,0.5545235 0.8055757,0.5867095 0.046927,0.00969 0.079572,0.00595 0.1172501,-0.012412 0.047352,-0.022953 0.073536,-0.06206 0.093795,-0.1397785 0.00969,-0.037236 0.010542,-0.051008 0.010542,-0.1448368 0,-0.057469 -0.00255,-0.1227675 -0.0051,-0.1471407 C 5.8163118,6.5478963 5.7905528,6.4122494 5.7234435,6.1083191 5.6181462,5.6328918 5.5951587,5.498163 5.5951587,5.3510308 c 0,-0.074472 0.00765,-0.1195454 0.025334,-0.1590935 C 5.6669097,5.0903211 5.8329233,4.9666356 6.206743,4.7542048 6.5106648,4.5817812 6.5888344,4.5367243 6.6688402,4.4884453 7.0086291,4.2833682 7.1585242,4.1385314 7.1585242,4.0162231 c 0,-0.071241 -0.044122,-0.1255219 -0.1406967,-0.1738008 C 6.8798852,3.7734766 6.6738985,3.733903 6.2067345,3.685165 5.7230269,3.6355174 5.5933649,3.6171545 5.4540454,3.5817126 5.276096,3.5357205 5.217709,3.4892949 5.1560915,3.3449172 5.1022782,3.2180096 5.0590745,3.0557026 4.9763058,2.6634861 4.9142462,2.367377 4.8788298,2.2161046 4.8434303,2.0947144 4.7905522,1.9117152 4.7330748,1.7875705 4.6687029,1.7158364 4.6255162,1.667549 4.5670867,1.6440854 4.5146676,1.6537769 Z"
       id="path908"
       style="fill:#f0bc2b;fill-opacity:1;stroke:none;stroke-width:0.425066;stroke-miterlimit:4;stroke-dasharray:none;stroke-opacity:1" />
    <circle
       transform="matrix(0.85013105,0,0,0.85013105,0.55907724,0.68955907)"
       clip-path="url(#clipPath1205)"
       r="5.8358493"
       cy="8.0852299"
       cx="-0.24609025"
       id="path1193"
       style="fill:#f0972b;fill-opacity:1;stroke:none;stroke-width:0.7;stroke-miterlimit:4;stroke-dasharray:none;stroke-opacity:1" />
    <path
       style="fill:none;fill-opacity:1;stroke:#000000;stroke-width:0.425066;stroke-miterlimit:4;stroke-dasharray:none;stroke-opacity:1"
       id="path1229"
       d="M 4.5142171,1.6537939 C 4.4512223,1.6657807 4.3753566,1.7287754 4.3059264,1.826226 4.2107543,1.9609463 4.1293627,2.1227943 3.9371651,2.5609858 3.777621,2.9242298 3.7137082,3.0529736 3.6304803,3.1757411 3.5334634,3.3187416 3.4663285,3.3472465 3.2267786,3.3477056 c -0.1393195,0 -0.2634726,-0.010117 -0.6046472,-0.048713 -0.142533,-0.016578 -0.3062258,-0.03358 -0.4276075,-0.044632 -0.087827,-0.00765 -0.3641707,-0.00765 -0.4161222,0 -0.1650699,0.025759 -0.2413947,0.079997 -0.2473711,0.1756456 -0.0034,0.058829 0.019808,0.1218407 0.074046,0.2032322 0.090581,0.1351794 0.2363449,0.2813934 0.6055654,0.6083113 0.4391101,0.388536 0.5733713,0.5398083 0.5931369,0.667634 0.017003,0.1075926 -0.043697,0.301635 -0.2082821,0.6703964 C 2.428123,5.9547769 2.3977817,6.0223623 2.3701865,6.0899562 2.2543221,6.3708905 2.2083385,6.54884 2.2239724,6.6582688 2.2382546,6.7603441 2.2906227,6.8113859 2.3881242,6.8173624 2.5311164,6.8270539 2.7412517,6.7396604 3.1693267,6.493658 3.5137148,6.2954839 3.5762505,6.2600845 3.6525752,6.2196182 3.8599477,6.1092712 3.9827151,6.0642058 4.0774367,6.0628285 c 0.055599,-4.76e-4 0.074046,0.00425 0.142533,0.038596 0.1218493,0.061124 0.2639317,0.1747274 0.5977441,0.4781902 0.4625648,0.4211804 0.6460231,0.5545235 0.8055757,0.5867095 0.046927,0.00969 0.079572,0.00595 0.1172501,-0.012412 0.047352,-0.022953 0.073536,-0.06206 0.093795,-0.1397785 0.00969,-0.037236 0.010542,-0.051008 0.010542,-0.1448368 0,-0.057469 -0.00255,-0.1227675 -0.0051,-0.1471407 C 5.8163118,6.5478963 5.7905528,6.4122494 5.7234435,6.1083191 5.6181462,5.6328918 5.5951587,5.498163 5.5951587,5.3510308 c 0,-0.074472 0.00765,-0.1195454 0.025334,-0.1590935 C 5.6669097,5.0903211 5.8329233,4.9666356 6.206743,4.7542048 6.5106648,4.5817812 6.5888344,4.5367243 6.6688402,4.4884453 7.0086291,4.2833682 7.1585242,4.1385314 7.1585242,4.0162231 c 0,-0.071241 -0.044122,-0.1255219 -0.1406967,-0.1738008 C 6.8798852,3.7734766 6.6738985,3.733903 6.2067345,3.685165 5.7230269,3.6355174 5.5933649,3.6171545 5.4540454,3.5817126 5.276096,3.5357205 5.217709,3.4892949 5.1560915,3.3449172 5.1022782,3.2180096 5.0590745,3.0557026 4.9763058,2.6634861 4.9142462,2.367377 4.8788298,2.2161046 4.8434303,2.0947144 4.7905522,1.9117152 4.7330748,1.7875705 4.6687029,1.7158364 4.6255162,1.667549 4.5670867,1.6440854 4.5146676,1.6537769 Z" />
  </g>
</svg>
