<svg xmlns:dc="http://purl.org/dc/elements/1.1/" xmlns:cc="http://creativecommons.org/ns#" xmlns:rdf="http://www.w3.org/1999/02/22-rdf-syntax-ns#" xmlns:svg="http://www.w3.org/2000/svg" xmlns="http://www.w3.org/2000/svg" xmlns:sodipodi="http://sodipodi.sourceforge.net/DTD/sodipodi-0.dtd" xmlns:inkscape="http://www.inkscape.org/namespaces/inkscape" viewBox="0 0 100 100" height="100" width="100" version="1.1" id="svg45" inkscape:version="0.92.4 5da689c313, 2019-01-14">
   <svg:path id="background_path" style="fill:#ffdd00;fill-opacity:1;stroke:#ffdd00;stroke-width:7.0;stroke-opacity:1;filter:url(#backFilter);" d="m 23.672605,23.572266 v 52.855468 h 30.484376 c 5.125861,0 9.458746,-0.358477 12.966796,-1.240234 h 0.0039 c 3.456164,-0.798677 6.355993,-1.898685 8.654297,-3.322266 2.329018,-1.442602 3.915894,-3.136113 4.984374,-5.173828 l 0.0098,-0.01758 0.0078,-0.01758 c 0.909267,-1.905579 1.435546,-3.979859 1.435547,-6.144531 0,-3.78919 -1.615688,-6.767565 -4.669922,-9.027344 l -0.01563,-0.01172 -0.01758,-0.01172 c -2.07924,-1.42346 -4.705294,-2.31462 -7.603515,-2.970704 2.384779,-0.764502 4.505534,-1.708538 6.027344,-3.097656 2.401479,-2.192086 3.617187,-4.773976 3.617187,-7.894531 0,-2.616351 -0.657311,-4.816357 -2.013672,-6.726563 l -0.0078,-0.0098 -0.0059,-0.0078 c -1.330566,-1.795797 -3.174536,-3.253103 -5.5,-4.314453 -2.295468,-1.047659 -5.063991,-1.78048 -8.162109,-2.216797 -3.081997,-0.434046 -6.400257,-0.65039 -9.953125,-0.65039 z" sodipodi:nodetypes="ccsccscccsccccsscccsscc"/>
  <defs><filter inkscape:collect="always" style="color-interpolation-filters:sRGB" id="backFilter" x="-1" width="40" y="-1" height="40">
      <feGaussianBlur inkscape:collect="always" stdDeviation="7.0858655" id="gaussianBlurBack"/>
    </filter><linearGradient inkscape:collect="always" id="bgLinearGradient">
      <stop style="stop-color:#ff0000;stop-opacity:1" offset="0" id="stop844"/>
      <stop style="stop-color:#420000;stop-opacity:1" offset="1" id="stop846"/>
    </linearGradient><radialGradient xmlns:xlink="http://www.w3.org/1999/xlink" inkscape:collect="always" xlink:href="#bgLinearGradient" id="bgRadialGradient" cx="50" cy="50" fx="50" fy="50" r="35" gradientTransform="matrix(1,0,0,1,0,1)" gradientUnits="userSpaceOnUse"/></defs>
  <sodipodi:namedview pagecolor="#ffffff" bordercolor="#666666" borderopacity="1" objecttolerance="10" gridtolerance="10" guidetolerance="10" inkscape:pageopacity="0" inkscape:pageshadow="2" inkscape:window-width="2560" inkscape:window-height="1080" id="namedview47" showgrid="false" inkscape:zoom="3.9506912" inkscape:cx="72.194105" inkscape:cy="20.670582" inkscape:window-x="0" inkscape:window-y="0" inkscape:window-maximized="0" inkscape:current-layer="svg45"/>
<svg:path id="main_path" style="fill:url(#bgRadialGradient);;fill-opacity:1;stroke:#ffdd00;stroke-width:5;stroke-opacity:1;stroke-miterlimit:4;stroke-dasharray:none" d="m 23.672605,23.572266 v 52.855468 h 30.484376 c 5.125861,0 9.458746,-0.358477 12.966796,-1.240234 h 0.0039 c 3.456164,-0.798677 6.355993,-1.898685 8.654297,-3.322266 2.329018,-1.442602 3.915894,-3.136113 4.984374,-5.173828 l 0.0098,-0.01758 0.0078,-0.01758 c 0.909267,-1.905579 1.435546,-3.979859 1.435547,-6.144531 0,-3.78919 -1.615688,-6.767565 -4.669922,-9.027344 l -0.01563,-0.01172 -0.01758,-0.01172 c -2.07924,-1.42346 -4.705294,-2.31462 -7.603515,-2.970704 2.384779,-0.764502 4.505534,-1.708538 6.027344,-3.097656 2.401479,-2.192086 3.617187,-4.773976 3.617187,-7.894531 0,-2.616351 -0.657311,-4.816357 -2.013672,-6.726563 l -0.0078,-0.0098 -0.0059,-0.0078 c -1.330566,-1.795797 -3.174536,-3.253103 -5.5,-4.314453 -2.295468,-1.047659 -5.063991,-1.78048 -8.162109,-2.216797 -3.081997,-0.434046 -6.400257,-0.65039 -9.953125,-0.65039 z" sodipodi:nodetypes="ccsccscccsccccsscccsscc"/>
  </svg>