<svg xmlns:dc="http://purl.org/dc/elements/1.1/" xmlns:cc="http://creativecommons.org/ns#" xmlns:rdf="http://www.w3.org/1999/02/22-rdf-syntax-ns#" xmlns:svg="http://www.w3.org/2000/svg" xmlns="http://www.w3.org/2000/svg" xmlns:sodipodi="http://sodipodi.sourceforge.net/DTD/sodipodi-0.dtd" xmlns:inkscape="http://www.inkscape.org/namespaces/inkscape" viewBox="0 0 100 100" height="100" width="100" version="1.1" id="svg45" inkscape:version="0.92.4 5da689c313, 2019-01-14">
   <svg:path id="main_path" style="fill:#ffffff;fill-opacity:1;stroke:#ffffff;stroke-width:7.0;stroke-opacity:1;filter:url(#backFilter);" d="m 23.673049,23.57271 v 52.85458 h 30.42386 c 5.204074,0 9.507454,-0.358471 13.010187,-1.240214 v 0 c 3.502761,-0.798662 6.40503,-1.898653 8.706836,-3.32221 2.301864,-1.442578 3.903071,-3.13606 5.00392,-5.173741 a 12.838314,12.828033 0 0 0 0,-0.01758 15.961774,15.948991 0 0 0 0,-0.01758 c 0.900666,-1.905547 1.401199,-3.979792 1.401199,-6.144428 0,-3.789125 -1.601412,-6.767451 -4.703689,-9.027192 a 15.113138,15.101035 0 0 0 0,-0.01172 17.669383,17.655233 0 0 0 0,-0.01172 c -2.101651,-1.423436 -4.703688,-2.314581 -7.605957,-2.970654 2.401971,-0.764489 4.503534,-1.708509 6.004692,-3.097604 2.401971,-2.192048 3.602839,-4.773896 3.602839,-7.894398 0,-2.616307 -0.600346,-4.816276 -2.001544,-6.72645 a 11.169638,11.160693 0 0 0 0,-0.0098 12.227815,12.218023 0 0 0 0,-0.0078 c -1.301151,-1.795765 -3.202648,-3.253047 -5.504424,-4.31438 -2.301806,-1.047641 -5.00395,-1.78045 -8.106373,-2.216759 -3.102424,-0.434039 -6.405031,-0.650379 -10.007841,-0.650379 z M 40.08592,33.683868 h 8.406605 c 4.203273,0 9.3073,0.521803 11.008613,1.335915 1.401199,0.725608 2.101651,1.917587 2.101651,3.757749 0,1.783913 -0.800559,3.059232 -2.502077,3.810484 -1.801332,0.829623 -7.205649,1.353491 -12.009415,1.353491 h -7.005494 z m 0,20.384422 h 9.607532 c 1.901438,0 5.604384,0.14323 7.205649,0.341792 1.401198,0.262209 2.602184,0.647113 3.702916,1.150371 0.900666,0.429183 1.601118,1.056876 2.201758,1.867156 0.500533,0.700267 0.800559,1.583872 0.800559,2.730423 0,2.42117 -1.000773,3.810243 -3.002347,4.646407 -2.40197,1.019957 -7.605957,1.511693 -11.709182,1.511693 h -8.806914 z"/>
<defs><filter inkscape:collect="always" style="color-interpolation-filters:sRGB" id="backFilter" x="-0.15193133" width="1.3038627" y="-0.099159664" height="1.1983193">
      <feGaussianBlur inkscape:collect="always" stdDeviation="2.433064" id="gaussianBlurBack"/>
    </filter></defs>
  <sodipodi:namedview pagecolor="#ffffff" bordercolor="#666666" borderopacity="1" objecttolerance="10" gridtolerance="10" guidetolerance="10" inkscape:pageopacity="0" inkscape:pageshadow="2" inkscape:window-width="2560" inkscape:window-height="1080" id="namedview47" showgrid="false" inkscape:zoom="3.9506912" inkscape:cx="72.194105" inkscape:cy="20.670582" inkscape:window-x="0" inkscape:window-y="0" inkscape:window-maximized="0" inkscape:current-layer="svg45"/>
<svg:path id="main_path" style="fill:#272646;fill-opacity:1;stroke:#f1e107;stroke-width:4.5;stroke-opacity:1;stroke-miterlimit:4;stroke-dasharray:none" d="m 23.673049,23.57271 v 52.85458 h 30.42386 c 5.204074,0 9.507454,-0.358471 13.010187,-1.240214 v 0 c 3.502761,-0.798662 6.40503,-1.898653 8.706836,-3.32221 2.301864,-1.442578 3.903071,-3.13606 5.00392,-5.173741 a 12.838314,12.828033 0 0 0 0,-0.01758 15.961774,15.948991 0 0 0 0,-0.01758 c 0.900666,-1.905547 1.401199,-3.979792 1.401199,-6.144428 0,-3.789125 -1.601412,-6.767451 -4.703689,-9.027192 a 15.113138,15.101035 0 0 0 0,-0.01172 17.669383,17.655233 0 0 0 0,-0.01172 c -2.101651,-1.423436 -4.703688,-2.314581 -7.605957,-2.970654 2.401971,-0.764489 4.503534,-1.708509 6.004692,-3.097604 2.401971,-2.192048 3.602839,-4.773896 3.602839,-7.894398 0,-2.616307 -0.600346,-4.816276 -2.001544,-6.72645 a 11.169638,11.160693 0 0 0 0,-0.0098 12.227815,12.218023 0 0 0 0,-0.0078 c -1.301151,-1.795765 -3.202648,-3.253047 -5.504424,-4.31438 -2.301806,-1.047641 -5.00395,-1.78045 -8.106373,-2.216759 -3.102424,-0.434039 -6.405031,-0.650379 -10.007841,-0.650379 z M 40.08592,33.683868 h 8.406605 c 4.203273,0 9.3073,0.521803 11.008613,1.335915 1.401199,0.725608 2.101651,1.917587 2.101651,3.757749 0,1.783913 -0.800559,3.059232 -2.502077,3.810484 -1.801332,0.829623 -7.205649,1.353491 -12.009415,1.353491 h -7.005494 z m 0,20.384422 h 9.607532 c 1.901438,0 5.604384,0.14323 7.205649,0.341792 1.401198,0.262209 2.602184,0.647113 3.702916,1.150371 0.900666,0.429183 1.601118,1.056876 2.201758,1.867156 0.500533,0.700267 0.800559,1.583872 0.800559,2.730423 0,2.42117 -1.000773,3.810243 -3.002347,4.646407 -2.40197,1.019957 -7.605957,1.511693 -11.709182,1.511693 h -8.806914 z"/>
</svg>