<svg xmlns:dc="http://purl.org/dc/elements/1.1/" xmlns:cc="http://creativecommons.org/ns#" xmlns:rdf="http://www.w3.org/1999/02/22-rdf-syntax-ns#" xmlns:svg="http://www.w3.org/2000/svg" xmlns="http://www.w3.org/2000/svg" xmlns:sodipodi="http://sodipodi.sourceforge.net/DTD/sodipodi-0.dtd" xmlns:inkscape="http://www.inkscape.org/namespaces/inkscape" viewBox="0 0 100 100" height="100" width="100" version="1.1" id="svg45" inkscape:version="0.92.4 5da689c313, 2019-01-14">
   <svg:path id="main_path" style="fill:#ffffff;fill-opacity:1;stroke:#ffffff;stroke-width:7.0;stroke-opacity:1;filter:url(#backFilter);" d="m 27.775913,23.57271 v 52.85458 h 26.159693 c 4.474678,0 8.174902,-0.358471 11.186697,-1.240214 v 0 c 3.011819,-0.798662 5.50731,-1.898653 7.486498,-3.32221 1.979237,-1.442578 3.356021,-3.13606 4.302577,-5.173741 a 11.038913,12.828033 0 0 0 0,-0.01758 13.724593,15.948991 0 0 0 0,-0.01758 c 0.77443,-1.905547 1.204809,-3.979792 1.204809,-6.144428 0,-3.789125 -1.376961,-6.767451 -4.044427,-9.027192 a 12.994901,15.101035 0 0 0 0,-0.01172 15.192866,17.655233 0 0 0 0,-0.01172 c -1.807086,-1.423436 -4.044425,-2.314581 -6.539916,-2.970654 2.065314,-0.764489 3.872325,-1.708509 5.163083,-3.097604 2.065314,-2.192048 3.09787,-4.773896 3.09787,-7.894398 0,-2.616307 -0.516203,-4.816276 -1.721011,-6.72645 a 9.6041166,11.160693 0 0 0 0,-0.0098 10.513981,12.218023 0 0 0 0,-0.0078 c -1.118783,-1.795765 -2.753769,-3.253047 -4.732931,-4.31438 -1.979188,-1.047641 -4.302603,-1.78045 -6.970195,-2.216759 -2.667592,-0.434039 -5.50731,-0.650379 -8.605155,-0.650379 z m 14.112465,10.111158 h 7.228347 c 3.614148,0 8.002801,0.521803 9.465661,1.335915 1.204809,0.725608 1.807086,1.917587 1.807086,3.757749 0,1.783913 -0.688354,3.059232 -2.151389,3.810484 -1.54886,0.829623 -6.195715,1.353491 -10.326192,1.353491 h -6.023613 z m 0,20.384422 h 8.260954 c 1.634935,0 4.818881,0.14323 6.195715,0.341792 1.204808,0.262209 2.237465,0.647113 3.18392,1.150371 0.77443,0.429183 1.376707,1.056876 1.893163,1.867156 0.430379,0.700267 0.688353,1.583872 0.688353,2.730423 0,2.42117 -0.860506,3.810243 -2.581542,4.646407 -2.065313,1.019957 -6.539916,1.511693 -10.068039,1.511693 h -7.572548 z"/>
<defs><filter inkscape:collect="always" style="color-interpolation-filters:sRGB" id="backFilter" x="-0.15193133" width="1.3038627" y="-0.099159664" height="1.1983193">
      <feGaussianBlur inkscape:collect="always" stdDeviation="2.433064" id="gaussianBlurBack"/>
    </filter></defs>
  <sodipodi:namedview pagecolor="#ffffff" bordercolor="#666666" borderopacity="1" objecttolerance="10" gridtolerance="10" guidetolerance="10" inkscape:pageopacity="0" inkscape:pageshadow="2" inkscape:window-width="2560" inkscape:window-height="1080" id="namedview47" showgrid="false" inkscape:zoom="3.9506912" inkscape:cx="72.194105" inkscape:cy="20.670582" inkscape:window-x="0" inkscape:window-y="0" inkscape:window-maximized="0" inkscape:current-layer="svg45"/>
<svg:path id="main_path" style="fill:#272646;fill-opacity:1;stroke:#f1e107;stroke-width:4.5;stroke-opacity:1;stroke-miterlimit:4;stroke-dasharray:none" d="m 27.775913,23.57271 v 52.85458 h 26.159693 c 4.474678,0 8.174902,-0.358471 11.186697,-1.240214 v 0 c 3.011819,-0.798662 5.50731,-1.898653 7.486498,-3.32221 1.979237,-1.442578 3.356021,-3.13606 4.302577,-5.173741 a 11.038913,12.828033 0 0 0 0,-0.01758 13.724593,15.948991 0 0 0 0,-0.01758 c 0.77443,-1.905547 1.204809,-3.979792 1.204809,-6.144428 0,-3.789125 -1.376961,-6.767451 -4.044427,-9.027192 a 12.994901,15.101035 0 0 0 0,-0.01172 15.192866,17.655233 0 0 0 0,-0.01172 c -1.807086,-1.423436 -4.044425,-2.314581 -6.539916,-2.970654 2.065314,-0.764489 3.872325,-1.708509 5.163083,-3.097604 2.065314,-2.192048 3.09787,-4.773896 3.09787,-7.894398 0,-2.616307 -0.516203,-4.816276 -1.721011,-6.72645 a 9.6041166,11.160693 0 0 0 0,-0.0098 10.513981,12.218023 0 0 0 0,-0.0078 c -1.118783,-1.795765 -2.753769,-3.253047 -4.732931,-4.31438 -1.979188,-1.047641 -4.302603,-1.78045 -6.970195,-2.216759 -2.667592,-0.434039 -5.50731,-0.650379 -8.605155,-0.650379 z m 14.112465,10.111158 h 7.228347 c 3.614148,0 8.002801,0.521803 9.465661,1.335915 1.204809,0.725608 1.807086,1.917587 1.807086,3.757749 0,1.783913 -0.688354,3.059232 -2.151389,3.810484 -1.54886,0.829623 -6.195715,1.353491 -10.326192,1.353491 h -6.023613 z m 0,20.384422 h 8.260954 c 1.634935,0 4.818881,0.14323 6.195715,0.341792 1.204808,0.262209 2.237465,0.647113 3.18392,1.150371 0.77443,0.429183 1.376707,1.056876 1.893163,1.867156 0.430379,0.700267 0.688353,1.583872 0.688353,2.730423 0,2.42117 -0.860506,3.810243 -2.581542,4.646407 -2.065313,1.019957 -6.539916,1.511693 -10.068039,1.511693 h -7.572548 z"/>
</svg>