<?xml version="1.0" encoding="UTF-8" standalone="no"?>
<svg
   xmlns:dc="http://purl.org/dc/elements/1.1/"
   xmlns:cc="http://creativecommons.org/ns#"
   xmlns:rdf="http://www.w3.org/1999/02/22-rdf-syntax-ns#"
   xmlns:svg="http://www.w3.org/2000/svg"
   xmlns="http://www.w3.org/2000/svg"
   xmlns:sodipodi="http://sodipodi.sourceforge.net/DTD/sodipodi-0.dtd"
   xmlns:inkscape="http://www.inkscape.org/namespaces/inkscape"
   version="1.1"
   id="svg815"
   width="100"
   height="100"
   viewBox="0 0 100 100"
   sodipodi:docname="B_sustain.svg"
   inkscape:version="1.0 (4035a4fb49, 2020-05-01)">
  <metadata
     id="metadata821">
    <rdf:RDF>
      <cc:Work
         rdf:about="">
        <dc:format>image/svg+xml</dc:format>
        <dc:type
           rdf:resource="http://purl.org/dc/dcmitype/StillImage" />
        <dc:title />
      </cc:Work>
    </rdf:RDF>
  </metadata>
  <defs
     id="defs819">
    <inkscape:path-effect
       update_on_knot_move="true"
       attempt_force_join="true"
       miter_limit="4"
       offset="0.3"
       unit="mm"
       linejoin_type="miter"
       lpeversion="1"
       is_visible="true"
       id="path-effect936"
       effect="offset" />
    <inkscape:path-effect
       update_on_knot_move="true"
       attempt_force_join="true"
       miter_limit="4"
       offset="-0.8"
       unit="mm"
       linejoin_type="miter"
       lpeversion="1"
       is_visible="true"
       id="path-effect916"
       effect="offset" />
    <inkscape:path-effect
       update_on_knot_move="true"
       attempt_force_join="true"
       miter_limit="4"
       offset="-0.8"
       unit="mm"
       linejoin_type="miter"
       lpeversion="1"
       is_visible="true"
       id="path-effect851"
       effect="offset" />
    <clipPath
       clipPathUnits="userSpaceOnUse"
       id="clipPath4597">
      <path
         d="m 143.8989,191.06182 -1.05237,2.656 h 2.15486 z m -4.44335,6.04698 h 2.00452 l 0.7684,-1.87089 h 3.14446 l 0.6643,1.87089 h 2.33024 l -3.70889,-8.44623 h -1.51191 z"
         style="fill:#87d639;fill-opacity:1;fill-rule:evenodd;stroke:#000000;stroke-width:0.26499999;stroke-linecap:butt;stroke-linejoin:miter;stroke-miterlimit:4;stroke-dasharray:none;stroke-opacity:1"
         id="path4599"
         inkscape:connector-curvature="0" />
    </clipPath>
    <clipPath
       clipPathUnits="userSpaceOnUse"
       id="clipPath888">
      <text
         id="text892"
         y="197.22488"
         x="140.47195"
         style="font-style:normal;font-weight:normal;font-size:12.1546px;line-height:1.25;font-family:sans-serif;letter-spacing:0px;word-spacing:0px;fill:#e02828;fill-opacity:1;stroke:#000000;stroke-width:0.303865;stroke-opacity:1"
         xml:space="preserve"><tspan
           style="font-style:normal;font-variant:normal;font-weight:bold;font-stretch:condensed;font-family:'Helvetica Neue';-inkscape-font-specification:'Helvetica Neue Bold Condensed';fill:#e02828;fill-opacity:1;stroke:#000000;stroke-width:0.303865;stroke-opacity:1"
           y="197.22488"
           x="140.47195"
           id="tspan890"
           sodipodi:role="line">B</tspan></text>
    </clipPath>
  </defs>
  <sodipodi:namedview
     pagecolor="#ffffff"
     bordercolor="#666666"
     borderopacity="1"
     objecttolerance="10"
     gridtolerance="10"
     guidetolerance="10"
     inkscape:pageopacity="0"
     inkscape:pageshadow="2"
     inkscape:window-width="2560"
     inkscape:window-height="1080"
     id="namedview817"
     showgrid="false"
     showguides="true"
     inkscape:guide-bbox="true"
     inkscape:zoom="11.313709"
     inkscape:cx="30.500035"
     inkscape:cy="49.243359"
     inkscape:window-x="0"
     inkscape:window-y="0"
     inkscape:window-maximized="1"
     inkscape:current-layer="svg815"
     inkscape:document-rotation="0">
    <sodipodi:guide
       position="57.553229,67.060547"
       orientation="0,1"
       id="guide829"
       inkscape:locked="false" />
    <sodipodi:guide
       position="39.37575,34.453782"
       orientation="0,1"
       id="guide831"
       inkscape:locked="false" />
    <sodipodi:guide
       position="62.816209,79.793562"
       orientation="0,1"
       id="guide839"
       inkscape:locked="false" />
    <sodipodi:guide
       position="55.68572,20.542598"
       orientation="0,1"
       id="guide841"
       inkscape:locked="false" />
  </sodipodi:namedview>
  <g
     id="g832">
    <path
       inkscape:connector-curvature="0"
       id="main_path"
       style="font-style:normal;font-variant:normal;font-weight:bold;font-stretch:condensed;font-size:82.47674561px;line-height:1.25;font-family:'Helvetica Neue';-inkscape-font-specification:'Helvetica Neue Bold Condensed';letter-spacing:0px;word-spacing:0px;fill:#e02828;fill-opacity:1;stroke:#000000;stroke-width:2.0619185;stroke-opacity:1"
       d="m 30.782918,20.555802 h 19.876895 c 2.391826,0 4.618698,0.24743 6.680617,0.742291 2.061919,0.49486 3.876407,1.319628 5.360988,2.474302 1.484582,1.154675 2.639256,2.721733 3.464024,4.618698 0.824767,1.979442 1.237151,4.288791 1.237151,7.093 0,3.216593 -0.742291,5.938326 -2.226872,8.247675 -1.484582,2.309349 -3.711454,3.79393 -6.680617,4.618698 v 0.164953 c 3.29907,0.49486 5.855849,1.896965 7.835291,4.206314 1.896965,2.391826 2.886686,5.525942 2.886686,9.484826 0,2.309349 -0.329907,4.536221 -0.907244,6.598139 -0.659814,2.144396 -1.649535,3.958884 -3.134116,5.525942 -1.484582,1.567059 -3.381547,2.80421 -5.690896,3.711454 -2.309349,0.989721 -5.196035,1.402105 -8.660058,1.402105 H 30.782918 Z"
       sodipodi:nodetypes="cssscsscccscscscc" />
  </g>
  <path
     inkscape:path-effect="#path-effect916"
     inkscape:original-d="m 30.782918,20.555802 h 19.876895 c 2.391826,0 4.618698,0.24743 6.680617,0.742291 2.061919,0.49486 3.876407,1.319628 5.360988,2.474302 1.484582,1.154675 2.639256,2.721733 3.464024,4.618698 0.824767,1.979442 1.237151,4.288791 1.237151,7.093 0,3.216593 -0.742291,5.938326 -2.226872,8.247675 -1.484582,2.309349 -3.711454,3.79393 -6.680617,4.618698 v 0.164953 c 3.29907,0.49486 5.855849,1.896965 7.835291,4.206314 1.896965,2.391826 2.886686,5.525942 2.886686,9.484826 0,2.309349 -0.329907,4.536221 -0.907244,6.598139 -0.659814,2.144396 -1.649535,3.958884 -3.134116,5.525942 -1.484582,1.567059 -3.381547,2.80421 -5.690896,3.711454 -2.309349,0.989721 -5.196035,1.402105 -8.660058,1.402105 H 30.782918 Z"
     inkscape:connector-curvature="0"
     id="include2"
     style="font-style:normal;font-variant:normal;font-weight:bold;font-stretch:condensed;font-size:82.4767px;line-height:1.25;font-family:'Helvetica Neue';-inkscape-font-specification:'Helvetica Neue Bold Condensed';letter-spacing:0px;word-spacing:0px;fill:#9294a8;fill-opacity:1;stroke:none;stroke-width:2.06192;stroke-opacity:1"
     d="m 33.806641,23.580078 v 52.839844 h 17.017578 c 3.254922,0 5.649588,-0.37661 7.46875,-1.15625 l 0.04297,-0.01758 0.04297,-0.01758 c 1.951424,-0.766631 3.465112,-1.778929 4.601563,-2.978516 1.093574,-1.154328 1.884982,-2.569293 2.421875,-4.294922 0.500234,-1.79765 0.791015,-3.735814 0.791015,-5.748047 0,-3.398314 -0.840914,-5.813677 -2.208984,-7.558593 -1.473639,-1.697011 -3.343812,-2.753233 -5.939453,-3.142579 l -2.574219,-0.386718 v -5.06836 l 2.214844,-0.615234 c 2.378753,-0.660765 3.941552,-1.773447 4.947265,-3.337891 1.126906,-1.752963 1.746094,-3.890728 1.746094,-6.613281 0,-2.48772 -0.36627,-4.387332 -0.996094,-5.908203 -0.649608,-1.485886 -1.517988,-2.625319 -2.537109,-3.417969 -1.092025,-0.849353 -2.497036,-1.508586 -4.210937,-1.919922 -1.804027,-0.432967 -3.791234,-0.658203 -5.97461,-0.658203 z m 33.253906,22.691406 c -0.4934,0.616339 -1.035623,1.170561 -1.607422,1.685547 0.0095,0.0063 0.0198,0.01128 0.0293,0.01758 0.567534,-0.513757 1.097522,-1.076972 1.578125,-1.703125 z m -1.578125,1.703125 c -0.01331,0.01205 -0.02571,0.02512 -0.03906,0.03711 0.827923,0.547644 1.61506,1.15649 2.341797,1.859375 -0.713568,-0.714231 -1.479676,-1.350184 -2.302734,-1.896485 z"
     sodipodi:nodetypes="cssscsscccscscscc" />
  <path
     inkscape:original-d="m 42.65957,70.701663 h 4.618698 c 2.804209,0 5.113558,-0.577338 6.928047,-1.896966 1.732011,-1.237151 2.639255,-3.5465 2.639255,-7.010523 0,-1.649535 -0.24743,-3.05164 -0.74229,-4.206314 -0.494861,-1.154674 -1.072198,-2.061919 -1.896965,-2.721733 -0.824768,-0.659814 -1.732012,-1.154674 -2.80421,-1.484581 -1.154674,-0.24743 -2.309349,-0.412384 -3.628977,-0.412384 H 42.65957 Z m 0,-25.980175 h 3.381547 c 3.29907,0 5.690895,-0.577338 7.175477,-1.732012 1.484581,-1.154674 2.309348,-3.216593 2.309348,-6.020802 0,-2.80421 -0.74229,-4.783652 -2.061918,-5.938326 -1.402105,-1.154675 -3.5465,-1.732012 -6.515663,-1.732012 H 42.65957 Z"
     inkscape:path-effect="#path-effect936"
     sodipodi:nodetypes="cscssscscccssscscc"
     inkscape:connector-curvature="0"
     id="include1"
     style="font-style:normal;font-variant:normal;font-weight:bold;font-stretch:condensed;font-size:82.4767px;line-height:1.25;font-family:'Helvetica Neue';-inkscape-font-specification:'Helvetica Neue Bold Condensed';letter-spacing:0px;word-spacing:0px;fill:#272646;fill-opacity:1;stroke:none;stroke-width:2.06192;stroke-opacity:1"
     d="m 41.525391,28.164062 v 17.691407 h 4.515625 c 3.414508,0 6.104996,-0.597073 7.871093,-1.970703 1.846173,-1.435912 2.748047,-3.886215 2.748047,-6.916016 0,-3.005493 -0.802248,-5.349917 -2.449218,-6.791016 l -0.01172,-0.01172 -0.01367,-0.0098 c -1.678341,-1.382163 -4.129272,-1.992188 -7.236328,-1.992188 z m 0,23.669922 v 20.001954 h 5.751953 c 2.964566,0 5.530414,-0.612978 7.58789,-2.109376 2.147019,-1.533584 3.115235,-4.257404 3.115235,-7.93164 0,-1.759332 -0.264436,-3.325349 -0.833985,-4.654297 -0.537018,-1.253042 -1.204683,-2.339528 -2.230468,-3.160156 -0.93843,-0.750744 -1.958357,-1.3078 -3.179688,-1.683594 l -0.04883,-0.01367 -0.04687,-0.01172 c -1.211639,-0.259636 -2.441438,-0.4375 -3.867187,-0.4375 z" />
</svg>
