<svg xmlns:dc="http://purl.org/dc/elements/1.1/" xmlns:cc="http://creativecommons.org/ns#" xmlns:rdf="http://www.w3.org/1999/02/22-rdf-syntax-ns#" xmlns:svg="http://www.w3.org/2000/svg" xmlns="http://www.w3.org/2000/svg" xmlns:sodipodi="http://sodipodi.sourceforge.net/DTD/sodipodi-0.dtd" xmlns:inkscape="http://www.inkscape.org/namespaces/inkscape" viewBox="0 0 100 100" height="100" width="100" version="1.1" id="svg45" inkscape:version="0.92.4 5da689c313, 2019-01-14">
   <svg:path style="fill:#ffdd00;fill-opacity:1;stroke:#ffdd00;stroke-width:7.0;stroke-opacity:1;filter:url(#backFilter);" sodipodi:nodetypes="ccsscsc" d="m 64.105995,22.926147 c -5.427088,0 -10.952716,2.566966 -14.105995,7.97681 -3.165596,-5.434479 -8.676443,-8.001445 -14.08875,-8.001445 -7.841317,0 -15.473236,5.387672 -15.473236,15.251522 0,11.482368 13.724152,23.228331 29.561986,38.945454 15.840298,-15.717123 29.561986,-27.463086 29.561986,-38.945454 0,-9.881094 -7.624529,-15.226887 -15.455991,-15.226887" id="background_path"/>
  <defs><filter inkscape:collect="always" style="color-interpolation-filters:sRGB" id="backFilter" x="-1" width="40" y="-1" height="40">
      <feGaussianBlur inkscape:collect="always" stdDeviation="7.0858655" id="gaussianBlurBack"/>
    </filter><linearGradient inkscape:collect="always" id="bgLinearGradient">
      <stop style="stop-color:#ff0000;stop-opacity:1" offset="0" id="stop844"/>
      <stop style="stop-color:#420000;stop-opacity:1" offset="1" id="stop846"/>
    </linearGradient><radialGradient xmlns:xlink="http://www.w3.org/1999/xlink" inkscape:collect="always" xlink:href="#bgLinearGradient" id="bgRadialGradient" cx="49.999999" cy="50.000001" fx="49.999999" fy="50.000001" r="40.248082" gradientTransform="matrix(1,0,0,1.5050907,0,-25.254534)" gradientUnits="userSpaceOnUse"/></defs>
  <sodipodi:namedview pagecolor="#ffffff" bordercolor="#666666" borderopacity="1" objecttolerance="10" gridtolerance="10" guidetolerance="10" inkscape:pageopacity="0" inkscape:pageshadow="2" inkscape:window-width="2560" inkscape:window-height="1080" id="namedview47" showgrid="false" inkscape:zoom="3.9506912" inkscape:cx="72.194105" inkscape:cy="20.670582" inkscape:window-x="0" inkscape:window-y="0" inkscape:window-maximized="0" inkscape:current-layer="svg45"/>
<svg:path style="fill:#272646;fill-opacity:1;stroke:#ffdd00;stroke-width:5;stroke-opacity:1;stroke-miterlimit:4;stroke-dasharray:none" sodipodi:nodetypes="ccsscsc" d="m 64.105995,22.926147 c -5.427088,0 -10.952716,2.566966 -14.105995,7.97681 -3.165596,-5.434479 -8.676443,-8.001445 -14.08875,-8.001445 -7.841317,0 -15.473236,5.387672 -15.473236,15.251522 0,11.482368 13.724152,23.228331 29.561986,38.945454 15.840298,-15.717123 29.561986,-27.463086 29.561986,-38.945454 0,-9.881094 -7.624529,-15.226887 -15.455991,-15.226887" id="main_path"/>
  </svg>