<?xml version="1.0" encoding="UTF-8" standalone="no"?>
<!-- Created with Inkscape (http://www.inkscape.org/) -->

<svg
   xmlns:dc="http://purl.org/dc/elements/1.1/"
   xmlns:cc="http://creativecommons.org/ns#"
   xmlns:rdf="http://www.w3.org/1999/02/22-rdf-syntax-ns#"
   xmlns:svg="http://www.w3.org/2000/svg"
   xmlns="http://www.w3.org/2000/svg"
   xmlns:sodipodi="http://sodipodi.sourceforge.net/DTD/sodipodi-0.dtd"
   xmlns:inkscape="http://www.inkscape.org/namespaces/inkscape"
   width="186.8309mm"
   height="137.04668mm"
   viewBox="0 0 186.8309 137.04668"
   version="1.1"
   id="svg8"
   inkscape:export-filename="/home/eirexe/bitmap.png"
   inkscape:export-xdpi="261.03"
   inkscape:export-ydpi="261.03"
   inkscape:version="0.92.4 5da689c313, 2019-01-14"
   sodipodi:docname="dibujo.svg">
  <defs
     id="defs2" />
  <sodipodi:namedview
     id="base"
     pagecolor="#ffffff"
     bordercolor="#666666"
     borderopacity="1.0"
     inkscape:pageopacity="0.0"
     inkscape:pageshadow="2"
     inkscape:zoom="0.98994949"
     inkscape:cx="178.42646"
     inkscape:cy="226.18407"
     inkscape:document-units="mm"
     inkscape:current-layer="layer1"
     showgrid="false"
     fit-margin-top="0"
     fit-margin-left="0"
     fit-margin-right="0"
     fit-margin-bottom="0"
     inkscape:window-width="2560"
     inkscape:window-height="1028"
     inkscape:window-x="1920"
     inkscape:window-y="24"
     inkscape:window-maximized="1" />
  <metadata
     id="metadata5">
    <rdf:RDF>
      <cc:Work
         rdf:about="">
        <dc:format>image/svg+xml</dc:format>
        <dc:type
           rdf:resource="http://purl.org/dc/dcmitype/StillImage" />
        <dc:title></dc:title>
      </cc:Work>
    </rdf:RDF>
  </metadata>
  <g
     inkscape:label="Capa 1"
     inkscape:groupmode="layer"
     id="layer1"
     transform="translate(-3.375044,-119.79866)">
    <path
       style="fill:#000000;stroke-width:0.26458332"
       d="m 6.9610182,254.79461 c 0.0937,-1.12779 0.3927,-4.19365 0.6645,-6.81302 0.2718,-2.61938 0.56961,-6.13172 0.6618,-7.80521 0.360147,-6.538 1.099092,-11.19615 2.0828528,-13.12988 1.595049,-3.1353 2.029828,-3.74529 3.810128,-5.34553 1.9135,-1.71996 1.918654,-1.72826 1.412721,-2.2749 -0.572387,-0.61845 -1.102405,-2.34998 -1.25867,-4.112 -0.117539,-1.32536 -0.517034,-2.04997 -1.75611,-3.18526 -1.584635,-1.45191 -1.691762,-1.59199 -1.997313,-2.61183 -0.486292,-1.6231 -0.374349,-6.24036 0.219512,-9.05408 0.872374,-4.13332 0.743759,-4.74197 -1.6834978,-7.96687 -1.780903,-2.36614 -2.100663,-3.10241 -2.676303,-6.16236 -0.50655,-2.69267 -0.3964,-7.46512 0.28045,-12.15129 0.75202,-5.20658 0.43759,-7.52512 -1.29955,-9.58274 -0.3863,-0.45756 -0.70237,-0.92444 -0.70237,-1.0375 0,-0.11305 -0.15805,-0.39352 -0.35123,-0.62326 -1.35453,-1.61091 -1.31662,-8.70321 0.0737,-13.77917 2.0163,-7.36162 4.084799,-12.29903 6.7402538,-16.08865 1.770508,-2.52671 6.225225,-6.87344 8.757576,-8.54528 2.919075,-1.92717 3.564696,-2.267 5.814125,-3.06034 2.009407,-0.7087 2.33789,-0.74532 6.482292,-0.72268 4.093122,0.0224 4.471656,0.0677 6.064334,0.72643 0.934292,0.38641 1.909125,0.89299 2.1663,1.12573 0.431337,0.39036 0.535527,0.37359 1.343996,-0.21636 2.787269,-2.03391 8.638366,-3.09046 12.936972,-2.33608 6.47047,1.13553 7.731394,1.45849 10.408962,2.66603 2.65948,1.19938 6.393042,3.89589 9.496092,6.85839 4.069902,3.88557 9.580131,13.44386 11.523789,19.98969 1.123818,3.78478 1.650876,8.21741 2.139283,17.99167 0.130887,2.61937 0.372502,5.59593 0.536919,6.61458 0.164418,1.01865 0.426789,2.62599 0.583049,3.57187 0.156261,0.94589 0.893612,3.20808 1.638562,5.02709 l 1.35445,3.30729 -0.0038,3.96875 c -0.0037,3.87033 -0.03554,4.09342 -1.284356,8.99583 -0.704313,2.7649 -2.385996,8.42037 -3.737073,12.56771 -2.383033,7.3151 -2.94097,9.26212 -3.161802,11.03364 -0.295725,2.3723 -1.059905,4.9312 -1.818757,6.0902 -0.835252,1.2757 -4.190529,4.83482 -4.963909,5.26549 -0.373993,0.20826 -0.382518,0.5779 -0.08165,3.53984 0.355788,3.50256 0.483251,14.94925 0.196967,17.68827 -0.09517,0.91057 -0.298948,1.6264 -0.463021,1.62651 -0.209487,1.4e-4 -0.270071,-2.20638 -0.212487,-7.73906 0.07366,-7.07693 -0.19572,-12.03331 -0.844841,-15.54447 -0.06726,-0.3638 -0.307562,-2.03068 -0.534009,-3.70417 -0.658677,-4.8678 -0.820576,-5.60591 -1.566904,-7.14375 -1.009116,-2.07932 -2.122623,-3.18167 -4.679694,-4.63282 -5.517377,-3.13113 -9.432822,-4.56648 -13.116875,-4.80848 -2.991916,-0.19653 -3.895989,-0.65888 -4.804373,-2.457 -0.699518,-1.38468 -0.85757,-4.24128 -0.234661,-4.24128 0.253791,0 0.402069,0.51599 0.500438,1.74146 0.112937,1.40696 0.288044,1.92464 0.91163,2.6951 0.924653,1.14244 1.114848,1.20392 5.503323,1.77889 1.89177,0.24787 3.558645,0.54356 3.704166,0.6571 0.145521,0.11354 0.56224,0.29588 0.926042,0.40521 1.50296,0.45166 7.394432,3.44964 8.951468,4.55511 2.98709,2.1208 4.288033,5.06135 4.656151,10.52442 0.169465,2.51497 0.527592,4.10104 0.925994,4.10104 0.627229,0 4.439528,-4.32101 5.053899,-5.72829 0.263662,-0.60394 0.728649,-2.44941 1.033301,-4.10104 1.023339,-5.54787 1.385075,-6.94865 3.2352,-12.52796 1.924,-5.8021 3.851225,-12.58299 4.565124,-16.06228 0.472622,-2.3034 0.541636,-6.63036 0.133972,-8.39935 -0.149347,-0.64806 -0.680207,-2.10777 -1.179688,-3.24379 -1.21853,-2.77144 -1.901496,-6.32704 -2.225307,-11.58521 -0.637773,-10.35637 -1.335672,-16.54531 -2.297366,-20.37292 -0.67282,-2.67786 -3.098425,-8.61923 -4.131686,-10.12031 -0.275466,-0.40018 -0.414753,-0.7276 -0.309531,-0.7276 0.105225,0 0.01154,-0.20836 -0.208221,-0.46302 -0.219745,-0.25466 -0.744215,-1.08798 -1.165487,-1.85182 -0.42127,-0.76383 -0.855245,-1.38891 -0.964386,-1.38906 -0.10914,-1.5e-4 -0.198437,-0.13398 -0.198437,-0.2974 0,-0.63281 -2.476648,-3.72016 -4.930457,-6.14622 -2.28172,-2.25592 -6.144475,-5.15159 -8.447464,-6.33255 -1.633408,-0.8376 -5.643922,-1.99533 -8.875059,-2.562 -5.319911,-0.933 -9.190712,-0.53279 -13.110437,1.35552 l -1.629042,0.78478 0.901438,0.90144 c 0.83367,0.83367 1.188114,1.71283 0.690552,1.71283 -0.115989,0 -0.681535,-0.48669 -1.256771,-1.08152 -2.232578,-2.30865 -5.207328,-3.28117 -10.041718,-3.28289 -2.895278,-0.001 -3.729056,0.0957 -5.268823,0.61158 -3.500099,1.17254 -6.315564,2.91356 -9.896901,6.12002 -5.413196,4.84657 -9.0804368,11.85057 -11.7134668,22.37135 -0.49385,1.97327 -0.59951,3.14411 -0.61671,6.83381 -0.0184,3.94965 0.0315,4.49086 0.44226,4.79167 0.25466,0.18651 0.46302,0.42933 0.46302,0.5396 0,0.11026 0.36892,0.62066 0.81983,1.13422 1.37329,1.56409 1.8675,3.06365 1.89527,5.7507 0.0135,1.30969 -0.13013,3.26699 -0.31926,4.34955 -0.18913,1.08256 -0.35909,4.17819 -0.37767,6.87917 -0.0331,4.80634 0.19657,6.80973 0.97237,8.48274 0.27046,0.58325 1.9079598,2.82034 2.3240258,3.175 0.08536,0.0728 0.487977,0.70527 0.894709,1.40557 0.637627,1.09785 0.738596,1.55351 0.732847,3.30729 -0.0037,1.11871 -0.197928,2.84508 -0.431689,3.83637 -0.490588,2.08041 -0.563659,6.54086 -0.135038,8.24307 0.206274,0.81919 0.579858,1.38458 1.294165,1.95861 1.25486,1.00843 1.985925,2.53372 2.380813,4.96733 0.225603,1.39034 0.473167,2.0465 0.936274,2.48156 l 0.629575,0.59146 1.401783,-0.91636 c 1.884137,-1.23169 2.99497,-1.63359 6.428866,-2.32601 1.600729,-0.32277 4.101041,-0.9749 5.55625,-1.44917 3.466965,-1.12992 5.299054,-1.63894 6.705989,-1.86318 1.025424,-0.16344 1.203592,-0.30186 1.647833,-1.28021 0.273954,-0.60332 0.500713,-1.46614 0.503909,-1.91737 0.0063,-0.89359 -0.47076,-2.48375 -0.747678,-2.49204 -0.999337,-0.0299 -7.260135,-0.86125 -8.881999,-1.17943 -4.620395,-0.90642 -8.706992,-3.17884 -11.082164,-6.16241 -3.652688,-4.58831 -3.734861,-4.85282 -3.758975,-12.09987 -0.02354,-7.07599 -0.362133,-8.89937 -1.965253,-10.58333 -0.55414,-0.58209 -1.310046,-1.59412 -1.67979,-2.24896 -1.3352708,-2.36486 -2.8638228,-8.73125 -2.0963518,-8.73125 0.309612,0 0.382745,0.20428 0.852483,2.38125 0.4849948,2.24767 1.2374308,4.62231 1.8370988,5.79775 0.492911,0.96619 2.344631,3.08904 2.516519,2.88499 0.117999,-0.14008 -1.667564,-11.63197 -2.027403,-13.04837 -0.754644,-2.97043 -0.192367,-9.97248 1.103196,-13.7381 0.813125,-2.36339 2.807502,-5.34409 4.359985,-6.51623 1.388234,-1.04813 2.982285,-1.83838 3.708269,-1.83838 0.787524,0 0.379562,0.40414 -1.018704,1.00915 -4.937079,2.13622 -7.929225,9.1842 -7.49057,17.64398 0.178409,3.44076 0.668051,5.02667 1.94676,6.30538 1.312239,1.31224 3.314833,1.54892 6.901742,0.81571 1.203848,-0.24609 1.105534,0.29271 -0.132292,0.725 -0.571312,0.19953 -2.088705,0.34031 -3.577155,0.33189 -2.57338,-0.0145 -2.589251,-0.0187 -3.540617,-0.9213 -0.917337,-0.87033 -0.94966,-0.88016 -0.806261,-0.24522 0.08216,0.3638 0.278889,1.61396 0.437167,2.77812 0.158278,1.16417 0.466274,3.30729 0.684436,4.7625 0.218162,1.45521 0.408708,2.82443 0.423434,3.04271 0.01473,0.21828 0.1276,0.95834 0.250829,1.64458 0.687204,3.82691 0.77699,5.68252 0.376283,7.77659 -0.525067,2.74395 -0.504577,3.67722 0.125524,5.71725 1.010711,3.2723 4.738468,7.79129 7.676881,9.30632 3.633009,1.87317 8.10637,2.95338 14.2875,3.45009 9.107257,0.73184 14.250831,-0.36859 21.802931,-4.66458 2.713789,-1.54373 6.385055,-4.99448 7.64096,-7.18199 0.612537,-1.06691 0.801011,-1.228 1.123556,-0.96031 0.772247,0.64091 3.601712,-2.04702 7.143713,-6.78638 3.407291,-4.5591 4.365696,-6.77725 5.146016,-11.91003 0.251357,-1.65337 0.412356,-3.00612 0.35778,-3.00612 -0.05458,0 -0.840816,0.57648 -1.747199,1.28107 -0.906381,0.70459 -3.255309,2.40808 -5.219841,3.78552 -1.964531,1.37745 -3.929062,2.8395 -4.365625,3.24898 -0.436562,0.40949 -1.0483,0.91362 -1.359418,1.12028 -0.441802,0.29346 -0.606692,0.75882 -0.753015,2.12517 -0.192405,1.79664 -0.653386,1.89891 -0.661641,0.14679 -0.0043,-0.90545 -0.221446,-1.06583 -0.740473,-0.54681 -0.691883,0.69189 -0.627621,-0.10891 0.06691,-0.83385 0.73933,-0.77169 0.745191,-0.80407 0.562149,-3.10609 -0.181469,-2.28226 -0.849172,-5.88536 -0.945909,-5.1044 -0.02704,0.21829 -0.07845,0.65899 -0.114242,0.97936 -0.0358,0.32036 -0.346763,0.81057 -0.691038,1.08934 -0.411816,0.33347 -0.630926,0.79475 -0.640477,1.34836 -0.01558,0.9036 -0.154655,1.00789 -3.321807,2.49107 -3.823216,1.79042 -4.179022,1.87946 -7.546348,1.88852 -3.05336,0.008 -3.249729,-0.0254 -4.90411,-0.83994 -1.889594,-0.93033 -2.992996,-1.91981 -2.853174,-2.55859 0.07307,-0.33382 0.310581,-0.26296 1.256945,0.37499 0.641771,0.43262 1.210649,0.74279 1.264174,0.68927 0.05353,-0.0535 -0.02508,-0.41924 -0.174667,-0.8127 -0.551686,-1.45104 -0.357066,-2.18327 0.720201,-2.70966 1.12295,-0.5487 1.423202,-1.43597 0.741018,-2.18978 -0.397417,-0.43914 -0.340357,-0.55745 0.850813,-1.76411 0.702239,-0.71138 1.451076,-1.53154 1.664084,-1.82258 0.675886,-0.92349 1.572731,-1.58804 1.572731,-1.16537 0,0.33371 -0.825064,1.34187 -2.840522,3.4709 -0.501565,0.52983 -0.606457,0.80724 -0.400166,1.05834 0.153762,0.18716 0.320741,0.61631 0.371064,0.95366 0.08051,0.53972 0.41642,0.28646 2.797599,-2.10932 1.77488,-1.78576 2.795698,-2.63308 2.966471,-2.46231 0.170773,0.17077 -0.924928,1.44291 -3.184078,3.69682 -2.708727,2.70243 -3.596669,3.43644 -4.157096,3.43644 -0.871673,0 -0.845735,0.52782 0.106717,2.17165 0.487593,0.84154 0.88615,1.18027 1.632643,1.38759 2.31462,0.64282 5.95421,0.12635 8.616418,-1.22269 0.932831,-0.4727 1.213872,-0.73069 0.964126,-0.88504 -0.242924,-0.15014 -0.332433,-0.70948 -0.287951,-1.7994 0.0355,-0.86985 -0.06243,-2.07016 -0.217631,-2.66735 -0.155199,-0.59719 -0.407902,-1.56975 -0.561567,-2.16125 -0.153665,-0.59149 -0.38268,-1.03797 -0.508923,-0.99218 -0.126244,0.0458 -1.288961,1.09529 -2.583813,2.33221 -3.55405,3.39506 -5.570839,5.0621 -5.757921,4.7594 -0.18702,-0.30261 0.526606,-1.03534 3.974712,-4.08109 1.307465,-1.1549 2.779159,-2.48338 3.270429,-2.95217 l 0.893223,-0.85237 -1.422389,-0.81565 c -1.310648,-0.75158 -1.617665,-0.81585 -3.908166,-0.81813 -2.297657,-0.002 -2.630657,0.0672 -4.400174,0.9183 -2.0295,0.97615 -2.197055,1.19578 -3.940091,5.16463 -0.34264,0.78019 -0.407648,0.82827 -0.412723,0.30531 -0.02212,-2.27973 1.891702,-5.30499 4.02359,-6.36025 l 1.12976,-0.55922 -1.322916,-0.0118 c -0.727605,-0.007 -1.799167,-0.19555 -2.38125,-0.42011 -0.582084,-0.22456 -1.264,-0.40553 -1.515367,-0.40216 -0.574096,0.008 -1.502659,-1.2749 -1.901904,-2.62706 l -0.30471,-1.032 -0.512361,1.32033 c -0.281797,0.72617 -0.664742,1.32032 -0.850987,1.32032 -0.455364,0 -0.428117,-0.27653 0.163161,-1.65593 0.983657,-2.29477 1.437319,-5.11831 1.261316,-7.85024 -0.186399,-2.89327 -1.060117,-8.31103 -1.624462,-10.073 -0.493697,-1.5414 -0.598599,-2.49275 -0.286221,-2.59574 0.351538,-0.1159 1.364125,3.2391 2.061109,6.82907 0.481245,2.47877 0.592071,3.97443 0.597956,8.06979 0.0066,4.62191 0.05449,5.12996 0.59369,6.30335 0.322559,0.70194 0.693886,1.20986 0.825175,1.12872 0.131289,-0.0811 0.64012,0.0557 1.130739,0.30412 1.270172,0.64309 4.231468,0.74284 6.279113,0.21149 1.772767,-0.46002 2.365431,-0.35148 1.507247,0.27604 -0.46495,0.33998 -0.370682,0.37525 1.003144,0.37525 1.011213,0 1.87389,0.18242 2.589749,0.54762 0.590389,0.30119 1.121079,0.49998 1.179314,0.44174 0.05824,-0.0582 -0.05816,-0.63208 -0.258651,-1.27523 -0.200494,-0.64314 -0.554646,-1.82419 -0.787009,-2.62455 -0.831421,-2.86382 -0.980008,-3.1868 -0.811445,-1.76385 0.165076,1.39352 -0.07342,3.35135 -0.408255,3.35135 -0.115281,0 -0.293782,-1.39898 -0.396666,-3.10885 -0.364122,-6.05143 -1.241726,-10.38967 -2.614625,-12.92481 -0.533355,-0.98488 -0.551667,-0.71014 -0.03507,0.52624 1.416333,3.38977 2.477132,12.23633 1.685012,14.05222 -0.313886,0.71956 -0.361817,0.44756 -0.512879,-2.91042 -0.259429,-5.76701 -1.043395,-9.02685 -3.328384,-13.8399 -0.78124,-1.64558 -1.420437,-3.04456 -1.420437,-3.10885 0,-0.37771 0.786435,-0.0276 0.926042,0.41229 0.09237,0.29104 0.313108,0.52916 0.490519,0.52916 0.67909,0 3.610523,4.62937 3.610523,5.7018 0,0.23525 0.147357,0.3786 0.327456,0.31857 0.457906,-0.15264 0.8905,1.24596 1.534107,4.95984 1.24755,7.1989 2.875883,12.55158 4.29673,14.12429 0.507074,0.56127 1.430025,1.89917 2.051,2.9731 0.620974,1.07394 1.174353,2.00553 1.229725,2.07021 0.05538,0.0647 0.365265,-0.14729 0.688644,-0.47102 0.564624,-0.56526 0.586201,-0.76422 0.543544,-5.01239 -0.02572,-2.56035 -0.222011,-5.51706 -0.466023,-7.01926 -0.551646,-3.39607 -2.018758,-9.03293 -3.041523,-11.68598 -0.447514,-1.16084 -0.81366,-2.26217 -0.81366,-2.44739 0,-0.50216 0.523486,-0.4068 0.693129,0.12625 0.08104,0.25467 0.485637,1.23693 0.899093,2.18282 1.689984,3.86626 3.272949,11.43034 3.571389,17.06563 0.103462,1.95364 0.404751,4.29685 0.69741,5.42395 0.283389,1.09141 0.586496,3.02618 0.673571,4.29948 0.08708,1.27331 0.264858,2.31511 0.395073,2.31511 0.130214,0 0.7972,-0.5168 1.48219,-1.14844 0.684991,-0.63164 2.85278,-2.32133 4.817311,-3.75487 1.964532,-1.43354 4.312603,-3.17893 5.217936,-3.87865 2.273474,-1.75713 2.719564,-1.66277 2.719564,0.57522 0,1.81264 -1.030292,7.08991 -1.71146,8.76628 -0.820131,2.01835 -3.505115,6.05106 -5.855623,8.79484 -1.667343,1.94632 -5.067842,4.66853 -5.831774,4.66853 -0.193207,0 -0.821698,0.74414 -1.396645,1.65365 -0.57495,0.90951 -1.67812,2.26127 -2.451492,3.00393 -2.931411,2.815 -8.593997,5.82476 -13.756613,7.31189 -2.825264,0.81383 -3.23655,0.86283 -7.242988,0.86283 h -4.247636 l 0.248536,1.08611 c 0.343834,1.50256 0.0098,3.38764 -0.762918,4.30602 -0.72566,0.8624 -0.677437,0.94254 1.108466,1.84205 2.407389,1.21253 7.019224,1.3397 11.076189,0.30541 1.802085,-0.45942 2.248958,-0.4625 2.248958,-0.0154 0,0.33541 -1.242607,0.75002 -3.699399,1.23436 -1.658045,0.32687 -2.97103,0.40218 -5.027083,0.28832 -3.288162,-0.18208 -4.966978,-0.70185 -6.286532,-1.94635 l -0.966512,-0.91153 -2.527424,0.71487 c -1.390084,0.39318 -3.2418,0.98267 -4.114925,1.30997 -0.873125,0.3273 -3.313906,0.97964 -5.423958,1.44965 -2.16494,0.48224 -4.470482,1.17505 -5.291667,1.59014 -2.935055,1.48362 -6.988799,5.22392 -8.44977,7.79643 -1.264464,2.22649 -1.8808478,5.55821 -2.3985128,12.96458 -0.152566,2.18281 -0.46203,5.69516 -0.687697,7.80521 -0.32081,2.99971 -0.76476,7.80577 -0.88596,9.59115 -0.007,0.10914 -0.20223,0.19843 -0.43292,0.19843 -0.36145,0 -0.3959,-0.28355 -0.24912,-2.05052 z M 62.830127,178.2423 c 0.927597,-0.57328 1.246478,-1.24274 0.428104,-0.89874 -0.254662,0.10704 -0.730912,0.25272 -1.058334,0.32373 -0.360939,0.0783 -0.595312,0.3253 -0.595312,0.62744 0,0.62976 0.130786,0.62417 1.225542,-0.0524 z m 0.224938,-1.82285 c 0.157673,-0.25512 -0.737404,-2.24328 -1.11597,-2.47881 -0.111221,-0.0692 -0.162349,0.63588 -0.113618,1.56684 0.08144,1.55588 0.128355,1.67137 0.580578,1.42935 0.270587,-0.14481 0.562639,-0.37763 0.64901,-0.51738 z m -41.795258,78.37516 c 0.229201,-2.96446 0.922771,-7.19949 1.348544,-8.23439 0.693161,-1.68483 0.354933,-4.28799 -0.884992,-6.81129 -1.036786,-2.10991 -4.645742,-8.97579 -4.8625,-9.2507 -0.474985,-0.60241 -1.540359,-3.81922 -1.392499,-4.20454 0.223724,-0.58302 0.627891,-0.49823 0.627891,0.13171 0,0.29509 0.790487,2.05126 1.756638,3.9026 0.966151,1.85135 2.662792,5.13418 3.770313,7.29518 l 2.013674,3.92908 0.09071,2.45855 c 0.05422,1.46951 -0.02701,2.67851 -0.201916,3.00533 -0.344702,0.64408 -0.966084,3.9523 -1.200119,6.38941 -0.262482,2.73334 -0.436152,3.43958 -0.845825,3.43958 -0.30931,0 -0.349495,-0.37467 -0.219924,-2.05052 z m 39.041887,-1.45521 c 0.0045,-2.35135 -0.171651,-4.5512 -0.535045,-6.68073 -0.629796,-3.69068 -0.69377,-6.40378 -0.179994,-7.63342 0.199827,-0.47825 1.090044,-1.96699 1.978263,-3.30831 1.46997,-2.21984 2.816551,-4.37993 4.495541,-7.21146 0.34068,-0.57454 1.194308,-1.66621 1.896954,-2.42592 1.012852,-1.09512 1.346152,-1.31435 1.608725,-1.05816 0.263924,0.25751 0.190511,0.43379 -0.361474,0.86798 -0.688705,0.54174 -4.189934,5.63905 -5.088273,7.40783 -0.258678,0.50933 -1.169131,1.98225 -2.023227,3.27316 -0.854096,1.29092 -1.622136,2.62297 -1.706755,2.96013 -0.243399,0.96977 0.04943,5.83052 0.517093,8.58338 0.234855,1.38245 0.429144,3.91253 0.431753,5.6224 0.0045,2.9209 -0.02685,3.10885 -0.517785,3.10885 -0.494366,0 -0.522165,-0.18895 -0.515776,-3.50573 z m 65.185966,2.51354 c 0.0686,-0.5457 0.18767,-1.65599 0.26459,-2.4673 0.31709,-3.3448 2.21678,-9.31018 3.62363,-11.37892 1.41204,-2.07636 5.34905,-4.70143 7.71744,-5.14574 l 0.97585,-0.18307 v -5.11974 -5.11973 l -0.99219,-0.25347 c -0.5457,-0.13942 -1.51545,-0.33598 -2.15499,-0.43681 -2.85439,-0.45002 -7.82106,-2.57298 -11.00803,-4.7053 -1.71237,-1.1457 -4.02523,-2.97689 -4.57167,-3.61959 -1.28475,-1.51104 -3.23354,-5.24472 -3.23354,-6.19512 0,-0.31249 -0.1387,-0.35523 -0.59531,-0.18342 -1.08784,0.40933 -2.30192,0.0159 -3.48757,-1.13022 -2.24785,-2.17288 -3.76979,-5.22251 -4.39414,-8.80485 -0.51945,-2.9805 0.27201,-5.3671 2.458,-7.4119 l 1.1787,-1.10258 0.15677,-3.39534 c 0.20714,-4.48651 1.45766,-10.55656 3.69744,-17.94742 0.17639,-0.58208 0.29277,-1.08761 0.25861,-1.1234 -0.13602,-0.14251 2.95225,-5.83903 3.83759,-7.07868 0.83391,-1.16765 3.44733,-4.21455 5.35658,-6.24506 0.85797,-0.91247 4.66491,-4.2 5.68854,-4.91241 1.74834,-1.21679 7.2679,-3.50495 9.44535,-3.91562 1.20798,-0.22783 3.02975,-0.63637 4.0484,-0.90788 4.57437,-1.21925 8.34989,-1.37293 10.20182,-0.41526 0.43632,0.22563 1.59362,0.47594 2.57178,0.55625 4.3041,0.35336 9.81163,2.49844 12.93878,5.0394 3.68582,2.99492 5.73201,5.11936 7.72696,8.02245 2.01147,2.92715 5.084,8.26219 5.80434,10.07848 2.1834,5.50532 4.28028,11.53528 4.28028,12.30875 0,0.20576 0.11553,0.58086 0.25673,0.83355 1.1996,2.14668 3.33658,23.3658 2.46339,24.46016 -0.14962,0.18752 -0.35214,1.35297 -0.45004,2.5899 -0.0979,1.23692 -0.29017,2.9038 -0.42726,3.70416 -0.32892,1.92038 -0.93711,8.76197 -1.43474,16.13959 -0.22085,3.27422 -0.47093,6.96515 -0.55572,8.20208 -0.25726,3.7529 -1.3462,9.74918 -2.34631,12.92002 -0.5201,1.64897 -0.94563,3.52421 -0.94563,4.16718 v 1.16905 h -1.20865 -1.20864 l 0.55883,-0.7848 c 0.30736,-0.43164 0.68529,-1.53297 0.83985,-2.4474 0.15457,-0.91442 0.45504,-1.80067 0.66771,-1.96943 0.96471,-0.7655 2.03213,-8.05241 2.86187,-19.53691 0.61654,-8.53374 1.05439,-13.68047 1.33927,-15.74271 0.0704,-0.50932 0.30152,-2.2063 0.51368,-3.77106 0.21217,-1.56476 0.56724,-3.19596 0.78904,-3.62488 0.53352,-1.03171 0.51136,-2.53346 -0.1329,-9.00823 -1.26379,-12.70101 -1.8815,-15.57596 -5.40054,-25.13541 -1.65475,-4.49512 -1.88463,-4.99935 -3.78465,-8.30164 -0.91064,-1.58272 -1.65571,-2.97178 -1.65571,-3.0868 0,-0.11502 -0.0893,-0.24882 -0.19844,-0.29733 -0.10914,-0.0485 -0.8944,-1.13046 -1.74504,-2.40435 -1.77689,-2.66105 -5.60707,-6.42068 -8.63985,-8.48073 -3.38014,-2.296 -7.74478,-3.80508 -11.36505,-3.92949 -1.53035,-0.0526 -1.96585,-0.15756 -2.05413,-0.49515 -0.31592,-1.20809 -4.41378,-1.39926 -8.27665,-0.38612 -1.38245,0.36258 -3.34698,0.84703 -4.36563,1.07654 -3.57087,0.80455 -4.78839,1.22735 -7.9375,2.75642 -2.62538,1.27477 -3.61011,1.93316 -5.68854,3.80335 -4.61882,4.15607 -8.85357,9.49049 -10.61105,13.36653 -1.95251,4.30619 -4.57147,15.48613 -4.90181,20.92515 l -0.17888,2.94513 1.42973,-0.15824 c 4.13607,-0.45779 3.68691,-0.19941 5.5247,-3.17806 2.10229,-3.40735 6.89332,-8.37486 10.98627,-11.39095 0.58208,-0.42894 1.09802,-0.86918 1.14652,-0.97832 0.0485,-0.10915 0.21587,-0.19844 0.3719,-0.19844 0.15604,0 0.67471,-0.29823 1.15259,-0.66273 2.52143,-1.92319 15.39593,-8.86101 16.44513,-8.86197 0.91343,-7.9e-4 0.0376,0.65111 -2.77812,2.06795 -9.51433,4.78752 -16.01087,9.04997 -20.72071,13.5951 -2.01629,1.94578 -5.01002,5.2888 -5.01002,5.59456 0,0.0907 0.44648,-0.066 0.99219,-0.34814 4.09365,-2.11651 9.18503,-3.4405 13.24656,-3.44472 2.40644,-0.002 3.66035,0.29882 3.34784,0.80447 -0.0854,0.13822 -1.37708,0.25131 -2.87035,0.25131 -4.10514,0 -8.00359,0.92151 -12.77678,3.02016 -1.18662,0.52173 -2.31678,0.95094 -2.51149,0.95381 -0.19471,0.003 -0.7478,0.67875 -1.2291,1.50195 l -0.8751,1.49674 0.50337,0.68086 c 0.86967,1.17631 1.37911,2.34569 1.37911,3.16564 0,1.21236 -0.39239,1.18397 -0.73401,-0.0531 -0.1684,-0.60983 -0.61556,-1.58503 -0.99368,-2.16711 l -0.68749,-1.05833 0.14965,1.10737 c 0.0823,0.60905 0.62572,2.55205 1.20759,4.31777 1.03667,3.14585 1.30965,4.76131 0.80456,4.76131 -0.13936,0 -0.50373,-0.8632 -0.8097,-1.91822 -0.90073,-3.10574 -1.37229,-4.5518 -1.54913,-4.7504 -0.0913,-0.10249 -0.12849,1.05846 -0.0827,2.57988 0.0794,2.64177 0.10621,2.75389 0.59531,2.49213 0.66487,-0.35582 0.6608,-0.11572 -0.0405,2.39568 -0.39692,1.4213 -0.55069,2.7314 -0.54561,4.6485 0.006,2.38843 0.0893,2.84801 0.78795,4.36563 1.14226,2.48113 2.54668,4.21884 4.65831,5.76379 1.02836,0.75238 2.10786,1.55267 2.3989,1.77841 1.00581,0.78015 4.02342,2.46546 5.31668,2.96932 1.57852,0.615 7.4985,2.00559 7.69625,1.80784 0.0781,-0.0781 0.20586,-2.17279 0.28399,-4.65495 0.12717,-4.03996 0.0972,-4.51302 -0.28603,-4.51302 -0.66738,0 -3.41398,-1.28741 -4.07853,-1.91172 -0.32889,-0.30898 -0.59798,-0.71961 -0.59798,-0.91253 0,-0.44982 0.70198,-0.45643 0.97904,-0.009 0.21753,0.35113 3.22204,1.77514 3.74536,1.77514 0.44255,0 0.52204,-0.74483 0.67768,-6.35 0.19277,-6.94257 0.79763,-13.03756 1.74232,-17.55665 1.7398,-8.32261 2.00285,-9.40501 2.96716,-12.20898 0.41221,-1.19862 4.25573,-8.94523 4.6368,-9.34546 0.18309,-0.19229 0.33289,-0.44196 0.33289,-0.55482 0,-0.32009 0.95718,-1.3445 1.25626,-1.3445 0.14748,0 0.60785,0.68461 1.02304,1.52135 1.29372,2.60724 3.49058,6.20548 4.63808,7.59671 0.6047,0.73314 2.91403,3.13063 5.13184,5.32775 2.21781,2.19713 4.57929,4.7377 5.24774,5.64572 1.96362,2.66739 2.86653,6.63629 3.34448,14.70118 0.36186,6.10607 0.82788,9.87947 1.58635,12.84473 0.31464,1.23009 0.65168,3.42714 0.74899,4.88235 l 0.17693,2.64583 0.59398,-2.72205 c 0.32669,-1.49712 0.59398,-3.07972 0.59398,-3.51688 0,-1.06047 0.68769,-4.35154 1.4883,-7.12253 0.35739,-1.23692 0.95088,-3.55864 1.31888,-5.15937 0.79804,-3.47132 1.52909,-5.27802 2.05415,-5.07653 0.2021,0.0776 0.80176,-0.15412 1.33258,-0.51483 1.39322,-0.94671 4.22382,-1.94927 5.50357,-1.94927 2.07647,0 3.43443,1.54043 3.81673,4.32961 0.29653,2.16342 -0.97048,5.17068 -3.74954,8.89956 -2.31807,3.11035 -3.88068,4.55602 -6.27695,5.80724 -1.49873,0.78257 -2.36927,1.07193 -3.22493,1.07193 h -1.17204 l -0.1744,1.25677 c -0.45941,3.31054 -2.21692,8.92969 -2.79295,8.92969 -0.29592,0 -0.40168,-0.77168 -0.51518,-3.7588 -0.0785,-2.06733 -0.19762,-3.81208 -0.26459,-3.87721 -0.067,-0.0651 -0.83395,0.525 -1.70439,1.3114 -1.65722,1.49719 -2.09714,1.6906 -2.34951,1.03294 -0.16938,-0.4414 0.0468,-1.19063 0.34349,-1.19063 0.10515,0 0.92585,-0.66483 1.82377,-1.4774 1.2894,-1.16684 1.63259,-1.6396 1.63259,-2.24896 0,-0.42436 -0.11906,-0.77155 -0.26458,-0.77155 -0.14553,0 -0.26459,0.10665 -0.26459,0.237 0,0.13034 -1.10133,1.35701 -2.44739,2.72592 -1.95941,1.99266 -2.89582,2.71989 -4.69636,3.64726 -1.23693,0.63707 -2.78474,1.4977 -3.43958,1.91249 l -1.19063,0.75417 -0.30759,2.1746 c -0.16917,1.19603 -0.318,3.64304 -0.33073,5.43779 -0.0173,2.44558 -0.10417,3.23619 -0.34657,3.15539 -0.92423,-0.30808 -0.95248,-5.23249 -0.0554,-9.6591 0.17304,-0.85383 0.1685,-0.85829 -0.71569,-0.70494 -0.48941,0.0849 -1.24703,0.2678 -1.68359,0.4065 -0.43656,0.13869 -2.89138,0.32527 -5.45514,0.41462 l -4.6614,0.16246 0.65611,1.61323 c 0.5334,1.31149 0.64921,2.02438 0.61919,3.81134 -0.0321,1.90896 -0.36409,3.22555 -0.81355,3.22598 -0.0741,7e-5 -0.13479,-1.22032 -0.13479,-2.71198 0,-2.80631 -0.33093,-4.39968 -1.12609,-5.42198 -0.38121,-0.4901 -0.76033,-0.60507 -2.1812,-0.66146 l -1.71979,-0.0683 -0.16889,3.30729 c -0.0929,1.81901 -0.20289,3.99105 -0.24444,4.82675 -0.0416,0.8357 -4e-5,1.59495 0.0922,1.68723 0.0923,0.0923 1.2616,-0.0972 2.59848,-0.42116 l 2.43071,-0.58893 0.68306,0.88607 c 1.649,2.1391 3.20691,3.34062 4.93969,3.80966 2.12555,0.57536 3.42335,0.38601 5.61941,-0.8199 1.88134,-1.03308 1.90912,-1.04132 1.90912,-0.56593 0,0.41222 -1.03663,1.21318 -2.60711,2.01437 -1.20321,0.61383 -3.35396,0.79197 -5.06581,0.41957 -1.69818,-0.36943 -4.04663,-2.17832 -5.30468,-4.08592 l -0.40991,-0.62154 -1.97134,0.53593 c -1.08425,0.29476 -2.77603,0.72518 -3.75951,0.95649 -4.3099,1.01368 -7.3744,3.46498 -8.88298,7.10551 -0.95164,2.29651 -2.2036,6.74254 -2.29359,8.14513 -0.17036,2.65529 -0.44046,3.70417 -0.95386,3.70417 -0.43219,0 -0.48896,-0.14717 -0.38272,-0.99219 z m 30.17664,-30.94078 c 1.36304,-0.56775 7.78383,-4.37291 9.02129,-5.3463 1.7282,-1.3594 4.08718,-3.72808 4.31835,-4.3361 0.17356,-0.45651 0.13189,-1.40916 -0.13157,-3.00813 -0.39232,-2.38104 -0.70709,-5.91171 -1.14034,-12.79108 -0.29283,-4.64959 -1.61806,-9.88468 -2.72622,-10.76943 -0.66064,-0.52744 -5.9125,-2.49503 -7.75435,-2.90513 -1.01865,-0.22681 -3.44659,-0.45459 -5.39543,-0.50618 -1.94885,-0.0516 -3.61228,-0.16273 -3.69651,-0.24697 -0.71484,-0.71484 5.2352,-0.90163 8.5455,-0.26827 1.10751,0.21191 3.0445,0.80555 4.30442,1.31921 1.25991,0.51367 2.35282,0.87187 2.42867,0.79602 0.0759,-0.0759 -1.54175,-1.7447 -3.59468,-3.70854 -3.42843,-3.27967 -5.97587,-6.23125 -7.40653,-8.58155 -0.49568,-0.8143 -0.91208,-1.57569 -2.65385,-4.85263 l -0.39949,-0.7516 -0.65887,1.14847 c -0.36238,0.63166 -1.48827,2.87488 -2.50198,4.98493 -1.84264,3.83549 -2.93498,7.26373 -4.04658,12.7 -0.25293,1.23693 -0.55706,2.54662 -0.67585,2.91042 -0.23173,0.7097 -0.91252,5.41028 -1.1819,8.16045 l -0.16437,1.67817 0.80966,-0.17784 c 1.04168,-0.22879 1.06505,0.23598 0.0348,0.69201 -0.55874,0.24733 -0.8206,0.58683 -0.93887,1.2173 -0.0902,0.48088 -0.0917,0.99136 -0.003,1.13441 0.32258,0.52195 2.00065,0.23804 4.01283,-0.67894 1.46858,-0.66926 2.20453,-0.87478 2.56172,-0.7154 0.41207,0.18387 0.19249,0.35481 -1.23519,0.96159 -1.18861,0.50516 -1.69238,0.85254 -1.59696,1.10119 0.1837,0.47873 -0.84529,0.72837 -2.51448,0.61003 l -1.3026,-0.0924 -0.15865,1.85209 c -0.31239,3.64685 -0.24743,8.64989 0.11522,8.87403 0.53776,0.33235 5.67663,0.60319 7.79779,0.41098 1.99146,-0.18046 2.72779,0.0923 1.71395,0.63488 -0.76935,0.41174 -5.30459,0.60727 -7.85796,0.33879 l -2.16572,-0.22773 -0.0832,4.37723 c -0.0514,2.70526 0.0178,4.4568 0.18134,4.58555 0.14552,0.11457 3.5388,0.16766 7.54063,0.11796 6.65324,-0.0826 7.3893,-0.13754 8.59929,-0.64154 z m 6.86926,-13.29529 c 0.27569,-0.44608 3.34283,-2.19438 3.52686,-2.01035 0.21542,0.21542 -0.77133,1.02585 -2.11769,1.73928 -1.05323,0.5581 -1.65853,0.67453 -1.40917,0.27107 z m -3.82689,-1.07027 c 0,-0.14357 0.38695,-0.42464 0.85989,-0.62461 0.47295,-0.19997 1.56555,-0.79091 2.42801,-1.31319 1.44406,-0.87447 2.00377,-1.00661 2.00377,-0.47305 0,0.11402 -0.44291,0.43441 -0.98424,0.71199 -0.54134,0.27757 -1.51715,0.8321 -2.16847,1.23229 -1.20044,0.73756 -2.13896,0.94228 -2.13896,0.46657 z m -1.05833,-1.54493 c 0,-0.60271 3.36925,-2.69196 4.34121,-2.69196 1.0443,0 0.45859,0.57601 -1.71579,1.68739 -2.5702,1.31369 -2.62542,1.33482 -2.62542,1.00457 z m -17.19792,-6.60392 c 0,-0.22281 3.27621,-1.90887 3.70917,-1.90887 0.14277,0 0.25958,0.18009 0.25958,0.40021 0,0.23178 -0.62628,0.67718 -1.48813,1.05834 -1.49156,0.65963 -2.48062,0.83919 -2.48062,0.45032 z m 10.99409,-1.54262 c -2.4184,-0.76252 -4.63239,-2.7137 -5.15774,-4.54548 -0.464,-1.61788 1.4002,-3.37553 4.3883,-4.13748 1.01946,-0.25995 2.79543,-0.416 4.7625,-0.41845 2.8282,-0.004 3.39711,0.0809 5.78264,0.85772 2.21218,0.7204 2.85182,1.06 3.9026,2.07193 1.16133,1.1184 1.62513,2.10134 0.9915,2.10134 -0.1459,0 -0.71144,-0.49445 -1.25677,-1.09878 -1.07729,-1.19385 -1.80623,-1.56713 -4.82795,-2.47235 -2.02197,-0.60572 -2.59694,-0.50126 -2.12232,0.38559 0.13461,0.25151 0.0726,0.7702 -0.15748,1.3174 -0.28119,0.66878 -0.30043,0.95142 -0.0743,1.09119 0.54204,0.33499 0.001,0.81084 -0.57239,0.50378 -0.59507,-0.31848 -0.66242,-1.009 -0.16477,-1.68957 0.26695,-0.36507 0.2824,-0.69189 0.0661,-1.39872 l -0.28219,-0.92234 -2.74132,0.18499 c -1.50773,0.10174 -3.35319,0.38099 -4.10104,0.62055 -1.13883,0.3648 -1.3729,0.54929 -1.44079,1.13566 -0.0446,0.38505 -0.31248,0.90952 -0.59532,1.16548 -0.28283,0.25596 -0.51424,0.58936 -0.51424,0.74087 0,0.15151 0.39478,-0.10716 0.87729,-0.57483 1.09395,-1.0603 1.51091,-0.77636 0.51642,0.35167 -0.40274,0.45681 0.0713,-0.0116 1.05333,-1.04094 1.03437,-1.08416 1.78573,-1.69342 1.78594,-1.4482 5.3e-4,0.49447 -1.21063,2.20673 -2.21275,3.12853 -0.38352,0.35279 -0.69217,0.82904 -0.68589,1.05833 0.0136,0.49371 3.28448,-2.9034 3.85168,-4.00024 0.34863,-0.67419 1.16398,-1.04506 1.16398,-0.52945 0,0.47441 -1.59886,2.64564 -2.85599,3.87839 -0.73646,0.72218 -1.27499,1.41664 -1.19674,1.54325 0.44684,0.723 4.62556,1.77391 7.05358,1.77391 0.878,0 0.92784,-0.053 1.2288,-1.30756 0.17252,-0.71915 0.23908,-1.54257 0.14792,-1.82981 -0.18079,-0.56959 0.28865,-1.03349 0.66499,-0.65715 0.40826,0.40826 0.45211,1.50862 0.10642,2.67004 l -0.33469,1.12448 h 0.75861 c 1.1788,0 3.16687,-0.76263 4.53679,-1.74032 0.76155,-0.54352 1.3125,-0.782 1.41678,-0.61327 0.24845,0.402 -0.76863,1.37876 -2.34574,2.25276 -1.34368,0.74464 -1.47658,0.76365 -5.74115,0.82105 -3.34991,0.0451 -4.67018,-0.0373 -5.67465,-0.35397 z m 0.11841,-3.65854 c 0,-0.21003 0.21335,-0.53745 0.4741,-0.7276 0.26076,-0.19015 0.87901,-0.8555 1.37389,-1.47854 0.71155,-0.89582 0.94592,-1.05036 1.12032,-0.73871 0.23438,0.41881 -0.067,0.88801 -1.57043,2.44522 -0.91012,0.94266 -1.39788,1.11699 -1.39788,0.49963 z m -4.49792,-5.16828 c 0,-0.67918 2.81612,-1.5936 4.90782,-1.5936 1.29541,0 1.23285,0.72302 -0.0792,0.91482 -0.54571,0.0798 -1.7661,0.3243 -2.71198,0.54338 -2.02058,0.468 -2.11667,0.47414 -2.11667,0.1354 z m 30.36759,23.38962 c 2.34395,-1.16804 7.15396,-6.74304 8.77151,-10.16655 1.26888,-2.68556 1.04865,-5.89925 -0.48445,-7.06919 -0.99492,-0.75925 -3.82706,-0.11136 -6.79824,1.5552 l -1.3488,0.75656 -0.59782,2.57715 c -0.32881,1.41744 -0.832,3.47012 -1.11821,4.56153 -1.31297,5.00673 -2.06866,8.0133 -2.06866,8.23031 0,0.50403 2.30497,0.22259 3.64467,-0.44501 z m -0.0405,-6.31883 c 0.0895,-0.23322 0.18156,-0.79856 0.20458,-1.2563 0.023,-0.45773 0.19453,-0.88313 0.38112,-0.94533 0.25183,-0.084 0.3182,0.21723 0.25752,1.16855 -0.0618,0.96959 -0.19427,1.30301 -0.54385,1.36939 -0.33093,0.0628 -0.41591,-0.0326 -0.29937,-0.33631 z m 0.89375,-3.69481 c 0,-0.50858 2.00127,-2.21774 3.30729,-2.82456 1.19666,-0.556 3.56906,-0.66492 4.04813,-0.18585 0.6567,0.6567 0.2363,3.38667 -0.52152,3.38667 -0.19203,0 -0.23683,-0.39699 -0.13152,-1.16531 0.20405,-1.48871 -0.19812,-1.87972 -1.68829,-1.64143 -1.11932,0.17899 -3.81576,1.79571 -4.06105,2.43491 -0.18641,0.48578 -0.95304,0.48222 -0.95304,-0.004 z m -63.07478,4.7173 c 0.4923,-0.13215 0.58457,-0.43345 0.78888,-2.57608 0.28167,-2.9538 0.18504,-10.26124 -0.13999,-10.58627 -0.12924,-0.12924 -0.16705,-1.13317 -0.084,-2.23097 l 0.15095,-1.99598 -1.90757,0.17729 c -2.32503,0.21609 -2.94329,0.59598 -4.09434,2.51577 -1.19888,1.99958 -1.58359,3.30156 -1.40921,4.76923 0.41141,3.46251 3.15406,8.58431 5.18932,9.69087 0.7972,0.43344 0.78064,0.43084 1.50598,0.23614 z m -0.20669,-6.72968 c -0.10827,-1.13537 0.19734,-1.64777 0.60759,-1.0187 0.31767,0.48714 0.17722,1.88604 -0.20183,2.01029 -0.18318,0.06 -0.34263,-0.32963 -0.40576,-0.99159 z m -4.51587,-3.84899 c -0.26341,-0.26341 0.24595,-1.60067 0.89549,-2.35098 0.80872,-0.9342 1.35791,-1.21849 1.81186,-0.93793 0.28925,0.17876 0.20316,0.38706 -0.41113,0.99469 -0.91619,0.90626 -1.70304,1.9392 -1.70304,2.23566 0,0.24442 -0.37072,0.28102 -0.59318,0.0586 z m 20.70536,57.12317 c 0.002,-0.11981 0.18215,-0.72971 0.40006,-1.35533 0.21792,-0.62563 0.86915,-2.76092 1.44719,-4.7451 1.07295,-3.68304 1.3965,-4.39206 1.67409,-3.66866 0.0857,0.2234 0.042,0.47656 -0.0972,0.56256 -0.13917,0.086 -0.25303,0.44755 -0.25303,0.80341 0,0.69371 -1.01609,4.60947 -1.81503,6.99466 -0.29269,0.87383 -0.66173,1.48939 -0.9237,1.54075 -0.23995,0.0471 -0.43454,-0.0125 -0.43242,-0.13229 z m 34.91419,-0.68085 c 0.4099,-1.74584 1.10177,-3.79598 1.5849,-4.69636 0.85069,-1.58537 0.94078,-0.2794 0.16893,2.44875 -0.38063,1.34533 -0.69126,2.59487 -0.69029,2.77677 0.001,0.1819 -0.28336,0.33073 -0.63184,0.33073 -0.57985,0 -0.61647,-0.0729 -0.4317,-0.85989 z m 13.12973,-0.37278 c 0.21556,-0.71625 0.37098,-2.38666 0.37098,-3.98715 0,-2.48845 -0.0803,-2.94744 -0.83184,-4.75263 -0.61044,-1.46636 -1.2266,-2.39871 -2.3151,-3.50312 -3.22883,-3.27604 -5.05077,-4.05535 -11.49335,-4.91614 -5.65652,-0.75576 -8.09505,-1.43933 -7.81291,-2.19014 0.0588,-0.15655 0.62933,-0.11738 1.47556,0.10132 0.75882,0.19609 3.43772,0.60536 5.95313,0.90948 5.11735,0.6187 7.00282,1.13255 9.44889,2.57514 1.8355,1.0825 4.52955,3.82818 5.37089,5.47381 1.17377,2.29586 1.52765,3.8416 1.52765,6.6729 0,1.50748 -0.14805,3.21524 -0.32901,3.79503 -0.27537,0.88234 -0.44366,1.05417 -1.03243,1.05417 h -0.70344 z m -57.9904,-4.56788 c -2.57727,-2.0588 -3.88543,-4.02528 -5.25533,-7.90007 -0.96731,-2.73601 -1.78867,-7.038 -2.27125,-11.89584 -0.40471,-4.07403 -0.48478,-19.69948 -0.10162,-19.82975 0.19946,-0.0678 0.3461,1.80373 0.47495,6.06145 0.25673,8.48365 0.63045,15.40493 0.92546,17.13976 0.99891,5.87401 2.46593,10.4798 4.02201,12.62734 1.06056,1.46366 3.8574,4.30599 4.23708,4.30599 0.1,0 0.25033,0.1786 0.3341,0.39688 0.30024,0.78243 -0.76056,0.37623 -2.3654,-0.90576 z m 6.50305,-42.86013 c 0,-0.35753 4.74811,-4.25599 5.18355,-4.25599 0.55794,0 0.44972,0.41772 -0.22261,0.8593 -0.32743,0.21504 -1.46931,1.1217 -2.53753,2.0148 -1.88589,1.57672 -2.42341,1.88323 -2.42341,1.38189 z m -1.32292,-2.14742 c 0.3638,-0.28581 1.04461,-0.90478 1.51291,-1.37548 0.63703,-0.64031 0.92735,-0.77991 1.15288,-0.55438 0.22553,0.22553 0.14857,0.38325 -0.30561,0.62632 -0.33388,0.17869 -0.73362,0.43005 -0.8883,0.55859 -1.31038,1.08883 -1.58871,1.28113 -1.84309,1.27341 -0.15963,-0.005 0.007,-0.24264 0.37121,-0.52846 z m -2.91041,-0.20924 c 0,-0.32495 0.6007,-0.84099 0.97895,-0.84099 0.56887,0 0.38831,0.42402 -0.3175,0.74561 -0.3638,0.16576 -0.66145,0.20868 -0.66145,0.0954 z m 2.60445,-4.79449 c -0.53208,-0.10367 -1.70148,-0.62576 -2.59865,-1.1602 -0.89718,-0.53445 -1.66834,-0.97172 -1.7137,-0.97172 -0.0454,0 -0.15117,0.26269 -0.23513,0.58376 -0.19992,0.76451 -0.3883,0.5451 -0.50871,-0.59251 -0.0534,-0.50451 -0.24984,-1.19953 -0.43655,-1.54449 -0.49417,-0.91304 -0.62418,-2.58359 -0.2818,-3.62102 0.36808,-1.11531 2.02995,-2.5757 3.39721,-2.98534 1.74327,-0.5223 7.50351,-0.39153 9.53393,0.21642 2.17886,0.65241 4.36336,2.04369 4.4787,2.85245 0.11139,0.78103 -0.18805,0.74782 -1.44104,-0.15985 -1.53398,-1.1112 -5.65496,-2.51817 -5.65496,-1.93068 0,0.11761 0.13274,0.87485 0.29499,1.68276 0.27246,1.35663 0.25223,1.51169 -0.26458,2.0285 -0.65354,0.65354 -0.722,1.41833 -0.16812,1.87801 0.21531,0.17869 0.46857,0.90611 0.5628,1.6165 0.16347,1.23228 0.20322,1.2839 0.86531,1.1238 0.38169,-0.0923 1.41988,-0.50748 2.30709,-0.92264 1.68374,-0.78788 2.22334,-0.91425 2.22334,-0.52068 0,0.31916 -1.20906,1.08876 -1.71049,1.08876 -0.2234,0 -0.40618,0.10602 -0.40618,0.2356 0,0.12958 -0.93084,0.48677 -2.06854,0.79375 -2.05788,0.55527 -4.32735,0.66878 -6.17492,0.30882 z m 4.13237,-2.06577 c -0.10846,-0.78 -0.36554,-1.39448 -0.67767,-1.61977 -0.65728,-0.47443 -0.64125,-1.5723 0.0334,-2.29048 0.46148,-0.49122 0.51165,-0.78108 0.35941,-2.07642 l -0.17694,-1.5055 -2.67157,0.075 c -2.9143,0.0818 -2.93288,0.0929 -3.45839,2.05936 -0.16516,0.61806 -0.12798,0.60488 0.56667,-0.20082 0.40889,-0.47425 0.83273,-0.86121 0.94187,-0.85989 0.49451,0.006 0.0872,0.81739 -1.25677,2.50399 -0.80037,1.00438 -1.45521,1.94777 -1.45521,2.09643 0,0.34737 0.0598,0.2754 2.2271,-2.67981 0.98717,-1.34607 1.90195,-2.4474 2.03284,-2.4474 0.57689,0 0.10569,0.95026 -1.72709,3.48293 -1.08079,1.49352 -1.90701,2.80944 -1.83604,2.92427 0.17512,0.28336 2.42396,1.30427 3.40423,1.54544 0.43657,0.10741 1.48566,0.20747 2.33132,0.22236 l 1.53757,0.0271 z m -5.14932,-1.64298 c 0,-0.39797 3.47573,-4.90546 3.78261,-4.90546 0.5814,0 0.4247,0.5973 -0.41997,1.60083 -0.48377,0.57475 -1.27986,1.61055 -1.76909,2.30177 -0.81082,1.1456 -1.59355,1.63819 -1.59355,1.00286 z m -3.23626,-1.75621 c 0.27648,-0.90085 0.26712,-0.92917 -0.17488,-0.52916 -0.25684,0.23244 -0.60745,0.42262 -0.77913,0.42262 -0.23368,0 -0.22907,0.133 0.0183,0.52916 0.45868,0.73446 0.60018,0.67055 0.93568,-0.42262 z m 0.19355,-2.22321 c 0.26339,-0.29104 0.34556,-0.52917 0.1826,-0.52917 -0.16295,0 -0.42372,0.23813 -0.57948,0.52917 -0.15576,0.29104 -0.23793,0.52917 -0.18261,0.52917 0.0553,0 0.3161,-0.23813 0.57949,-0.52917 z m -82.416323,5.8337 c -0.821423,-0.20951 -1.068387,-1.0712 -0.307012,-1.0712 0.797018,0 1.363956,0.28022 1.363956,0.67415 0,0.48759 -0.283882,0.59423 -1.056944,0.39705 z m -2.911806,-2.89619 c -2.09215,-0.48082 -3.981156,-1.32236 -4.94135,-2.20134 -0.316651,-0.28986 -0.701143,-0.44951 -0.85443,-0.35478 -0.153283,0.0947 -0.529164,0.0382 -0.835287,-0.12563 -0.521168,-0.27892 -0.528695,-0.32869 -0.118287,-0.78219 0.879586,-0.97193 2.790637,-0.83542 2.404155,0.17174 -0.337931,0.88063 5.197115,2.7365 8.157835,2.73527 1.306692,-5.2e-4 4.315494,-0.62641 7.07286,-1.47124 0.23895,-0.0732 0.495694,-0.3673 0.570542,-0.65352 0.182179,-0.69665 1.110525,-0.66807 1.613252,0.0497 0.519708,0.74199 0.09951,1.66171 -0.667552,1.46112 -0.284649,-0.0744 -1.375783,0.1362 -2.424742,0.46808 -4.290518,1.35747 -6.462673,1.51049 -9.976996,0.70282 z M 39.9579,193.3306 c -0.721569,-0.2894 -0.533101,-0.78097 0.297196,-0.77517 0.773401,0.005 1.352304,0.39581 1.127146,0.76012 -0.214402,0.34691 -0.58707,0.35085 -1.424342,0.0151 z m 96.65606,-1.87085 c -0.7276,-0.58524 -1.71467,-1.23749 -2.19348,-1.44944 -0.83778,-0.37085 -0.9471,-0.89851 -0.18616,-0.89851 0.5172,0 2.78267,1.23645 3.4997,1.91007 0.56524,0.53102 0.8339,1.54577 0.40129,1.51573 -0.10914,-0.008 -0.79375,-0.49261 -1.52135,-1.07785 z M 20.594168,188.45569 c 0,-0.21406 4.313285,-2.25477 4.749781,-2.24723 0.225277,0.004 -0.643278,0.53968 -1.930122,1.19063 -2.217896,1.12192 -2.819659,1.34742 -2.819659,1.0566 z m 34.395833,-0.3445 c 0,-0.43316 6.073659,-2.73643 6.535029,-2.47824 0.288631,0.16153 -0.366403,0.52729 -2.339473,1.30631 -3.198518,1.26288 -4.195556,1.54137 -4.195556,1.17193 z m -35.308645,-0.56235 c 0.284332,-0.27153 2.235729,-1.10828 2.235729,-0.95866 0,0.19312 -1.790752,1.1987 -2.134668,1.1987 -0.219235,0 -0.257427,-0.0907 -0.101061,-0.24004 z m 17.160658,-0.0433 c -1.050063,-0.2525 -2.224929,-1.07805 -2.224929,-1.56339 0,-0.41799 0.468238,-0.54572 0.613433,-0.16734 0.388374,1.01208 4.845961,1.19289 7.421883,0.30105 1.415989,-0.49025 2.095225,-0.2532 1.365472,0.47656 -0.911193,0.91119 -5.0591,1.46213 -7.175859,0.95312 z m 33.229237,-0.84284 c 0,-0.61943 -0.121615,-1.54216 -0.270258,-2.05053 -0.256125,-0.87595 -0.21807,-0.9709 0.727604,-1.81535 0.548825,-0.49008 2.092899,-1.9486 3.431275,-3.24115 2.431796,-2.34852 3.317955,-2.92706 2.692048,-1.75755 -0.391853,0.73219 -3.708677,4.03502 -5.075346,5.05394 -1.004001,0.74853 -1.007472,0.75764 -0.830008,2.17801 0.191069,1.52927 0.0058,2.75885 -0.415772,2.75885 -0.142748,0 -0.259543,-0.5068 -0.259543,-1.12622 z m -16.271875,0.33247 c 0.08994,-0.14552 0.305324,-0.27167 0.478637,-0.28033 0.173313,-0.009 1.505738,-0.58852 2.960947,-1.28858 1.455208,-0.70006 2.803435,-1.21265 2.996057,-1.13909 0.360341,0.13761 -1.808607,1.28201 -3.922099,2.06942 -0.654844,0.24397 -1.303734,0.54699 -1.441979,0.67337 -0.349375,0.31941 -1.271955,0.28945 -1.071563,-0.0348 z m -35.057291,-0.11531 c 0,-0.21448 3.187393,-1.73677 3.636483,-1.73677 0.388893,0 0.396309,0.0452 0.05823,0.35503 -0.69986,0.64134 -3.694718,1.76135 -3.694718,1.38174 z m 33.3375,-0.0235 c 0,-0.15454 0.842848,-0.49643 1.852083,-0.75128 0.363802,-0.0919 0.185208,0.062 -0.396875,0.34192 -1.123807,0.54044 -1.455208,0.63366 -1.455208,0.40936 z m -11.37448,-1.38252 c 0.0037,-0.27876 3.601651,-1.92179 4.164322,-1.90164 0.254804,0.009 -0.478073,0.48537 -1.628622,1.05833 -2.127729,1.05959 -2.540338,1.19681 -2.5357,0.84331 z m -4.765104,-0.70576 c 0.363802,-0.40347 1.018646,-0.90803 1.455209,-1.12125 l 0.79375,-0.38766 -0.661459,0.55253 c -0.363802,0.30388 -1.018645,0.80844 -1.455208,1.12124 l -0.79375,0.56872 z m 1.852084,0.14731 c 0,-0.25453 2.950927,-1.88895 3.410474,-1.88895 0.508894,0 0.318471,0.48564 -0.262758,0.67012 -0.306049,0.0971 -0.977509,0.46235 -1.492131,0.81158 -0.951577,0.64575 -1.655585,0.81893 -1.655585,0.40725 z m -15.213542,-1.60804 c -1.330639,-0.32539 -2.969706,-1.28678 -3.513508,-2.06086 -1.733276,-2.46723 -2.156237,-5.39834 -1.155797,-8.00963 0.8167,-2.13171 1.904873,-3.29487 4.05581,-4.3353 1.716019,-0.83005 1.822347,-0.928 1.306891,-1.20386 -0.308607,-0.16516 -0.561104,-0.41517 -0.561104,-0.55557 0,-0.36194 0.988528,-0.31769 1.218581,0.0545 0.127052,0.20557 0.262427,0.11803 0.402336,-0.26018 0.13631,-0.36848 0.354753,-0.51478 0.617884,-0.4138 0.231224,0.0887 0.407032,0.0147 0.407032,-0.17132 0,-0.22807 0.288271,-0.28073 0.949423,-0.17344 0.821052,0.13324 0.924197,0.0932 0.76287,-0.29611 -0.64847,-1.56489 -0.914733,-4.41986 -0.806942,-8.65227 0.1226,-4.81372 0.414486,-6.59309 1.757775,-10.71562 0.925079,-2.83904 1.416585,-3.69904 1.860413,-3.25521 0.207912,0.20791 0.176858,0.46199 -0.111435,0.91182 -0.486619,0.75928 -1.605796,4.42282 -2.155856,7.05704 -0.522367,2.50159 -0.527757,7.89339 -0.01035,10.35306 0.588971,2.79987 1.481905,4.38767 2.707905,4.81515 1.274559,0.44442 5.778132,0.43003 7.878487,-0.0252 2.029294,-0.4398 2.485954,-0.46851 2.517262,-0.15825 0.05996,0.59418 -3.547115,1.30651 -6.618303,1.30699 -3.67709,5.3e-4 -5.196316,-0.53886 -6.100998,-2.16627 -0.299567,-0.53888 -0.469805,-0.74166 -0.378304,-0.45062 0.0915,0.29104 0.236431,0.87657 0.322077,1.30118 0.130813,0.64854 0.08406,0.74451 -0.292314,0.60009 -0.545299,-0.20924 -2.546297,0.61457 -2.546297,1.04832 0,0.17116 0.506015,0.39547 1.124479,0.49846 2.087097,0.34755 4.783391,2.18073 6.438873,4.37771 1.114936,1.47962 2.755398,5.07948 2.755398,6.04648 0,1.04051 -0.559994,0.54107 -1.388515,-1.23837 -1.275453,-2.73933 -2.543577,-4.79243 -3.243284,-5.25089 -0.624205,-0.409 -0.683199,-0.36626 -4.020121,2.91287 -1.862643,1.83038 -3.475919,3.32847 -3.58506,3.32909 -0.561115,0.003 0.09057,-0.80409 3.108855,-3.85098 1.81901,-1.83625 3.307291,-3.3876 3.307291,-3.44744 0,-0.56836 -1.101029,0.3827 -3.3983,2.93543 -1.505265,1.67265 -2.920905,3.04119 -3.145872,3.04119 -0.336455,0 -0.3819,0.24645 -0.256135,1.38906 0.08409,0.76398 0.23469,1.77602 0.334671,2.24896 0.109868,0.51972 0.07673,0.85989 -0.08378,0.85989 -0.501494,0 -0.991214,-1.72151 -0.991214,-3.48441 0,-1.46583 0.100801,-1.87192 0.595313,-2.3983 0.768106,-0.81761 0.751678,-1.48594 -0.06615,-2.69107 -0.705586,-1.03974 -0.87082,-2.4881 -0.343958,-3.01497 0.488209,-0.4882 -0.02643,-0.37702 -0.978547,0.21142 -0.922612,0.5702 -1.969207,1.99256 -2.630183,3.57449 -0.842678,2.01682 -0.296685,4.79056 1.32155,6.71372 0.724121,0.86057 2.768618,1.77445 3.414911,1.52644 0.223768,-0.0859 0.406852,-0.0408 0.406852,0.10015 0,0.47433 2.932202,0.2615 6.113603,-0.44374 1.736825,-0.38502 3.237587,-0.62031 3.335028,-0.52287 0.754816,0.75481 -4.627378,2.29826 -7.860515,2.25414 -1.091744,-0.0149 -2.342179,-0.11442 -2.778741,-0.22117 z m 2.050521,-8.93289 c -0.684506,-0.25533 -0.29963,-0.93384 2.033426,-3.58481 0.941374,-1.06965 0.865616,-1.44578 -0.313635,-1.55718 -0.254661,-0.0241 -0.575058,-0.0556 -0.711996,-0.0702 -0.273902,-0.0291 -2.396858,2.88722 -2.396858,3.29259 0,0.86954 1.16218,-0.40864 1.875116,-2.06227 0.353949,-0.82098 1.035301,-1.19043 1.035301,-0.56138 0,0.40648 -1.503138,3.00626 -1.954956,3.38123 -0.200253,0.1662 -0.370893,0.79472 -0.379201,1.39672 l -0.01511,1.09455 0.579322,-0.60294 c 0.404659,-0.42116 0.479604,-0.64014 0.248589,-0.72631 z m 3.737028,-4.10187 c -0.229328,-0.37106 -0.535628,-0.22717 -0.818679,0.38458 -0.151493,0.32742 -0.765919,1.14936 -1.365385,1.82654 -1.761273,1.98957 -1.223505,1.85126 0.624424,-0.1606 0.929434,-1.01189 1.63127,-1.93462 1.55964,-2.05052 z m -4.571794,0.19696 c 1.128768,-1.1871 1.118891,-1.5606 -0.03066,-1.15987 -0.433173,0.15101 -0.727456,0.37185 -0.65396,0.49077 0.07349,0.11892 0.01101,0.25708 -0.138846,0.30704 -0.149857,0.0499 -0.330274,0.56613 -0.400923,1.14707 -0.07065,0.58094 -0.04818,0.87766 0.04995,0.65938 0.09812,-0.21828 0.626623,-0.86826 1.174448,-1.44439 z m 45.256736,6.00845 c -0.740233,-1.46361 -2.431383,-7.12901 -2.606318,-8.73125 -0.177644,-1.62703 0.334724,-1.97473 0.584827,-0.39687 0.0865,0.5457 0.776502,2.89719 1.533343,5.22552 1.675791,5.15537 1.608256,4.89479 1.26856,4.89479 -0.153233,0 -0.50442,-0.44648 -0.780412,-0.99219 z m -18.022623,-2.77611 c -0.0078,-0.50069 0.388541,-1.01005 2.704423,-3.47583 0.836525,-0.89068 1.521134,-1.46556 1.521354,-1.27751 2.17e-4,0.18804 -0.119653,0.48569 -0.266383,0.66145 -3.417951,4.09421 -3.950808,4.6449 -3.959394,4.09189 z m -2.908266,-0.45368 c -0.443632,-0.28059 -0.46074,-1.86671 -0.03229,-2.99363 0.263978,-0.69431 0.816727,-1.00382 0.816727,-0.45731 0,0.14553 -0.119063,0.26459 -0.264584,0.26459 -0.145521,0 -0.264583,0.58828 -0.264583,1.3073 0,0.71901 0.119062,1.38089 0.264583,1.47082 0.308616,0.19074 0.356167,0.66333 0.06615,0.65741 -0.10914,-0.002 -0.372843,-0.11436 -0.586003,-0.24918 z m -14.463299,-1.13583 c -0.244565,-0.47294 -0.68565,-1.18586 -0.980189,-1.58425 -0.667933,-0.90344 -0.415954,-1.21337 0.499062,-0.61383 0.984224,0.64489 1.9182,3.05797 1.183577,3.05797 -0.141785,0 -0.457885,-0.38695 -0.70245,-0.85989 z m 15.130605,-0.17391 c -0.138562,-0.2242 0.32689,-0.87256 1.380315,-1.92273 0.87416,-0.87146 1.656975,-1.47509 1.739593,-1.34141 0.08262,0.13368 -0.538525,0.9989 -1.380318,1.92273 -1.083413,1.18899 -1.591603,1.58086 -1.73959,1.34141 z m -5.439116,-0.59259 c 0,-0.39381 1.811959,-2.60694 2.13438,-2.60694 0.135779,0 0.24687,0.23813 0.24687,0.52917 0,0.29104 -0.109353,0.52916 -0.243004,0.52916 -0.133652,0 -0.50055,0.41672 -0.81533,0.92605 -0.550047,0.88999 -1.322916,1.2537 -1.322916,0.62256 z"
       id="path881"
       inkscape:connector-curvature="0" />
  </g>
</svg>
