<svg xmlns:dc="http://purl.org/dc/elements/1.1/" xmlns:cc="http://creativecommons.org/ns#" xmlns:rdf="http://www.w3.org/1999/02/22-rdf-syntax-ns#" xmlns:svg="http://www.w3.org/2000/svg" xmlns="http://www.w3.org/2000/svg" xmlns:sodipodi="http://sodipodi.sourceforge.net/DTD/sodipodi-0.dtd" xmlns:inkscape="http://www.inkscape.org/namespaces/inkscape" version="1.1" id="svg815" width="100" height="100" viewBox="0 0 100 100" sodipodi:docname="Circle.svg" inkscape:version="0.92.4 5da689c313, 2019-01-14">
  <metadata id="metadata821">
    <rdf:RDF>
      <cc:Work rdf:about="">
        <dc:format>image/svg+xml</dc:format>
        <dc:type rdf:resource="http://purl.org/dc/dcmitype/StillImage"/>
        <dc:title/>
      </cc:Work>
    </rdf:RDF>
  </metadata>
  <defs id="defs819">
    <clipPath clipPathUnits="userSpaceOnUse" id="clipPath4597">
      <path d="m 143.8989,191.06182 -1.05237,2.656 h 2.15486 z m -4.44335,6.04698 h 2.00452 l 0.7684,-1.87089 h 3.14446 l 0.6643,1.87089 h 2.33024 l -3.70889,-8.44623 h -1.51191 z" style="fill:#87d639;fill-opacity:1;fill-rule:evenodd;stroke:#000000;stroke-width:0.26499999;stroke-linecap:butt;stroke-linejoin:miter;stroke-miterlimit:4;stroke-dasharray:none;stroke-opacity:1" id="path4599" inkscape:connector-curvature="0"/>
    </clipPath>
    <clipPath clipPathUnits="userSpaceOnUse" id="clipPath888">
      <text id="text892" y="197.22488" x="140.47195" style="font-style:normal;font-weight:normal;font-size:12.1545887px;line-height:1.25;font-family:sans-serif;letter-spacing:0px;word-spacing:0px;fill:#e02828;fill-opacity:1;stroke:#000000;stroke-width:0.30386469;stroke-opacity:1" xml:space="preserve"><tspan style="font-style:normal;font-variant:normal;font-weight:bold;font-stretch:condensed;font-family:'Helvetica Neue';-inkscape-font-specification:'Helvetica Neue Bold Condensed';fill:#e02828;fill-opacity:1;stroke:#000000;stroke-width:0.30386469;stroke-opacity:1" y="197.22488" x="140.47195" id="tspan890" sodipodi:role="line">B</tspan></text>
    </clipPath>
  <clipPath clipPathUnits="userSpaceOnUse" id="clipPathShadow">
      <path style="opacity:1;vector-effect:none;fill:#311094;fill-opacity:1;fill-rule:evenodd;stroke:none;stroke-width:5.21709061;stroke-linecap:butt;stroke-linejoin:miter;stroke-miterlimit:4;stroke-dasharray:none;stroke-dashoffset:0;stroke-opacity:1" d="M 50,20.446534 A 29.553667,29.553667 0 0 0 20.446534,50 29.553667,29.553667 0 0 0 50,79.553466 29.553667,29.553667 0 0 0 79.553466,50 29.553667,29.553667 0 0 0 50,20.446534 Z m 0,15.130377 A 14.423803,14.423803 0 0 1 64.423089,50 14.423803,14.423803 0 0 1 50,64.423089 14.423803,14.423803 0 0 1 35.576911,50 14.423803,14.423803 0 0 1 50,35.576911 Z" id="main_path" inkscape:connector-curvature="0"/>
    </clipPath></defs>
  <sodipodi:namedview pagecolor="#ffffff" bordercolor="#666666" borderopacity="1" objecttolerance="10" gridtolerance="10" guidetolerance="10" inkscape:pageopacity="0" inkscape:pageshadow="2" inkscape:window-width="1920" inkscape:window-height="1028" id="namedview817" showgrid="false" showguides="true" inkscape:guide-bbox="true" inkscape:zoom="5.8901994" inkscape:cx="35.296565" inkscape:cy="47.028529" inkscape:window-x="0" inkscape:window-y="24" inkscape:window-maximized="1" inkscape:current-layer="g832">
    <sodipodi:guide position="57.553229,67.060547" orientation="0,1" id="guide829" inkscape:locked="false"/>
    <sodipodi:guide position="39.37575,34.453782" orientation="0,1" id="guide831" inkscape:locked="false"/>
    <sodipodi:guide position="62.816209,79.793562" orientation="0,1" id="guide839" inkscape:locked="false"/>
    <sodipodi:guide position="55.68572,20.542598" orientation="0,1" id="guide841" inkscape:locked="false"/>
    <sodipodi:guide position="54.501802,33.013206" orientation="0,1" id="guide895" inkscape:locked="false"/>
  </sodipodi:namedview>
  <g id="g832">
    <path style="fill:#ff0c5c;fill-opacity:1;fill-rule:evenodd;stroke:none;stroke-width:2.0;stroke-linecap:butt;stroke-linejoin:miter;stroke-miterlimit:4;stroke-dasharray:none;stroke-opacity:1" d="M 50,20.446534 A 29.553667,29.553667 0 0 0 20.446534,50 29.553667,29.553667 0 0 0 50,79.553466 29.553667,29.553667 0 0 0 79.553466,50 29.553667,29.553667 0 0 0 50,20.446534 Z m 0,15.130377 A 14.423803,14.423803 0 0 1 64.423089,50 14.423803,14.423803 0 0 1 50,64.423089 14.423803,14.423803 0 0 1 35.576911,50 14.423803,14.423803 0 0 1 50,35.576911 Z" id="main_path" inkscape:connector-curvature="0"/>
    <path style="fill:#fd72b9;fill-opacity:1;fill-rule:evenodd;stroke:none;stroke-width:2.0;stroke-linecap:butt;stroke-linejoin:miter;stroke-miterlimit:4;stroke-dasharray:none;stroke-opacity:1" d="M 84.277246,20.168066 A 28.334867,28.334867 0 0 1 55.942379,48.502933 28.334867,28.334867 0 0 1 27.607512,20.168066 28.334867,28.334867 0 0 1 55.942379,-8.1667996 28.334867,28.334867 0 0 1 84.277246,20.168066 Z" id="shadow" inkscape:connector-curvature="0" clip-path="url(#clipPathShadow)"/>
  <svg:path style="fill:none;fill-opacity:1;fill-rule:evenodd;stroke:#e7ba3f;stroke-width:4.0;stroke-linecap:butt;stroke-linejoin:miter;stroke-miterlimit:4;stroke-dasharray:none;stroke-opacity:1" d="M 50,20.446534 A 29.553667,29.553667 0 0 0 20.446534,50 29.553667,29.553667 0 0 0 50,79.553466 29.553667,29.553667 0 0 0 79.553466,50 29.553667,29.553667 0 0 0 50,20.446534 Z m 0,15.130377 A 14.423803,14.423803 0 0 1 64.423089,50 14.423803,14.423803 0 0 1 50,64.423089 14.423803,14.423803 0 0 1 35.576911,50 14.423803,14.423803 0 0 1 50,35.576911 Z" id="outline" inkscape:connector-curvature="0"/>
    </g>
</svg>