<svg xmlns:dc="http://purl.org/dc/elements/1.1/" xmlns:cc="http://creativecommons.org/ns#" xmlns:rdf="http://www.w3.org/1999/02/22-rdf-syntax-ns#" xmlns:svg="http://www.w3.org/2000/svg" xmlns="http://www.w3.org/2000/svg" xmlns:sodipodi="http://sodipodi.sourceforge.net/DTD/sodipodi-0.dtd" xmlns:inkscape="http://www.inkscape.org/namespaces/inkscape" viewBox="0 0 100 100" height="100" width="100" version="1.1" id="svg45" inkscape:version="0.92.4 5da689c313, 2019-01-14">
   <svg:path inkscape:connector-curvature="0" id="background_path" d="M 50,20.446534 C 33.678117,20.446645 20.446645,33.678117 20.446534,50 20.446645,66.321883 33.678117,79.553355 50,79.553466 66.321883,79.553355 79.553355,66.321883 79.553466,50 79.553355,33.678117 66.321883,20.446645 50,20.446534 Z" style="fill:#ffffff;fill-opacity:1;stroke:#ffffff;stroke-width:6.0;stroke-opacity:1;filter:url(#backFilter);" sodipodi:nodetypes="ccccc"/>
    <defs><filter inkscape:collect="always" style="color-interpolation-filters:sRGB" id="backFilter" x="-0.26338398" width="1.526768" y="-0.3420333" height="1.6840666">
      <feGaussianBlur inkscape:collect="always" stdDeviation="7.0858655" id="gaussianBlurBack"/>
    </filter></defs>
  <sodipodi:namedview pagecolor="#ffffff" bordercolor="#666666" borderopacity="1" objecttolerance="10" gridtolerance="10" guidetolerance="10" inkscape:pageopacity="0" inkscape:pageshadow="2" inkscape:window-width="2560" inkscape:window-height="1080" id="namedview47" showgrid="false" inkscape:zoom="3.9506912" inkscape:cx="72.194105" inkscape:cy="20.670582" inkscape:window-x="0" inkscape:window-y="0" inkscape:window-maximized="0" inkscape:current-layer="svg45"/>
<svg:path inkscape:connector-curvature="0" id="main_path" d="M 50,20.446534 C 33.678117,20.446645 20.446645,33.678117 20.446534,50 20.446645,66.321883 33.678117,79.553355 50,79.553466 66.321883,79.553355 79.553355,66.321883 79.553466,50 79.553355,33.678117 66.321883,20.446645 50,20.446534 Z" style="fill:#272646;fill-opacity:1;stroke:#ffffff;stroke-width:4;stroke-opacity:1;stroke-miterlimit:4;stroke-dasharray:none" sodipodi:nodetypes="ccccc"/>
    <svg:path inkscape:original-d="M 50,20.446534 C 33.678117,20.446645 20.446645,33.678117 20.446534,50 20.446645,66.321883 33.678117,79.553355 50,79.553466 66.321883,79.553355 79.553355,66.321883 79.553466,50 79.553355,33.678117 66.321883,20.446645 50,20.446534 Z" inkscape:path-effect="#path-effect857" sodipodi:nodetypes="ccccc" style="opacity:1;vector-effect:none;fill:none;fill-opacity:1;fill-rule:evenodd;stroke:#9294a8;stroke-width:8;stroke-linecap:butt;stroke-linejoin:miter;stroke-miterlimit:4;stroke-dasharray:none;stroke-dashoffset:0;stroke-opacity:1" d="M 50,31.785156 C 39.997184,31.785224 31.785224,39.99703 31.785156,50 31.785224,60.002816 39.99703,68.214776 50,68.214844 60.002816,68.214776 68.214776,60.00297 68.214844,50 68.214776,39.997184 60.00297,31.785224 50,31.785156 Z" id="main_path-6" inkscape:connector-curvature="0"/>
  </svg>