<svg xmlns:dc="http://purl.org/dc/elements/1.1/" xmlns:cc="http://creativecommons.org/ns#" xmlns:rdf="http://www.w3.org/1999/02/22-rdf-syntax-ns#" xmlns:svg="http://www.w3.org/2000/svg" xmlns="http://www.w3.org/2000/svg" xmlns:sodipodi="http://sodipodi.sourceforge.net/DTD/sodipodi-0.dtd" xmlns:inkscape="http://www.inkscape.org/namespaces/inkscape" viewBox="0 0 100 100" height="100" width="100" version="1.1" id="svg45" inkscape:version="0.92.4 5da689c313, 2019-01-14">
   <svg:path style="fill:#ffffff;fill-opacity:1;stroke:#ffffff;stroke-width:6.0;stroke-opacity:1;filter:url(#backFilter);" d="M 29.90428,19.087166 19.087166,29.90428 39.182886,50 19.087166,70.09572 29.90428,80.912834 50,60.817114 70.09572,80.912834 80.912834,70.09572 60.817114,50 80.912834,29.90428 70.09572,19.087166 50,39.182886 Z" id="background_path" inkscape:connector-curvature="0"/>
    <defs><filter inkscape:collect="always" style="color-interpolation-filters:sRGB" id="backFilter" x="-0.26338398" width="1.526768" y="-0.3420333" height="1.6840666">
      <feGaussianBlur inkscape:collect="always" stdDeviation="7.0858655" id="gaussianBlurBack"/>
    </filter></defs>
  <sodipodi:namedview pagecolor="#ffffff" bordercolor="#666666" borderopacity="1" objecttolerance="10" gridtolerance="10" guidetolerance="10" inkscape:pageopacity="0" inkscape:pageshadow="2" inkscape:window-width="2560" inkscape:window-height="1080" id="namedview47" showgrid="false" inkscape:zoom="3.9506912" inkscape:cx="72.194105" inkscape:cy="20.670582" inkscape:window-x="0" inkscape:window-y="0" inkscape:window-maximized="0" inkscape:current-layer="svg45"/>
<svg:path style="fill:#272646;fill-opacity:1;stroke:#ffffff;stroke-width:4;stroke-opacity:1;stroke-miterlimit:4;stroke-dasharray:none" d="M 29.90428,19.087166 19.087166,29.90428 39.182886,50 19.087166,70.09572 29.90428,80.912834 50,60.817114 70.09572,80.912834 80.912834,70.09572 60.817114,50 80.912834,29.90428 70.09572,19.087166 50,39.182886 Z" id="main_path" inkscape:connector-curvature="0"/>
    <svg:path inkscape:connector-curvature="0" id="main_path-5" d="M 29.904297,25.767578 25.767578,29.904297 45.865234,50 25.767578,70.095703 29.904297,74.232422 50,54.134766 70.095703,74.232422 74.232422,70.095703 54.134766,50 74.232422,29.904297 70.095703,25.767578 50,45.865234 Z" style="opacity:1;vector-effect:none;fill:#9294a8;fill-opacity:1;fill-rule:evenodd;stroke:none;stroke-width:2.382;stroke-linecap:butt;stroke-linejoin:miter;stroke-miterlimit:4;stroke-dasharray:none;stroke-dashoffset:0;stroke-opacity:1" inkscape:path-effect="#path-effect881" inkscape:original-d="M 29.90428,19.087166 19.087166,29.90428 39.182886,50 19.087166,70.09572 29.90428,80.912834 50,60.817114 70.09572,80.912834 80.912834,70.09572 60.817114,50 80.912834,29.90428 70.09572,19.087166 50,39.182886 Z"/>
  </svg>