<?xml version="1.0" encoding="UTF-8" standalone="no"?>
<svg
   xmlns:dc="http://purl.org/dc/elements/1.1/"
   xmlns:cc="http://creativecommons.org/ns#"
   xmlns:rdf="http://www.w3.org/1999/02/22-rdf-syntax-ns#"
   xmlns:svg="http://www.w3.org/2000/svg"
   xmlns="http://www.w3.org/2000/svg"
   xmlns:sodipodi="http://sodipodi.sourceforge.net/DTD/sodipodi-0.dtd"
   xmlns:inkscape="http://www.inkscape.org/namespaces/inkscape"
   version="1.1"
   id="svg815"
   width="100"
   height="100"
   viewBox="0 0 100 100"
   sodipodi:docname="Heart_sustain.svg"
   inkscape:version="1.0.2 (e86c870879, 2021-01-15)">
  <metadata
     id="metadata821">
    <rdf:RDF>
      <cc:Work
         rdf:about="">
        <dc:format>image/svg+xml</dc:format>
        <dc:type
           rdf:resource="http://purl.org/dc/dcmitype/StillImage" />
        <dc:title />
      </cc:Work>
    </rdf:RDF>
  </metadata>
  <defs
     id="defs819">
    <inkscape:path-effect
       effect="offset"
       id="path-effect874"
       is_visible="true"
       lpeversion="1"
       linejoin_type="miter"
       unit="mm"
       offset="-1.5"
       miter_limit="4"
       attempt_force_join="true"
       update_on_knot_move="true" />
    <inkscape:path-effect
       update_on_knot_move="true"
       attempt_force_join="true"
       miter_limit="4"
       offset="-0.9"
       unit="mm"
       linejoin_type="miter"
       lpeversion="1"
       is_visible="true"
       id="path-effect932"
       effect="offset" />
    <inkscape:path-effect
       update_on_knot_move="true"
       attempt_force_join="true"
       miter_limit="4"
       offset="0"
       unit="mm"
       linejoin_type="miter"
       lpeversion="1"
       is_visible="true"
       id="path-effect915"
       effect="offset" />
    <clipPath
       clipPathUnits="userSpaceOnUse"
       id="clipPath4597">
      <path
         d="m 143.8989,191.06182 -1.05237,2.656 h 2.15486 z m -4.44335,6.04698 h 2.00452 l 0.7684,-1.87089 h 3.14446 l 0.6643,1.87089 h 2.33024 l -3.70889,-8.44623 h -1.51191 z"
         style="fill:#87d639;fill-opacity:1;fill-rule:evenodd;stroke:#000000;stroke-width:0.26499999;stroke-linecap:butt;stroke-linejoin:miter;stroke-miterlimit:4;stroke-dasharray:none;stroke-opacity:1"
         id="path4599"
         inkscape:connector-curvature="0" />
    </clipPath>
    <clipPath
       clipPathUnits="userSpaceOnUse"
       id="clipPath888">
      <text
         id="text892"
         y="197.22488"
         x="140.47195"
         style="font-style:normal;font-weight:normal;font-size:12.1546px;line-height:1.25;font-family:sans-serif;letter-spacing:0px;word-spacing:0px;fill:#e02828;fill-opacity:1;stroke:#000000;stroke-width:0.303865;stroke-opacity:1"
         xml:space="preserve"><tspan
           style="font-style:normal;font-variant:normal;font-weight:bold;font-stretch:condensed;font-family:'Helvetica Neue';-inkscape-font-specification:'Helvetica Neue Bold Condensed';fill:#e02828;fill-opacity:1;stroke:#000000;stroke-width:0.303865;stroke-opacity:1"
           y="197.22488"
           x="140.47195"
           id="tspan890"
           sodipodi:role="line">B</tspan></text>
    </clipPath>
  </defs>
  <sodipodi:namedview
     pagecolor="#ffffff"
     bordercolor="#666666"
     borderopacity="1"
     objecttolerance="10"
     gridtolerance="10"
     guidetolerance="10"
     inkscape:pageopacity="0"
     inkscape:pageshadow="2"
     inkscape:window-width="2560"
     inkscape:window-height="1034"
     id="namedview817"
     showgrid="false"
     showguides="true"
     inkscape:guide-bbox="true"
     inkscape:zoom="5.8901995"
     inkscape:cx="1.2480429"
     inkscape:cy="53.343799"
     inkscape:window-x="1920"
     inkscape:window-y="46"
     inkscape:window-maximized="1"
     inkscape:current-layer="g832"
     inkscape:document-rotation="0">
    <sodipodi:guide
       position="57.553229,67.060547"
       orientation="0,1"
       id="guide829"
       inkscape:locked="false" />
    <sodipodi:guide
       position="39.37575,34.453782"
       orientation="0,1"
       id="guide831"
       inkscape:locked="false" />
    <sodipodi:guide
       position="62.816209,79.793562"
       orientation="0,1"
       id="guide839"
       inkscape:locked="false" />
    <sodipodi:guide
       position="55.68572,20.542598"
       orientation="0,1"
       id="guide841"
       inkscape:locked="false" />
    <sodipodi:guide
       position="54.501802,33.013206"
       orientation="0,1"
       id="guide895"
       inkscape:locked="false" />
  </sodipodi:namedview>
  <g
     id="g832">
    <path
       style="fill:#000000;stroke-width:0.32"
       id="path979"
       d="" />
    <path
       style="clip-rule:evenodd;fill-rule:evenodd;stroke-width:2.4635"
       sodipodi:nodetypes="ccsscsc"
       d="m 64.105995,22.926147 c -5.427088,0 -10.952716,2.566966 -14.105995,7.97681 -3.165596,-5.434479 -8.676443,-8.001445 -14.08875,-8.001445 -7.841317,0 -15.473236,5.387672 -15.473236,15.251522 0,11.482368 13.724152,23.228331 29.561986,38.945454 15.840298,-15.717123 29.561986,-27.463086 29.561986,-38.945454 0,-9.881094 -7.624529,-15.226887 -15.455991,-15.226887"
       id="main_path" />
    <path
       style="color:#000000;font-style:normal;font-variant:normal;font-weight:normal;font-stretch:normal;font-size:medium;line-height:normal;font-family:sans-serif;font-variant-ligatures:normal;font-variant-position:normal;font-variant-caps:normal;font-variant-numeric:normal;font-variant-alternates:normal;font-variant-east-asian:normal;font-feature-settings:normal;font-variation-settings:normal;text-indent:0;text-align:start;text-decoration:none;text-decoration-line:none;text-decoration-style:solid;text-decoration-color:#000000;letter-spacing:normal;word-spacing:normal;text-transform:none;writing-mode:lr-tb;direction:ltr;text-orientation:mixed;dominant-baseline:auto;baseline-shift:baseline;text-anchor:start;white-space:normal;shape-padding:0;shape-margin:0;inline-size:0;clip-rule:evenodd;display:inline;overflow:visible;visibility:visible;opacity:1;isolation:auto;mix-blend-mode:normal;color-interpolation:sRGB;color-interpolation-filters:linearRGB;solid-color:#000000;solid-opacity:1;vector-effect:none;fill:#9294a8;fill-opacity:1;fill-rule:evenodd;stroke:none;stroke-linecap:butt;stroke-linejoin:miter;stroke-miterlimit:4;stroke-dasharray:none;stroke-dashoffset:0;stroke-opacity:1;color-rendering:auto;image-rendering:auto;shape-rendering:auto;text-rendering:auto;enable-background:accumulate;stop-color:#000000;stop-opacity:1"
       d="m 35.912109,27.072266 c -2.765945,0 -5.566789,0.83651 -7.724609,2.685546 -2.15782,1.849037 -3.580078,4.736216 -3.580078,8.394532 0,4.580773 2.79133,9.166922 7.125,14.33789 4.33367,5.170968 10.32674,10.958393 17.216797,17.722657 L 50,71.246094 51.050781,70.212891 C 57.941685,63.448562 63.93409,57.66115 68.267578,52.490234 c 4.333488,-5.170915 7.125,-9.756976 7.125,-14.33789 0,-3.668008 -1.415179,-6.553054 -3.570312,-8.394532 -2.155134,-1.841477 -4.952152,-2.662109 -7.716797,-2.662109 -4.004469,0 -8.18637,1.930228 -10.503907,5.90625 L 49.998047,39.181641 46.398438,33 C 44.063776,28.992012 39.895139,27.072266 35.912109,27.072266 Z m 0,3 c 3.034526,0 6.126342,1.407297 7.892579,4.439453 l 6.193359,10.630859 6.197265,-10.628906 c 1.74072,-2.986422 4.858911,-4.417969 7.910157,-4.417969 2.164578,0 4.261463,0.656443 5.767578,1.943359 1.506115,1.286917 2.519531,3.181581 2.519531,6.113282 0,3.298463 -2.258738,7.440181 -6.423828,12.410156 C 62.033124,55.258668 56.418897,60.737338 50,67.033203 43.581818,60.73738 37.96902,55.258746 34.033203,50.5625 29.867886,45.592412 27.607422,41.450363 27.607422,38.152344 c 0,-2.915084 1.018846,-4.817582 2.533203,-6.115235 1.514357,-1.297653 3.616762,-1.964843 5.771484,-1.964843 z"
       id="main_path2"
       sodipodi:nodetypes="sssscccsssscccsscccsssscssss" />
  </g>
</svg>
