<svg xmlns:dc="http://purl.org/dc/elements/1.1/" xmlns:cc="http://creativecommons.org/ns#" xmlns:rdf="http://www.w3.org/1999/02/22-rdf-syntax-ns#" xmlns:svg="http://www.w3.org/2000/svg" xmlns="http://www.w3.org/2000/svg" xmlns:sodipodi="http://sodipodi.sourceforge.net/DTD/sodipodi-0.dtd" xmlns:inkscape="http://www.inkscape.org/namespaces/inkscape" viewBox="0 0 100 100" height="100" width="100" version="1.1" id="svg45" inkscape:version="0.92.4 5da689c313, 2019-01-14">
   <svg:path d="m 55.806901,36.476034 q 6.570967,0 10.696924,3.667517 4.125956,3.667517 4.125956,11.843023 V 79.49295 H 56.036121 V 56.418157 q 0,-4.202363 -1.222506,-6.341748 -1.222506,-2.139385 -3.896737,-2.139385 -4.125956,0 -5.577682,3.361891 -1.375318,3.36189 -1.375318,9.703638 V 79.49295 H 29.370217 V 37.2401 h 11.00255 l 1.986572,5.577682 h 0.534846 q 1.986572,-2.979857 5.195649,-4.660803 3.285484,-1.680945 7.717067,-1.680945 z M 34.107426,33.343363 q 0.45844,-7.029407 2.827044,-9.856451 2.445012,-2.903451 6.570968,-2.903451 1.910165,0 4.04955,0.916879 2.215791,0.840473 4.355176,1.757352 2.215792,0.916879 4.125957,0.916879 0.687659,0 1.451725,-0.611252 0.840473,-0.68766 1.222506,-3.056264 h 6.800187 q -0.45844,6.876594 -2.979857,9.856451 -2.521418,2.903451 -6.188935,2.903451 -2.215791,0 -4.50799,-0.916879 -2.215791,-0.91688 -4.355176,-1.757352 -2.062978,-0.916879 -3.973143,-0.916879 -0.687659,0 -1.451725,0.611252 -0.764066,0.611253 -1.222506,3.056264 z" style="fill:#ffffff;fill-opacity:1;stroke:#ffffff;stroke-width:3.0;stroke-opacity:1;filter:url(#backFilter);" id="background_path"/>
<defs><filter inkscape:collect="always" style="color-interpolation-filters:sRGB" id="backFilter" x="-0.26338398" width="1.526768" y="-0.3420333" height="1.6840666">
      <feGaussianBlur inkscape:collect="always" stdDeviation="7.0858655" id="gaussianBlurBack"/>
    </filter></defs>
  <sodipodi:namedview pagecolor="#ffffff" bordercolor="#666666" borderopacity="1" objecttolerance="10" gridtolerance="10" guidetolerance="10" inkscape:pageopacity="0" inkscape:pageshadow="2" inkscape:window-width="2560" inkscape:window-height="1080" id="namedview47" showgrid="false" inkscape:zoom="3.9506912" inkscape:cx="72.194105" inkscape:cy="20.670582" inkscape:window-x="0" inkscape:window-y="0" inkscape:window-maximized="0" inkscape:current-layer="svg45"/>
<svg:path d="m 55.806901,36.476034 q 6.570967,0 10.696924,3.667517 4.125956,3.667517 4.125956,11.843023 V 79.49295 H 56.036121 V 56.418157 q 0,-4.202363 -1.222506,-6.341748 -1.222506,-2.139385 -3.896737,-2.139385 -4.125956,0 -5.577682,3.361891 -1.375318,3.36189 -1.375318,9.703638 V 79.49295 H 29.370217 V 37.2401 h 11.00255 l 1.986572,5.577682 h 0.534846 q 1.986572,-2.979857 5.195649,-4.660803 3.285484,-1.680945 7.717067,-1.680945 z M 34.107426,33.343363 q 0.45844,-7.029407 2.827044,-9.856451 2.445012,-2.903451 6.570968,-2.903451 1.910165,0 4.04955,0.916879 2.215791,0.840473 4.355176,1.757352 2.215792,0.916879 4.125957,0.916879 0.687659,0 1.451725,-0.611252 0.840473,-0.68766 1.222506,-3.056264 h 6.800187 q -0.45844,6.876594 -2.979857,9.856451 -2.521418,2.903451 -6.188935,2.903451 -2.215791,0 -4.50799,-0.916879 -2.215791,-0.91688 -4.355176,-1.757352 -2.062978,-0.916879 -3.973143,-0.916879 -0.687659,0 -1.451725,0.611252 -0.764066,0.611253 -1.222506,3.056264 z" style="fill:#f971d3;fill-opacity:1;stroke:#ffffff;stroke-width:2;stroke-opacity:1;stroke-miterlimit:4;stroke-dasharray:none" id="main_path"/>
</svg>