<svg xmlns:dc="http://purl.org/dc/elements/1.1/" xmlns:cc="http://creativecommons.org/ns#" xmlns:rdf="http://www.w3.org/1999/02/22-rdf-syntax-ns#" xmlns:svg="http://www.w3.org/2000/svg" xmlns="http://www.w3.org/2000/svg" xmlns:sodipodi="http://sodipodi.sourceforge.net/DTD/sodipodi-0.dtd" xmlns:inkscape="http://www.inkscape.org/namespaces/inkscape" viewBox="0 0 100 100" height="100" width="100" version="1.1" id="svg45" inkscape:version="0.92.4 5da689c313, 2019-01-14">
   <svg:path style="fill:#ffffff;fill-opacity:1;stroke:#ffffff;stroke-width:7.0;stroke-opacity:1;filter:url(#backFilter);" sodipodi:nodetypes="ccsscsc" d="m 64.105995,22.926147 c -5.427088,0 -10.952716,2.566966 -14.105995,7.97681 -3.165596,-5.434479 -8.676443,-8.001445 -14.08875,-8.001445 -7.841317,0 -15.473236,5.387672 -15.473236,15.251522 0,11.482368 13.724152,23.228331 29.561986,38.945454 15.840298,-15.717123 29.561986,-27.463086 29.561986,-38.945454 0,-9.881094 -7.624529,-15.226887 -15.455991,-15.226887" id="background_path"/>
    <defs><filter inkscape:collect="always" style="color-interpolation-filters:sRGB" id="backFilter" x="-1" width="40" y="-1" height="40">
      <feGaussianBlur inkscape:collect="always" stdDeviation="7.0858655" id="gaussianBlurBack"/>
    </filter></defs>
  <sodipodi:namedview pagecolor="#ffffff" bordercolor="#666666" borderopacity="1" objecttolerance="10" gridtolerance="10" guidetolerance="10" inkscape:pageopacity="0" inkscape:pageshadow="2" inkscape:window-width="2560" inkscape:window-height="1080" id="namedview47" showgrid="false" inkscape:zoom="3.9506912" inkscape:cx="72.194105" inkscape:cy="20.670582" inkscape:window-x="0" inkscape:window-y="0" inkscape:window-maximized="0" inkscape:current-layer="svg45"/>
<svg:path style="fill:#272646;fill-opacity:1;stroke:#ffffff;stroke-width:5;stroke-opacity:1;stroke-miterlimit:4;stroke-dasharray:none" sodipodi:nodetypes="ccsscsc" d="m 64.105995,22.926147 c -5.427088,0 -10.952716,2.566966 -14.105995,7.97681 -3.165596,-5.434479 -8.676443,-8.001445 -14.08875,-8.001445 -7.841317,0 -15.473236,5.387672 -15.473236,15.251522 0,11.482368 13.724152,23.228331 29.561986,38.945454 15.840298,-15.717123 29.561986,-27.463086 29.561986,-38.945454 0,-9.881094 -7.624529,-15.226887 -15.455991,-15.226887" id="main_path"/>
    <svg:path style="color:#000000;font-style:normal;font-variant:normal;font-weight:normal;font-stretch:normal;font-size:medium;line-height:normal;font-family:sans-serif;font-variant-ligatures:normal;font-variant-position:normal;font-variant-caps:normal;font-variant-numeric:normal;font-variant-alternates:normal;font-variant-east-asian:normal;font-feature-settings:normal;font-variation-settings:normal;text-indent:0;text-align:start;text-decoration:none;text-decoration-line:none;text-decoration-style:solid;text-decoration-color:#000000;letter-spacing:normal;word-spacing:normal;text-transform:none;writing-mode:lr-tb;direction:ltr;text-orientation:mixed;dominant-baseline:auto;baseline-shift:baseline;text-anchor:start;white-space:normal;shape-padding:0;shape-margin:0;inline-size:0;clip-rule:evenodd;display:inline;overflow:visible;visibility:visible;opacity:1;isolation:auto;mix-blend-mode:normal;color-interpolation:sRGB;color-interpolation-filters:linearRGB;solid-color:#000000;solid-opacity:1;vector-effect:none;fill:#9294a8;fill-opacity:1;fill-rule:evenodd;stroke:none;stroke-linecap:butt;stroke-linejoin:miter;stroke-miterlimit:4;stroke-dasharray:none;stroke-dashoffset:0;stroke-opacity:1;color-rendering:auto;image-rendering:auto;shape-rendering:auto;text-rendering:auto;enable-background:accumulate;stop-color:#000000;stop-opacity:1" d="m 35.912109,27.072266 c -2.765945,0 -5.566789,0.83651 -7.724609,2.685546 -2.15782,1.849037 -3.580078,4.736216 -3.580078,8.394532 0,4.580773 2.79133,9.166922 7.125,14.33789 4.33367,5.170968 10.32674,10.958393 17.216797,17.722657 L 50,71.246094 51.050781,70.212891 C 57.941685,63.448562 63.93409,57.66115 68.267578,52.490234 c 4.333488,-5.170915 7.125,-9.756976 7.125,-14.33789 0,-3.668008 -1.415179,-6.553054 -3.570312,-8.394532 -2.155134,-1.841477 -4.952152,-2.662109 -7.716797,-2.662109 -4.004469,0 -8.18637,1.930228 -10.503907,5.90625 L 49.998047,39.181641 46.398438,33 C 44.063776,28.992012 39.895139,27.072266 35.912109,27.072266 Z m 0,3 c 3.034526,0 6.126342,1.407297 7.892579,4.439453 l 6.193359,10.630859 6.197265,-10.628906 c 1.74072,-2.986422 4.858911,-4.417969 7.910157,-4.417969 2.164578,0 4.261463,0.656443 5.767578,1.943359 1.506115,1.286917 2.519531,3.181581 2.519531,6.113282 0,3.298463 -2.258738,7.440181 -6.423828,12.410156 C 62.033124,55.258668 56.418897,60.737338 50,67.033203 43.581818,60.73738 37.96902,55.258746 34.033203,50.5625 29.867886,45.592412 27.607422,41.450363 27.607422,38.152344 c 0,-2.915084 1.018846,-4.817582 2.533203,-6.115235 1.514357,-1.297653 3.616762,-1.964843 5.771484,-1.964843 z" id="main_path2" sodipodi:nodetypes="sssscccsssscccsscccsssscssss"/>
  </svg>