<?xml version="1.0" encoding="UTF-8" standalone="no"?>
<svg
   version="1.1"
   width="16"
   height="16"
   viewBox="0 0 24 24"
   id="svg4"
   sodipodi:docname="gamepad-time.svg"
   inkscape:version="1.1.2 (0a00cf5339, 2022-02-04)"
   xmlns:inkscape="http://www.inkscape.org/namespaces/inkscape"
   xmlns:sodipodi="http://sodipodi.sourceforge.net/DTD/sodipodi-0.dtd"
   xmlns="http://www.w3.org/2000/svg"
   xmlns:svg="http://www.w3.org/2000/svg"
   xmlns:rdf="http://www.w3.org/1999/02/22-rdf-syntax-ns#"
   xmlns:cc="http://creativecommons.org/ns#"
   xmlns:dc="http://purl.org/dc/elements/1.1/">
  <metadata
     id="metadata10">
    <rdf:RDF>
      <cc:Work
         rdf:about="">
        <dc:format>image/svg+xml</dc:format>
        <dc:type
           rdf:resource="http://purl.org/dc/dcmitype/StillImage" />
      </cc:Work>
    </rdf:RDF>
  </metadata>
  <defs
     id="defs8">
    <filter
       id="mask-powermask-path-effect1506_inverse"
       inkscape:label="filtermask-powermask-path-effect1506"
       style="color-interpolation-filters:sRGB"
       height="100"
       width="100"
       x="-50"
       y="-50">
      <feColorMatrix
         id="mask-powermask-path-effect1506_primitive1"
         values="1"
         type="saturate"
         result="fbSourceGraphic" />
      <feColorMatrix
         id="mask-powermask-path-effect1506_primitive2"
         values="-1 0 0 0 1 0 -1 0 0 1 0 0 -1 0 1 0 0 0 1 0 "
         in="fbSourceGraphic" />
    </filter>
    <filter
       id="mask-powermask-path-effect1520_inverse"
       inkscape:label="filtermask-powermask-path-effect1520"
       style="color-interpolation-filters:sRGB"
       height="100"
       width="100"
       x="-50"
       y="-50">
      <feColorMatrix
         id="mask-powermask-path-effect1520_primitive1"
         values="1"
         type="saturate"
         result="fbSourceGraphic" />
      <feColorMatrix
         id="mask-powermask-path-effect1520_primitive2"
         values="-1 0 0 0 1 0 -1 0 0 1 0 0 -1 0 1 0 0 0 1 0 "
         in="fbSourceGraphic" />
    </filter>
  </defs>
  <sodipodi:namedview
     pagecolor="#ffffff"
     bordercolor="#666666"
     borderopacity="1"
     objecttolerance="10"
     gridtolerance="10"
     guidetolerance="10"
     inkscape:pageopacity="0"
     inkscape:pageshadow="2"
     inkscape:window-width="1346"
     inkscape:window-height="728"
     id="namedview6"
     showgrid="false"
     inkscape:zoom="9.8333333"
     inkscape:cx="9.2542373"
     inkscape:cy="20.084746"
     inkscape:window-x="10"
     inkscape:window-y="10"
     inkscape:window-maximized="1"
     inkscape:current-layer="svg4"
     inkscape:pagecheckerboard="0"
     scale-x="1.25" />
  <path
     id="path2"
     style="fill:#e0e0e0;fill-opacity:1"
     d="m 7,6 a 6,6 0 0 0 -6,6 6,6 0 0 0 6,6 c 1.78,0 3.370703,-0.77 4.470703,-2 h 1.058594 c 0.198847,0.222347 0.415432,0.428688 0.644531,0.619141 a 5.6071177,5.6071177 0 0 1 -0.521484,-2.3125 5.6071177,5.6071177 0 0 1 5.607422,-5.6074222 5.6071177,5.6071177 0 0 1 4.691406,2.5390622 A 6,6 0 0 0 17,6 Z M 6,9 h 2 v 2 h 2 v 2 H 8 v 2 H 6 V 13 H 4 v -2 h 2 z m 12.259766,0.5488281 a 4.7575648,4.7575648 0 0 0 -4.757813,4.7578129 c 0,2.61666 2.12688,4.757812 4.757813,4.757812 a 4.7575648,4.7575648 0 0 0 4.757812,-4.757812 4.7575648,4.7575648 0 0 0 -4.757812,-4.7578129 z m 0,0.9531249 a 3.8060518,3.8060518 0 0 1 3.80664,3.804688 3.8060518,3.8060518 0 0 1 -3.80664,3.80664 3.8060518,3.8060518 0 0 1 -3.806641,-3.80664 3.8060518,3.8060518 0 0 1 3.806641,-3.804688 z m -0.476563,1.425781 v 2.855469 l 2.498047,1.498047 0.357422,-0.583984 -2.140625,-1.271485 v -2.498047 z" />
</svg>
