<svg xmlns:dc="http://purl.org/dc/elements/1.1/" xmlns:cc="http://creativecommons.org/ns#" xmlns:rdf="http://www.w3.org/1999/02/22-rdf-syntax-ns#" xmlns:svg="http://www.w3.org/2000/svg" xmlns="http://www.w3.org/2000/svg" xmlns:sodipodi="http://sodipodi.sourceforge.net/DTD/sodipodi-0.dtd" xmlns:inkscape="http://www.inkscape.org/namespaces/inkscape" version="1.1" id="svg815" width="100" height="100" viewBox="0 0 100 100" sodipodi:docname="B.svg" inkscape:version="1.0.2 (e86c870879, 2021-01-15)">
  <metadata id="metadata821">
    <rdf:RDF>
      <cc:Work rdf:about="">
        <dc:format>image/svg+xml</dc:format>
        <dc:type rdf:resource="http://purl.org/dc/dcmitype/StillImage"/>
        <dc:title/>
      </cc:Work>
    </rdf:RDF>
  </metadata>
  <defs id="defs819">
    <inkscape:path-effect effect="offset" id="path-effect912" is_visible="true" lpeversion="1" linejoin_type="extrp_arc1" unit="mm" offset="0.28302779" miter_limit="4" attempt_force_join="true" update_on_knot_move="true"/>
    <inkscape:path-effect effect="offset" id="path-effect875" is_visible="true" lpeversion="1" linejoin_type="miter" unit="mm" offset="-0.4" miter_limit="4" attempt_force_join="true" update_on_knot_move="true"/>
    <inkscape:path-effect effect="offset" id="path-effect872" is_visible="true" lpeversion="1" linejoin_type="extrp_arc1" unit="mm" offset="0.28302779" miter_limit="4" attempt_force_join="true" update_on_knot_move="true"/>
    <inkscape:path-effect effect="offset" id="path-effect890" is_visible="true" lpeversion="1" linejoin_type="extrp_arc1" unit="mm" offset="0" miter_limit="4" attempt_force_join="true" update_on_knot_move="true"/>
    <inkscape:path-effect effect="offset" id="path-effect843" is_visible="true" lpeversion="1" linejoin_type="extrp_arc1" unit="mm" offset="0.28302779" miter_limit="4" attempt_force_join="true" update_on_knot_move="true"/>
    <clipPath clipPathUnits="userSpaceOnUse" id="clipPath4597">
      <path d="m 143.8989,191.06182 -1.05237,2.656 h 2.15486 z m -4.44335,6.04698 h 2.00452 l 0.7684,-1.87089 h 3.14446 l 0.6643,1.87089 h 2.33024 l -3.70889,-8.44623 h -1.51191 z" style="fill:#87d639;fill-opacity:1;fill-rule:evenodd;stroke:#000000;stroke-width:0.26499999;stroke-linecap:butt;stroke-linejoin:miter;stroke-miterlimit:4;stroke-dasharray:none;stroke-opacity:1" id="path4599" inkscape:connector-curvature="0"/>
    </clipPath>
    <clipPath clipPathUnits="userSpaceOnUse" id="clipPath888">
      <text id="text892" y="197.22488" x="140.47195" style="font-style:normal;font-weight:normal;font-size:12.1546px;line-height:1.25;font-family:sans-serif;letter-spacing:0px;word-spacing:0px;fill:#e02828;fill-opacity:1;stroke:#000000;stroke-width:0.303865;stroke-opacity:1" xml:space="preserve"><tspan style="font-style:normal;font-variant:normal;font-weight:bold;font-stretch:condensed;font-family:'Helvetica Neue';-inkscape-font-specification:'Helvetica Neue Bold Condensed';fill:#e02828;fill-opacity:1;stroke:#000000;stroke-width:0.303865;stroke-opacity:1" y="197.22488" x="140.47195" id="tspan890" sodipodi:role="line">B</tspan></text>
    </clipPath>
  <clipPath clipPathUnits="userSpaceOnUse" id="clipPathShadow">
      <path id="main_path" style="font-style:normal;font-variant:normal;font-weight:bold;font-stretch:condensed;font-size:82.4767px;line-height:1.25;font-family:'Helvetica Neue';-inkscape-font-specification:'Helvetica Neue Bold Condensed';letter-spacing:0px;word-spacing:0px;opacity:1;fill:#e02828;fill-opacity:1;stroke:#000000;stroke-width:2.31904;stroke-opacity:1" d="m 23.673049,23.57271 v 52.85458 h 30.42386 c 5.204074,0 9.507454,-0.358471 13.010187,-1.240214 v 0 c 3.502761,-0.798662 6.40503,-1.898653 8.706836,-3.32221 2.301864,-1.442578 3.903071,-3.13606 5.00392,-5.173741 a 12.838314,12.828033 0 0 0 0,-0.01758 15.961774,15.948991 0 0 0 0,-0.01758 c 0.900666,-1.905547 1.401199,-3.979792 1.401199,-6.144428 0,-3.789125 -1.601412,-6.767451 -4.703689,-9.027192 a 15.113138,15.101035 0 0 0 0,-0.01172 17.669383,17.655233 0 0 0 0,-0.01172 c -2.101651,-1.423436 -4.703688,-2.314581 -7.605957,-2.970654 2.401971,-0.764489 4.503534,-1.708509 6.004692,-3.097604 2.401971,-2.192048 3.602839,-4.773896 3.602839,-7.894398 0,-2.616307 -0.600346,-4.816276 -2.001544,-6.72645 a 11.169638,11.160693 0 0 0 0,-0.0098 12.227815,12.218023 0 0 0 0,-0.0078 c -1.301151,-1.795765 -3.202648,-3.253047 -5.504424,-4.31438 -2.301806,-1.047641 -5.00395,-1.78045 -8.106373,-2.216759 -3.102424,-0.434039 -6.405031,-0.650379 -10.007841,-0.650379 z M 40.08592,33.683868 h 8.406605 c 4.203273,0 9.3073,0.521803 11.008613,1.335915 1.401199,0.725608 2.101651,1.917587 2.101651,3.757749 0,1.783913 -0.800559,3.059232 -2.502077,3.810484 -1.801332,0.829623 -7.205649,1.353491 -12.009415,1.353491 h -7.005494 z m 0,20.384422 h 9.607532 c 1.901438,0 5.604384,0.14323 7.205649,0.341792 1.401198,0.262209 2.602184,0.647113 3.702916,1.150371 0.900666,0.429183 1.601118,1.056876 2.201758,1.867156 0.500533,0.700267 0.800559,1.583872 0.800559,2.730423 0,2.42117 -1.000773,3.810243 -3.002347,4.646407 -2.40197,1.019957 -7.605957,1.511693 -11.709182,1.511693 h -8.806914 z"/>
</clipPath></defs>
  <sodipodi:namedview pagecolor="#ffffff" bordercolor="#666666" borderopacity="1" objecttolerance="10" gridtolerance="10" guidetolerance="10" inkscape:pageopacity="0" inkscape:pageshadow="2" inkscape:window-width="1257" inkscape:window-height="1028" id="namedview817" showgrid="false" showguides="true" inkscape:guide-bbox="true" inkscape:zoom="5.8901995" inkscape:cx="45.960608" inkscape:cy="60.535143" inkscape:window-x="3207" inkscape:window-y="36" inkscape:window-maximized="1" inkscape:current-layer="svg815" inkscape:document-rotation="0">
    <sodipodi:guide position="57.383456,68.503623" orientation="0,1" id="guide829" inkscape:locked="false"/>
    <sodipodi:guide position="39.37575,34.453782" orientation="0,1" id="guide831" inkscape:locked="false"/>
    <sodipodi:guide position="62.816209,79.793562" orientation="0,1" id="guide839" inkscape:locked="false"/>
    <sodipodi:guide position="55.68572,20.542598" orientation="0,1" id="guide841" inkscape:locked="false"/>
  </sodipodi:namedview>
  <path id="main_path" style="fill:#e02828;fill-opacity:1;fill-rule:evenodd;stroke:none;stroke-width:5.0;stroke-linecap:butt;stroke-linejoin:miter;stroke-miterlimit:4;stroke-dasharray:none;stroke-opacity:1" d="m 23.673049,23.57271 v 52.85458 h 30.42386 c 5.204074,0 9.507454,-0.358471 13.010187,-1.240214 v 0 c 3.502761,-0.798662 6.40503,-1.898653 8.706836,-3.32221 2.301864,-1.442578 3.903071,-3.13606 5.00392,-5.173741 a 12.838314,12.828033 0 0 0 0,-0.01758 15.961774,15.948991 0 0 0 0,-0.01758 c 0.900666,-1.905547 1.401199,-3.979792 1.401199,-6.144428 0,-3.789125 -1.601412,-6.767451 -4.703689,-9.027192 a 15.113138,15.101035 0 0 0 0,-0.01172 17.669383,17.655233 0 0 0 0,-0.01172 c -2.101651,-1.423436 -4.703688,-2.314581 -7.605957,-2.970654 2.401971,-0.764489 4.503534,-1.708509 6.004692,-3.097604 2.401971,-2.192048 3.602839,-4.773896 3.602839,-7.894398 0,-2.616307 -0.600346,-4.816276 -2.001544,-6.72645 a 11.169638,11.160693 0 0 0 0,-0.0098 12.227815,12.218023 0 0 0 0,-0.0078 c -1.301151,-1.795765 -3.202648,-3.253047 -5.504424,-4.31438 -2.301806,-1.047641 -5.00395,-1.78045 -8.106373,-2.216759 -3.102424,-0.434039 -6.405031,-0.650379 -10.007841,-0.650379 z M 40.08592,33.683868 h 8.406605 c 4.203273,0 9.3073,0.521803 11.008613,1.335915 1.401199,0.725608 2.101651,1.917587 2.101651,3.757749 0,1.783913 -0.800559,3.059232 -2.502077,3.810484 -1.801332,0.829623 -7.205649,1.353491 -12.009415,1.353491 h -7.005494 z m 0,20.384422 h 9.607532 c 1.901438,0 5.604384,0.14323 7.205649,0.341792 1.401198,0.262209 2.602184,0.647113 3.702916,1.150371 0.900666,0.429183 1.601118,1.056876 2.201758,1.867156 0.500533,0.700267 0.800559,1.583872 0.800559,2.730423 0,2.42117 -1.000773,3.810243 -3.002347,4.646407 -2.40197,1.019957 -7.605957,1.511693 -11.709182,1.511693 h -8.806914 z"/>
<svg:path style="fill:#ec7b7b;fill-opacity:1;fill-rule:evenodd;stroke:none;stroke-width:5.0;stroke-linecap:butt;stroke-linejoin:miter;stroke-miterlimit:4;stroke-dasharray:none;stroke-opacity:1" d="M 68.6342,17.490061 A 45.411977,45.411977 0 0 1 23.222223,62.902038 45.411977,45.411977 0 0 1 -22.189755,17.490061 45.411977,45.411977 0 0 1 23.222223,-27.921916 45.411977,45.411977 0 0 1 68.6342,17.490061 Z" id="shadow" inkscape:connector-curvature="0" clip-path="url(#clipPathShadow)"/>
  <svg:path id="outline" style="fill:none;fill-opacity:1;fill-rule:evenodd;stroke:#000000;stroke-width:5.0;stroke-linecap:butt;stroke-linejoin:miter;stroke-miterlimit:4;stroke-dasharray:none;stroke-opacity:1" d="m 23.673049,23.57271 v 52.85458 h 30.42386 c 5.204074,0 9.507454,-0.358471 13.010187,-1.240214 v 0 c 3.502761,-0.798662 6.40503,-1.898653 8.706836,-3.32221 2.301864,-1.442578 3.903071,-3.13606 5.00392,-5.173741 a 12.838314,12.828033 0 0 0 0,-0.01758 15.961774,15.948991 0 0 0 0,-0.01758 c 0.900666,-1.905547 1.401199,-3.979792 1.401199,-6.144428 0,-3.789125 -1.601412,-6.767451 -4.703689,-9.027192 a 15.113138,15.101035 0 0 0 0,-0.01172 17.669383,17.655233 0 0 0 0,-0.01172 c -2.101651,-1.423436 -4.703688,-2.314581 -7.605957,-2.970654 2.401971,-0.764489 4.503534,-1.708509 6.004692,-3.097604 2.401971,-2.192048 3.602839,-4.773896 3.602839,-7.894398 0,-2.616307 -0.600346,-4.816276 -2.001544,-6.72645 a 11.169638,11.160693 0 0 0 0,-0.0098 12.227815,12.218023 0 0 0 0,-0.0078 c -1.301151,-1.795765 -3.202648,-3.253047 -5.504424,-4.31438 -2.301806,-1.047641 -5.00395,-1.78045 -8.106373,-2.216759 -3.102424,-0.434039 -6.405031,-0.650379 -10.007841,-0.650379 z M 40.08592,33.683868 h 8.406605 c 4.203273,0 9.3073,0.521803 11.008613,1.335915 1.401199,0.725608 2.101651,1.917587 2.101651,3.757749 0,1.783913 -0.800559,3.059232 -2.502077,3.810484 -1.801332,0.829623 -7.205649,1.353491 -12.009415,1.353491 h -7.005494 z m 0,20.384422 h 9.607532 c 1.901438,0 5.604384,0.14323 7.205649,0.341792 1.401198,0.262209 2.602184,0.647113 3.702916,1.150371 0.900666,0.429183 1.601118,1.056876 2.201758,1.867156 0.500533,0.700267 0.800559,1.583872 0.800559,2.730423 0,2.42117 -1.000773,3.810243 -3.002347,4.646407 -2.40197,1.019957 -7.605957,1.511693 -11.709182,1.511693 h -8.806914 z"/>
</svg>