<svg xmlns:dc="http://purl.org/dc/elements/1.1/" xmlns:cc="http://creativecommons.org/ns#" xmlns:rdf="http://www.w3.org/1999/02/22-rdf-syntax-ns#" xmlns:svg="http://www.w3.org/2000/svg" xmlns="http://www.w3.org/2000/svg" xmlns:sodipodi="http://sodipodi.sourceforge.net/DTD/sodipodi-0.dtd" xmlns:inkscape="http://www.inkscape.org/namespaces/inkscape" version="1.1" id="svg815" width="100" height="100" viewBox="0 0 100 100" sodipodi:docname="B.svg" inkscape:version="0.92.4 5da689c313, 2019-01-14">
  <metadata id="metadata821">
    <rdf:RDF>
      <cc:Work rdf:about="">
        <dc:format>image/svg+xml</dc:format>
        <dc:type rdf:resource="http://purl.org/dc/dcmitype/StillImage"/>
        <dc:title/>
      </cc:Work>
    </rdf:RDF>
  </metadata>
  <defs id="defs819">
    <clipPath clipPathUnits="userSpaceOnUse" id="clipPath4597">
      <path d="m 143.8989,191.06182 -1.05237,2.656 h 2.15486 z m -4.44335,6.04698 h 2.00452 l 0.7684,-1.87089 h 3.14446 l 0.6643,1.87089 h 2.33024 l -3.70889,-8.44623 h -1.51191 z" style="fill:#87d639;fill-opacity:1;fill-rule:evenodd;stroke:#000000;stroke-width:0.26499999;stroke-linecap:butt;stroke-linejoin:miter;stroke-miterlimit:4;stroke-dasharray:none;stroke-opacity:1" id="path4599" inkscape:connector-curvature="0"/>
    </clipPath>
    <clipPath clipPathUnits="userSpaceOnUse" id="clipPath888">
      <text id="text892" y="197.22488" x="140.47195" style="font-style:normal;font-weight:normal;font-size:12.1545887px;line-height:1.25;font-family:sans-serif;letter-spacing:0px;word-spacing:0px;fill:#e02828;fill-opacity:1;stroke:#000000;stroke-width:0.30386469;stroke-opacity:1" xml:space="preserve"><tspan style="font-style:normal;font-variant:normal;font-weight:bold;font-stretch:condensed;font-family:'Helvetica Neue';-inkscape-font-specification:'Helvetica Neue Bold Condensed';fill:#e02828;fill-opacity:1;stroke:#000000;stroke-width:0.30386469;stroke-opacity:1" y="197.22488" x="140.47195" id="tspan890" sodipodi:role="line">B</tspan></text>
    </clipPath>
  <clipPath clipPathUnits="userSpaceOnUse" id="clipPathShadow">
      <path inkscape:connector-curvature="0" id="main_path" style="font-style:normal;font-variant:normal;font-weight:bold;font-stretch:condensed;font-size:82.47674561px;line-height:1.25;font-family:'Helvetica Neue';-inkscape-font-specification:'Helvetica Neue Bold Condensed';letter-spacing:0px;word-spacing:0px;fill:#e02828;fill-opacity:1;stroke:#000000;stroke-width:2.0619185;stroke-opacity:1" d="m 42.659569,70.701664 h 4.618698 c 2.804209,0 5.113558,-0.577338 6.928047,-1.896966 1.732011,-1.237151 2.639255,-3.5465 2.639255,-7.010523 0,-1.649535 -0.24743,-3.05164 -0.74229,-4.206314 -0.494861,-1.154674 -1.072198,-2.061919 -1.896965,-2.721733 -0.824768,-0.659814 -1.732012,-1.154674 -2.80421,-1.484581 -1.154674,-0.24743 -2.309349,-0.412384 -3.628977,-0.412384 h -5.113558 z m 0,-25.980175 h 3.381547 c 3.29907,0 5.690895,-0.577338 7.175477,-1.732012 1.484581,-1.154674 2.309348,-3.216593 2.309348,-6.020802 0,-2.80421 -0.74229,-4.783652 -2.061918,-5.938326 -1.402105,-1.154675 -3.5465,-1.732012 -6.515663,-1.732012 H 42.659569 Z M 30.782918,20.555802 h 19.876895 c 2.391826,0 4.618698,0.24743 6.680617,0.742291 2.061919,0.49486 3.876407,1.319628 5.360988,2.474302 1.484582,1.154675 2.639256,2.721733 3.464024,4.618698 0.824767,1.979442 1.237151,4.288791 1.237151,7.093 0,3.216593 -0.742291,5.938326 -2.226872,8.247675 -1.484582,2.309349 -3.711454,3.79393 -6.680617,4.618698 v 0.164953 c 3.29907,0.49486 5.855849,1.896965 7.835291,4.206314 1.896965,2.391826 2.886686,5.525942 2.886686,9.484826 0,2.309349 -0.329907,4.536221 -0.907244,6.598139 -0.659814,2.144396 -1.649535,3.958884 -3.134116,5.525942 -1.484582,1.567059 -3.381547,2.80421 -5.690896,3.711454 -2.309349,0.989721 -5.196035,1.402105 -8.660058,1.402105 H 30.782918 Z"/>
    </clipPath></defs>
  <sodipodi:namedview pagecolor="#ffffff" bordercolor="#666666" borderopacity="1" objecttolerance="10" gridtolerance="10" guidetolerance="10" inkscape:pageopacity="0" inkscape:pageshadow="2" inkscape:window-width="1920" inkscape:window-height="1028" id="namedview817" showgrid="false" showguides="true" inkscape:guide-bbox="true" inkscape:zoom="5.8901995" inkscape:cx="-32.22189" inkscape:cy="47.673393" inkscape:window-x="0" inkscape:window-y="24" inkscape:window-maximized="1" inkscape:current-layer="g832">
    <sodipodi:guide position="57.383456,68.503623" orientation="0,1" id="guide829" inkscape:locked="false"/>
    <sodipodi:guide position="39.37575,34.453782" orientation="0,1" id="guide831" inkscape:locked="false"/>
    <sodipodi:guide position="62.816209,79.793562" orientation="0,1" id="guide839" inkscape:locked="false"/>
    <sodipodi:guide position="55.68572,20.542598" orientation="0,1" id="guide841" inkscape:locked="false"/>
  </sodipodi:namedview>
  <g id="g832">
    <path inkscape:connector-curvature="0" id="main_path" style="fill:#e02828;fill-opacity:1;fill-rule:evenodd;stroke:none;stroke-width:3.0;stroke-linecap:butt;stroke-linejoin:miter;stroke-miterlimit:4;stroke-dasharray:none;stroke-opacity:1" d="m 42.659569,70.701664 h 4.618698 c 2.804209,0 5.113558,-0.577338 6.928047,-1.896966 1.732011,-1.237151 2.639255,-3.5465 2.639255,-7.010523 0,-1.649535 -0.24743,-3.05164 -0.74229,-4.206314 -0.494861,-1.154674 -1.072198,-2.061919 -1.896965,-2.721733 -0.824768,-0.659814 -1.732012,-1.154674 -2.80421,-1.484581 -1.154674,-0.24743 -2.309349,-0.412384 -3.628977,-0.412384 h -5.113558 z m 0,-25.980175 h 3.381547 c 3.29907,0 5.690895,-0.577338 7.175477,-1.732012 1.484581,-1.154674 2.309348,-3.216593 2.309348,-6.020802 0,-2.80421 -0.74229,-4.783652 -2.061918,-5.938326 -1.402105,-1.154675 -3.5465,-1.732012 -6.515663,-1.732012 H 42.659569 Z M 30.782918,20.555802 h 19.876895 c 2.391826,0 4.618698,0.24743 6.680617,0.742291 2.061919,0.49486 3.876407,1.319628 5.360988,2.474302 1.484582,1.154675 2.639256,2.721733 3.464024,4.618698 0.824767,1.979442 1.237151,4.288791 1.237151,7.093 0,3.216593 -0.742291,5.938326 -2.226872,8.247675 -1.484582,2.309349 -3.711454,3.79393 -6.680617,4.618698 v 0.164953 c 3.29907,0.49486 5.855849,1.896965 7.835291,4.206314 1.896965,2.391826 2.886686,5.525942 2.886686,9.484826 0,2.309349 -0.329907,4.536221 -0.907244,6.598139 -0.659814,2.144396 -1.649535,3.958884 -3.134116,5.525942 -1.484582,1.567059 -3.381547,2.80421 -5.690896,3.711454 -2.309349,0.989721 -5.196035,1.402105 -8.660058,1.402105 H 30.782918 Z"/>
    </g>
<svg:path style="fill:#ec7b7b;fill-opacity:1;fill-rule:evenodd;stroke:none;stroke-width:3.0;stroke-linecap:butt;stroke-linejoin:miter;stroke-miterlimit:4;stroke-dasharray:none;stroke-opacity:1" d="M 68.6342,17.490061 A 45.411977,45.411977 0 0 1 23.222223,62.902038 45.411977,45.411977 0 0 1 -22.189755,17.490061 45.411977,45.411977 0 0 1 23.222223,-27.921916 45.411977,45.411977 0 0 1 68.6342,17.490061 Z" id="shadow" inkscape:connector-curvature="0" clip-path="url(#clipPathShadow)"/>
  <svg:path inkscape:connector-curvature="0" id="outline" style="fill:none;fill-opacity:1;fill-rule:evenodd;stroke:#E9BA00;stroke-width:4.0;stroke-linecap:butt;stroke-linejoin:miter;stroke-miterlimit:4;stroke-dasharray:none;stroke-opacity:1" d="m 42.659569,70.701664 h 4.618698 c 2.804209,0 5.113558,-0.577338 6.928047,-1.896966 1.732011,-1.237151 2.639255,-3.5465 2.639255,-7.010523 0,-1.649535 -0.24743,-3.05164 -0.74229,-4.206314 -0.494861,-1.154674 -1.072198,-2.061919 -1.896965,-2.721733 -0.824768,-0.659814 -1.732012,-1.154674 -2.80421,-1.484581 -1.154674,-0.24743 -2.309349,-0.412384 -3.628977,-0.412384 h -5.113558 z m 0,-25.980175 h 3.381547 c 3.29907,0 5.690895,-0.577338 7.175477,-1.732012 1.484581,-1.154674 2.309348,-3.216593 2.309348,-6.020802 0,-2.80421 -0.74229,-4.783652 -2.061918,-5.938326 -1.402105,-1.154675 -3.5465,-1.732012 -6.515663,-1.732012 H 42.659569 Z M 30.782918,20.555802 h 19.876895 c 2.391826,0 4.618698,0.24743 6.680617,0.742291 2.061919,0.49486 3.876407,1.319628 5.360988,2.474302 1.484582,1.154675 2.639256,2.721733 3.464024,4.618698 0.824767,1.979442 1.237151,4.288791 1.237151,7.093 0,3.216593 -0.742291,5.938326 -2.226872,8.247675 -1.484582,2.309349 -3.711454,3.79393 -6.680617,4.618698 v 0.164953 c 3.29907,0.49486 5.855849,1.896965 7.835291,4.206314 1.896965,2.391826 2.886686,5.525942 2.886686,9.484826 0,2.309349 -0.329907,4.536221 -0.907244,6.598139 -0.659814,2.144396 -1.649535,3.958884 -3.134116,5.525942 -1.484582,1.567059 -3.381547,2.80421 -5.690896,3.711454 -2.309349,0.989721 -5.196035,1.402105 -8.660058,1.402105 H 30.782918 Z"/>
    </svg>