<svg xmlns:dc="http://purl.org/dc/elements/1.1/" xmlns:cc="http://creativecommons.org/ns#" xmlns:rdf="http://www.w3.org/1999/02/22-rdf-syntax-ns#" xmlns:svg="http://www.w3.org/2000/svg" xmlns="http://www.w3.org/2000/svg" xmlns:sodipodi="http://sodipodi.sourceforge.net/DTD/sodipodi-0.dtd" xmlns:inkscape="http://www.inkscape.org/namespaces/inkscape" viewBox="0 0 100 100" height="100" width="100" version="1.1" id="svg45" inkscape:version="0.92.4 5da689c313, 2019-01-14">
   <svg:path sodipodi:nodetypes="cssscsscccscscscc" d="m 30.782918,20.555802 h 19.876895 c 2.391826,0 4.618698,0.24743 6.680617,0.742291 2.061919,0.49486 3.876407,1.319628 5.360988,2.474302 1.484582,1.154675 2.639256,2.721733 3.464024,4.618698 0.824767,1.979442 1.237151,4.288791 1.237151,7.093 0,3.216593 -0.742291,5.938326 -2.226872,8.247675 -1.484582,2.309349 -3.711454,3.79393 -6.680617,4.618698 v 0.164953 c 3.29907,0.49486 5.855849,1.896965 7.835291,4.206314 1.896965,2.391826 2.886686,5.525942 2.886686,9.484826 0,2.309349 -0.329907,4.536221 -0.907244,6.598139 -0.659814,2.144396 -1.649535,3.958884 -3.134116,5.525942 -1.484582,1.567059 -3.381547,2.80421 -5.690896,3.711454 -2.309349,0.989721 -5.196035,1.402105 -8.660058,1.402105 H 30.782918 Z" style="fill:#E9BA00;fill-opacity:1;stroke:#E9BA00;stroke-width:6.0;stroke-opacity:1;filter:url(#backFilter);" id="background_path" inkscape:connector-curvature="0"/>
  <defs><filter inkscape:collect="always" style="color-interpolation-filters:sRGB" id="backFilter" x="-1" width="40" y="-1" height="40">
      <feGaussianBlur inkscape:collect="always" stdDeviation="7.0858655" id="gaussianBlurBack"/>
    </filter><linearGradient inkscape:collect="always" id="bgLinearGradient">
      <stop style="stop-color:#f94723;stop-opacity:1" offset="0" id="stop844"/>
      <stop style="stop-color:#b10000;stop-opacity:1" offset="1" id="stop846"/>
    </linearGradient><radialGradient xmlns:xlink="http://www.w3.org/1999/xlink" inkscape:collect="always" xlink:href="#bgLinearGradient" id="bgRadialGradient" cx="49.999999" cy="50.000001" fx="49.999999" fy="50.000001" r="40.248082" gradientTransform="matrix(1,0,0,1.5050907,0,-25.254534)" gradientUnits="userSpaceOnUse"/></defs>
  <sodipodi:namedview pagecolor="#ffffff" bordercolor="#666666" borderopacity="1" objecttolerance="10" gridtolerance="10" guidetolerance="10" inkscape:pageopacity="0" inkscape:pageshadow="2" inkscape:window-width="2560" inkscape:window-height="1080" id="namedview47" showgrid="false" inkscape:zoom="3.9506912" inkscape:cx="72.194105" inkscape:cy="20.670582" inkscape:window-x="0" inkscape:window-y="0" inkscape:window-maximized="0" inkscape:current-layer="svg45"/>
<svg:path sodipodi:nodetypes="cssscsscccscscscc" d="m 30.782918,20.555802 h 19.876895 c 2.391826,0 4.618698,0.24743 6.680617,0.742291 2.061919,0.49486 3.876407,1.319628 5.360988,2.474302 1.484582,1.154675 2.639256,2.721733 3.464024,4.618698 0.824767,1.979442 1.237151,4.288791 1.237151,7.093 0,3.216593 -0.742291,5.938326 -2.226872,8.247675 -1.484582,2.309349 -3.711454,3.79393 -6.680617,4.618698 v 0.164953 c 3.29907,0.49486 5.855849,1.896965 7.835291,4.206314 1.896965,2.391826 2.886686,5.525942 2.886686,9.484826 0,2.309349 -0.329907,4.536221 -0.907244,6.598139 -0.659814,2.144396 -1.649535,3.958884 -3.134116,5.525942 -1.484582,1.567059 -3.381547,2.80421 -5.690896,3.711454 -2.309349,0.989721 -5.196035,1.402105 -8.660058,1.402105 H 30.782918 Z" style="fill:url(#bgRadialGradient);;fill-opacity:1;stroke:#E9BA00;stroke-width:4;stroke-opacity:1;stroke-miterlimit:4;stroke-dasharray:none" id="main_path" inkscape:connector-curvature="0"/>
  </svg>