<svg xmlns:dc="http://purl.org/dc/elements/1.1/" xmlns:cc="http://creativecommons.org/ns#" xmlns:rdf="http://www.w3.org/1999/02/22-rdf-syntax-ns#" xmlns:svg="http://www.w3.org/2000/svg" xmlns="http://www.w3.org/2000/svg" xmlns:sodipodi="http://sodipodi.sourceforge.net/DTD/sodipodi-0.dtd" xmlns:inkscape="http://www.inkscape.org/namespaces/inkscape" viewBox="0 0 100 100" height="100" width="100" version="1.1" id="svg45" inkscape:version="0.92.4 5da689c313, 2019-01-14">
   <svg:path inkscape:connector-curvature="0" id="main_path" style="fill:#ffffff;fill-opacity:1;stroke:#ffffff;stroke-width:7.0;stroke-opacity:1;filter:url(#backFilter);" d="m 42.659569,70.701664 h 4.618698 c 2.804209,0 5.113558,-0.577338 6.928047,-1.896966 1.732011,-1.237151 2.639255,-3.5465 2.639255,-7.010523 0,-1.649535 -0.24743,-3.05164 -0.74229,-4.206314 -0.494861,-1.154674 -1.072198,-2.061919 -1.896965,-2.721733 -0.824768,-0.659814 -1.732012,-1.154674 -2.80421,-1.484581 -1.154674,-0.24743 -2.309349,-0.412384 -3.628977,-0.412384 h -5.113558 z m 0,-25.980175 h 3.381547 c 3.29907,0 5.690895,-0.577338 7.175477,-1.732012 1.484581,-1.154674 2.309348,-3.216593 2.309348,-6.020802 0,-2.80421 -0.74229,-4.783652 -2.061918,-5.938326 -1.402105,-1.154675 -3.5465,-1.732012 -6.515663,-1.732012 H 42.659569 Z M 30.782918,20.555802 h 19.876895 c 2.391826,0 4.618698,0.24743 6.680617,0.742291 2.061919,0.49486 3.876407,1.319628 5.360988,2.474302 1.484582,1.154675 2.639256,2.721733 3.464024,4.618698 0.824767,1.979442 1.237151,4.288791 1.237151,7.093 0,3.216593 -0.742291,5.938326 -2.226872,8.247675 -1.484582,2.309349 -3.711454,3.79393 -6.680617,4.618698 v 0.164953 c 3.29907,0.49486 5.855849,1.896965 7.835291,4.206314 1.896965,2.391826 2.886686,5.525942 2.886686,9.484826 0,2.309349 -0.329907,4.536221 -0.907244,6.598139 -0.659814,2.144396 -1.649535,3.958884 -3.134116,5.525942 -1.484582,1.567059 -3.381547,2.80421 -5.690896,3.711454 -2.309349,0.989721 -5.196035,1.402105 -8.660058,1.402105 H 30.782918 Z"/>
    <defs><filter inkscape:collect="always" style="color-interpolation-filters:sRGB" id="backFilter" x="-0.15193133" width="1.3038627" y="-0.099159664" height="1.1983193">
      <feGaussianBlur inkscape:collect="always" stdDeviation="2.433064" id="gaussianBlurBack"/>
    </filter></defs>
  <sodipodi:namedview pagecolor="#ffffff" bordercolor="#666666" borderopacity="1" objecttolerance="10" gridtolerance="10" guidetolerance="10" inkscape:pageopacity="0" inkscape:pageshadow="2" inkscape:window-width="2560" inkscape:window-height="1080" id="namedview47" showgrid="false" inkscape:zoom="3.9506912" inkscape:cx="72.194105" inkscape:cy="20.670582" inkscape:window-x="0" inkscape:window-y="0" inkscape:window-maximized="0" inkscape:current-layer="svg45"/>
<svg:path inkscape:connector-curvature="0" id="main_path" style="fill:#272646;fill-opacity:1;stroke:#e02828;stroke-width:3;stroke-opacity:1;stroke-miterlimit:4;stroke-dasharray:none" d="m 42.659569,70.701664 h 4.618698 c 2.804209,0 5.113558,-0.577338 6.928047,-1.896966 1.732011,-1.237151 2.639255,-3.5465 2.639255,-7.010523 0,-1.649535 -0.24743,-3.05164 -0.74229,-4.206314 -0.494861,-1.154674 -1.072198,-2.061919 -1.896965,-2.721733 -0.824768,-0.659814 -1.732012,-1.154674 -2.80421,-1.484581 -1.154674,-0.24743 -2.309349,-0.412384 -3.628977,-0.412384 h -5.113558 z m 0,-25.980175 h 3.381547 c 3.29907,0 5.690895,-0.577338 7.175477,-1.732012 1.484581,-1.154674 2.309348,-3.216593 2.309348,-6.020802 0,-2.80421 -0.74229,-4.783652 -2.061918,-5.938326 -1.402105,-1.154675 -3.5465,-1.732012 -6.515663,-1.732012 H 42.659569 Z M 30.782918,20.555802 h 19.876895 c 2.391826,0 4.618698,0.24743 6.680617,0.742291 2.061919,0.49486 3.876407,1.319628 5.360988,2.474302 1.484582,1.154675 2.639256,2.721733 3.464024,4.618698 0.824767,1.979442 1.237151,4.288791 1.237151,7.093 0,3.216593 -0.742291,5.938326 -2.226872,8.247675 -1.484582,2.309349 -3.711454,3.79393 -6.680617,4.618698 v 0.164953 c 3.29907,0.49486 5.855849,1.896965 7.835291,4.206314 1.896965,2.391826 2.886686,5.525942 2.886686,9.484826 0,2.309349 -0.329907,4.536221 -0.907244,6.598139 -0.659814,2.144396 -1.649535,3.958884 -3.134116,5.525942 -1.484582,1.567059 -3.381547,2.80421 -5.690896,3.711454 -2.309349,0.989721 -5.196035,1.402105 -8.660058,1.402105 H 30.782918 Z"/>
    </svg>