<svg xmlns:dc="http://purl.org/dc/elements/1.1/" xmlns:cc="http://creativecommons.org/ns#" xmlns:rdf="http://www.w3.org/1999/02/22-rdf-syntax-ns#" xmlns:svg="http://www.w3.org/2000/svg" xmlns="http://www.w3.org/2000/svg" xmlns:sodipodi="http://sodipodi.sourceforge.net/DTD/sodipodi-0.dtd" xmlns:inkscape="http://www.inkscape.org/namespaces/inkscape" viewBox="0 0 100 100" height="100" width="100" version="1.1" id="svg45" inkscape:version="0.92.4 5da689c313, 2019-01-14">
   <svg:path d="M59.8154178055 19.390075C59.8154178055 19.390075 78.915691843 19.390075 78.915691843 19.390075C78.915691843 19.390075 60.3459807789 49.089667 60.3459807789 49.089667C60.3459807789 49.089667 79.7115363032 80.609924 79.7115363032 80.609924C79.7115363032 80.609924 60.6112622656 80.609924 60.6112622656 80.609924C60.6112622656 80.609924 49.9999993 60.582613 49.9999993 60.582613C49.9999993 60.582613 39.3887351687 80.609924 39.3887351687 80.609924C39.3887351687 80.609924 20.2884611312 80.609924 20.2884611312 80.609924C20.2884611312 80.609924 39.6540166554 49.089667 39.6540166554 49.089667C39.6540166554 49.089667 21.0843055913 19.390075 21.0843055913 19.390075C21.0843055913 19.390075 40.1845796289 19.390075 40.1845796289 19.390075C40.1845796289 19.390075 49.9999993 37.824305 49.9999993 37.824305C49.9999993 37.824305 59.8154178055 19.390075 59.8154178055 19.390075" style="fill:#ffffff;fill-opacity:1;stroke:#ffffff;stroke-width:3.0;stroke-opacity:1;filter:url(#backFilter);" id="main_path"/>
  <defs><filter inkscape:collect="always" style="color-interpolation-filters:sRGB" id="backFilter" x="-0.15193133" width="1.3038627" y="-0.099159664" height="1.1983193">
      <feGaussianBlur inkscape:collect="always" stdDeviation="2.433064" id="gaussianBlurBack"/>
    </filter></defs>
  <sodipodi:namedview pagecolor="#ffffff" bordercolor="#666666" borderopacity="1" objecttolerance="10" gridtolerance="10" guidetolerance="10" inkscape:pageopacity="0" inkscape:pageshadow="2" inkscape:window-width="2560" inkscape:window-height="1080" id="namedview47" showgrid="false" inkscape:zoom="3.9506912" inkscape:cx="72.194105" inkscape:cy="20.670582" inkscape:window-x="0" inkscape:window-y="0" inkscape:window-maximized="0" inkscape:current-layer="svg45"/>
<svg:path d="M59.8154178055 19.390075C59.8154178055 19.390075 78.915691843 19.390075 78.915691843 19.390075C78.915691843 19.390075 60.3459807789 49.089667 60.3459807789 49.089667C60.3459807789 49.089667 79.7115363032 80.609924 79.7115363032 80.609924C79.7115363032 80.609924 60.6112622656 80.609924 60.6112622656 80.609924C60.6112622656 80.609924 49.9999993 60.582613 49.9999993 60.582613C49.9999993 60.582613 39.3887351687 80.609924 39.3887351687 80.609924C39.3887351687 80.609924 20.2884611312 80.609924 20.2884611312 80.609924C20.2884611312 80.609924 39.6540166554 49.089667 39.6540166554 49.089667C39.6540166554 49.089667 21.0843055913 19.390075 21.0843055913 19.390075C21.0843055913 19.390075 40.1845796289 19.390075 40.1845796289 19.390075C40.1845796289 19.390075 49.9999993 37.824305 49.9999993 37.824305C49.9999993 37.824305 59.8154178055 19.390075 59.8154178055 19.390075" style="fill:#272646;fill-opacity:1;stroke:#4296f3;stroke-width:3;stroke-opacity:1;stroke-miterlimit:4;stroke-dasharray:none" id="main_path"/>
  </svg>