<svg xmlns:dc="http://purl.org/dc/elements/1.1/" xmlns:cc="http://creativecommons.org/ns#" xmlns:rdf="http://www.w3.org/1999/02/22-rdf-syntax-ns#" xmlns:svg="http://www.w3.org/2000/svg" xmlns="http://www.w3.org/2000/svg" xmlns:sodipodi="http://sodipodi.sourceforge.net/DTD/sodipodi-0.dtd" xmlns:inkscape="http://www.inkscape.org/namespaces/inkscape" version="1.1" id="svg996" width="100" height="100" viewBox="0 0 100 100" sodipodi:docname="X.svg" inkscape:version="0.92.4 5da689c313, 2019-01-14" inkscape:export-filename="/home/eirexe/Project Heartbeat/Project Heartbeat/graphics/notes/xbox/X.png" inkscape:export-xdpi="61" inkscape:export-ydpi="61">
  <metadata id="metadata1002">
    <rdf:RDF>
      <cc:Work rdf:about="">
        <dc:format>image/svg+xml</dc:format>
        <dc:type rdf:resource="http://purl.org/dc/dcmitype/StillImage"/>
        <dc:title/>
      </cc:Work>
    </rdf:RDF>
  </metadata>
  <defs id="defs1000">
    <clipPath clipPathUnits="userSpaceOnUse" id="clipPath1632">
      <text id="text1636" y="80.609924" x="23.714153" style="font-style:normal;font-variant:normal;font-weight:normal;font-stretch:normal;font-size:113.79154205px;line-height:1.25;font-family:Helvetica;-inkscape-font-specification:Helvetica;letter-spacing:0px;word-spacing:0px;fill:#4296f3;fill-opacity:1;stroke:#000000;stroke-width:2.84478879;stroke-opacity:1" xml:space="preserve"><tspan style="font-style:normal;font-variant:normal;font-weight:bold;font-stretch:condensed;font-family:'Helvetica Neue';-inkscape-font-specification:'Helvetica Neue Bold Condensed';fill:#4296f3;fill-opacity:1;stroke:#000000;stroke-width:2.84478879;stroke-opacity:1" y="80.609924" x="23.714153" id="tspan1634" sodipodi:role="line">x</tspan></text>
    </clipPath>
    <clipPath clipPathUnits="userSpaceOnUse" id="clipPath1650">
      <text id="text1654" y="197.39667" x="140.03796" style="font-style:normal;font-variant:normal;font-weight:normal;font-stretch:normal;font-size:16.76944542px;line-height:1.25;font-family:Helvetica;-inkscape-font-specification:Helvetica;letter-spacing:0px;word-spacing:0px;fill:#4296f3;fill-opacity:1;stroke:#000000;stroke-width:0.41923618;stroke-opacity:1" xml:space="preserve"><tspan style="font-style:normal;font-variant:normal;font-weight:bold;font-stretch:condensed;font-family:'Helvetica Neue';-inkscape-font-specification:'Helvetica Neue Bold Condensed';fill:#4296f3;fill-opacity:1;stroke:#000000;stroke-width:0.41923618;stroke-opacity:1" y="197.39667" x="140.03796" id="tspan1652" sodipodi:role="line">x</tspan></text>
    </clipPath>
  <clipPath clipPathUnits="userSpaceOnUse" id="clipPathShadow">
      <path d="M59.8154178055 19.390075C59.8154178055 19.390075 78.915691843 19.390075 78.915691843 19.390075C78.915691843 19.390075 60.3459807789 49.089667 60.3459807789 49.089667C60.3459807789 49.089667 79.7115363032 80.609924 79.7115363032 80.609924C79.7115363032 80.609924 60.6112622656 80.609924 60.6112622656 80.609924C60.6112622656 80.609924 49.9999993 60.582613 49.9999993 60.582613C49.9999993 60.582613 39.3887351687 80.609924 39.3887351687 80.609924C39.3887351687 80.609924 20.2884611312 80.609924 20.2884611312 80.609924C20.2884611312 80.609924 39.6540166554 49.089667 39.6540166554 49.089667C39.6540166554 49.089667 21.0843055913 19.390075 21.0843055913 19.390075C21.0843055913 19.390075 40.1845796289 19.390075 40.1845796289 19.390075C40.1845796289 19.390075 49.9999993 37.824305 49.9999993 37.824305C49.9999993 37.824305 59.8154178055 19.390075 59.8154178055 19.390075" style="stroke-width:3.0713802716;font-size:113.79154205px;font-family:'Helvetica Neue';stroke-opacity:1;fill-opacity:1;letter-spacing:0px;-inkscape-font-specification:'Helvetica Neue Bold Condensed';font-style:normal;word-spacing:0px;stroke:#000000;font-stretch:condensed;font-variant:normal;font-weight:bold;line-height:1.25;fill:#4296f3" id="main_path"/>
  </clipPath></defs>
  <sodipodi:namedview pagecolor="#ffffff" bordercolor="#666666" borderopacity="1" objecttolerance="10" gridtolerance="10" guidetolerance="10" inkscape:pageopacity="0" inkscape:pageshadow="2" inkscape:window-width="2560" inkscape:window-height="1080" id="namedview998" showgrid="false" showguides="false" inkscape:guide-bbox="true" inkscape:zoom="4.72" inkscape:cx="17.38486" inkscape:cy="49.336525" inkscape:window-x="0" inkscape:window-y="0" inkscape:window-maximized="0" inkscape:current-layer="svg996">
    <sodipodi:guide inkscape:locked="false" id="guide1622" orientation="0,1" position="48.239064,19.475399"/>
    <sodipodi:guide inkscape:locked="false" id="guide1624" orientation="0,1" position="61.422411,80.598188"/>
  </sodipodi:namedview>
  <g id="g2337">
    <path d="M59.8154178055 19.390075C59.8154178055 19.390075 78.915691843 19.390075 78.915691843 19.390075C78.915691843 19.390075 60.3459807789 49.089667 60.3459807789 49.089667C60.3459807789 49.089667 79.7115363032 80.609924 79.7115363032 80.609924C79.7115363032 80.609924 60.6112622656 80.609924 60.6112622656 80.609924C60.6112622656 80.609924 49.9999993 60.582613 49.9999993 60.582613C49.9999993 60.582613 39.3887351687 80.609924 39.3887351687 80.609924C39.3887351687 80.609924 20.2884611312 80.609924 20.2884611312 80.609924C20.2884611312 80.609924 39.6540166554 49.089667 39.6540166554 49.089667C39.6540166554 49.089667 21.0843055913 19.390075 21.0843055913 19.390075C21.0843055913 19.390075 40.1845796289 19.390075 40.1845796289 19.390075C40.1845796289 19.390075 49.9999993 37.824305 49.9999993 37.824305C49.9999993 37.824305 59.8154178055 19.390075 59.8154178055 19.390075" style="fill:#4296f3;fill-opacity:1;fill-rule:evenodd;stroke:none;stroke-width:3.0;stroke-linecap:butt;stroke-linejoin:miter;stroke-miterlimit:4;stroke-dasharray:none;stroke-opacity:1" id="main_path"/>
  <path id="shadow" d="M67.333614 5.084746C67.333614 22.6617810908 60.3511639974 39.5189065856 47.9223232915 51.9477472915C35.4934825856 64.3765879974 18.6363570908 71.359038 1.059322 71.359038C-35.5429587774 71.359038 -65.21497 41.6870267774 -65.21497 5.084746C-65.21497 -12.4922890908 -58.2325199974 -29.3494145856 -45.8036792915 -41.7782552915C-33.3748385856 -54.2070959974 -16.5177130908 -61.189546 1.059322 -61.189546C37.6616027774 -61.189546 67.333614 -31.5175347774 67.333614 5.084746C67.333614 5.084746 67.333614 5.0847459 67.333614 5.0847459" style="fill:#a3cbf8;fill-opacity:1;fill-rule:evenodd;stroke:none;stroke-width:3.0;stroke-linecap:butt;stroke-linejoin:miter;stroke-miterlimit:4;stroke-dasharray:none;stroke-opacity:1" clip-path="url(#clipPathShadow)"/>
</g>
  <svg:path d="M59.8154178055 19.390075C59.8154178055 19.390075 78.915691843 19.390075 78.915691843 19.390075C78.915691843 19.390075 60.3459807789 49.089667 60.3459807789 49.089667C60.3459807789 49.089667 79.7115363032 80.609924 79.7115363032 80.609924C79.7115363032 80.609924 60.6112622656 80.609924 60.6112622656 80.609924C60.6112622656 80.609924 49.9999993 60.582613 49.9999993 60.582613C49.9999993 60.582613 39.3887351687 80.609924 39.3887351687 80.609924C39.3887351687 80.609924 20.2884611312 80.609924 20.2884611312 80.609924C20.2884611312 80.609924 39.6540166554 49.089667 39.6540166554 49.089667C39.6540166554 49.089667 21.0843055913 19.390075 21.0843055913 19.390075C21.0843055913 19.390075 40.1845796289 19.390075 40.1845796289 19.390075C40.1845796289 19.390075 49.9999993 37.824305 49.9999993 37.824305C49.9999993 37.824305 59.8154178055 19.390075 59.8154178055 19.390075" style="fill:none;fill-opacity:1;fill-rule:evenodd;stroke:#E9BA00;stroke-width:4.0;stroke-linecap:butt;stroke-linejoin:miter;stroke-miterlimit:4;stroke-dasharray:none;stroke-opacity:1" id="outline"/>
  </svg>