<?xml version="1.0" encoding="UTF-8" standalone="no"?>
<!-- Created with Inkscape (http://www.inkscape.org/) -->

<svg
   width="512"
   height="512"
   viewBox="0 0 512 512"
   version="1.1"
   id="svg5"
   xml:space="preserve"
   inkscape:version="1.2.2 (b0a8486541, 2022-12-01)"
   sodipodi:docname="arc-clockwise.svg"
   xmlns:inkscape="http://www.inkscape.org/namespaces/inkscape"
   xmlns:sodipodi="http://sodipodi.sourceforge.net/DTD/sodipodi-0.dtd"
   xmlns="http://www.w3.org/2000/svg"
   xmlns:svg="http://www.w3.org/2000/svg"
   xmlns:rdf="http://www.w3.org/1999/02/22-rdf-syntax-ns#"
   xmlns:cc="http://creativecommons.org/ns#"
   xmlns:dc="http://purl.org/dc/elements/1.1/"><title
     id="title5612">CircleOutsideClockwise</title><sodipodi:namedview
     id="namedview7"
     pagecolor="#505050"
     bordercolor="#eeeeee"
     borderopacity="1"
     inkscape:showpageshadow="0"
     inkscape:pageopacity="0"
     inkscape:pagecheckerboard="false"
     inkscape:deskcolor="#505050"
     inkscape:document-units="px"
     showgrid="false"
     inkscape:zoom="1.475"
     inkscape:cx="165.76271"
     inkscape:cy="187.79661"
     inkscape:window-width="1900"
     inkscape:window-height="1040"
     inkscape:window-x="10"
     inkscape:window-y="10"
     inkscape:window-maximized="1"
     inkscape:current-layer="layer1" /><defs
     id="defs2" /><g
     inkscape:label="Ebene 1"
     inkscape:groupmode="layer"
     id="layer1"><path
       style="fill:#ffffff"
       d="m 461.78448,179.81115 c 1.2912,0.94415 2.3052,5.10454 4.03127,16.54015 1.26839,8.40329 2.81354,15.78609 3.43368,16.40622 0.62013,0.62014 7.97298,2.12562 16.33966,3.34552 11.78684,1.71858 15.50941,2.62454 16.53234,4.02347 1.8087,2.47355 1.65497,4.83071 -0.42982,6.59001 -0.9625,0.81224 -14.8786,5.41596 -30.92468,10.23049 -36.6957,11.01033 -36.61472,11.02813 -31.38036,-6.8973 9.21916,-31.57165 15.10661,-49.91636 16.25333,-50.64371 1.87984,-1.19237 4.16599,-1.04163 6.14458,0.40515 z m -406.977735,0.0163 c 1.12953,0.82593 4.88665,11.69882 10.62566,30.75 7.71096,25.59729 8.7076,29.73524 7.58025,31.47228 -0.71947,1.10857 -2.58457,2.09947 -4.18452,2.22317 -1.58759,0.12274 -15.66365,-3.70226 -31.28014,-8.5 -24.16586,-7.4243 -28.5136604,-9.05094 -29.1997504,-10.92444 -0.56197,-1.53455 -0.29131,-2.82595 0.89362,-4.26373 1.3890404,-1.68545 4.3503104,-2.44847 16.1997504,-4.17417 9.71391,-1.41468 15.05393,-2.64793 16.1782,-3.73627 1.17304,-1.13555 2.30661,-5.97082 3.76588,-16.06337 2.465,-17.04838 4.38383,-20.46677 9.42105,-16.78347 z m 221.634865,39.85663 c 41.88775,4.28053 80.2537,20.72261 113.78591,48.76401 5.65724,4.73089 10.60724,8.70541 11,8.83225 0.39275,0.12685 3.62724,-6.5634 7.18776,-14.86721 6.16653,-14.38152 8.0499,-17.23985 10.04493,-15.24482 1.35289,1.35289 11.22739,78.53541 10.1814,79.5814 -1.04598,1.04599 -78.22851,-8.82851 -79.5814,-10.1814 -1.96569,-1.96569 0.75862,-3.8335 13.81446,-9.47134 7.51759,-3.24628 13.87628,-6.23876 14.1304,-6.64995 0.76408,-1.23631 -12.78944,-12.76142 -23.28771,-19.80249 -19.23815,-12.9028 -40.56067,-21.8088 -64.21739,-26.82233 -11.37192,-2.41003 -14.58956,-2.66147 -34.05836,-2.66147 -19.4688,0 -22.68644,0.25144 -34.05836,2.66147 -16.08679,3.40925 -30.61782,8.42359 -44.32606,15.29595 -12.62119,6.32739 -24.61558,14.03764 -24.61558,15.82341 0,4.15134 -6.28777,47.26679 -6.99878,47.99093 -1.93936,1.97516 -3.82491,-0.78035 -9.45396,-13.81584 -3.24628,-7.51759 -6.64995,-14.1304 -6.64995,-14.1304 L 106.17224,280.7638 c 0,0 -6.563395,-3.62724 -14.867205,-7.18776 -14.37798,-6.16501 -17.24025,-8.05041 -15.2462,-10.04283 0.48553,-0.48513 14.62043,-2.68545 31.410875,-4.88959 l 30.52811,-4.00754 9.47189,-5.72098 c 38.79379,-23.43129 84.45493,-33.78022 128.9719,-29.23102 z"
       id="path11099"
       sodipodi:nodetypes="ssssssssssssssssssssssssssssssssssssssccssscss" /></g><metadata
     id="metadata5610"><rdf:RDF><cc:Work
         rdf:about=""><dc:title>CircleOutsideClockwise</dc:title><dc:creator><cc:Agent><dc:title>NeoRash</dc:title></cc:Agent></dc:creator><dc:rights><cc:Agent><dc:title>Creative Commons CC0</dc:title></cc:Agent></dc:rights><cc:license
           rdf:resource="http://creativecommons.org/publicdomain/zero/1.0/" /></cc:Work><cc:License
         rdf:about="http://creativecommons.org/publicdomain/zero/1.0/"><cc:permits
           rdf:resource="http://creativecommons.org/ns#Reproduction" /><cc:permits
           rdf:resource="http://creativecommons.org/ns#Distribution" /><cc:permits
           rdf:resource="http://creativecommons.org/ns#DerivativeWorks" /></cc:License></rdf:RDF></metadata></svg>
