<?xml version="1.0" encoding="UTF-8" standalone="no"?>
<!-- Created with Inkscape (http://www.inkscape.org/) -->

<svg
   width="240"
   height="240"
   viewBox="0 0 63.499999 63.500002"
   version="1.1"
   id="svg5"
   inkscape:version="1.2.2 (b0a8486541, 2022-12-01)"
   sodipodi:docname="arrange-line.svg"
   inkscape:export-filename="/home/lino/prj/Project-Heartbeat/graphics/icons/arrange-line.png"
   inkscape:export-xdpi="204.8"
   inkscape:export-ydpi="204.8"
   xmlns:inkscape="http://www.inkscape.org/namespaces/inkscape"
   xmlns:sodipodi="http://sodipodi.sourceforge.net/DTD/sodipodi-0.dtd"
   xmlns="http://www.w3.org/2000/svg"
   xmlns:svg="http://www.w3.org/2000/svg">
  <sodipodi:namedview
     id="namedview7"
     pagecolor="#505050"
     bordercolor="#eeeeee"
     borderopacity="1"
     inkscape:pageshadow="0"
     inkscape:pageopacity="0"
     inkscape:pagecheckerboard="true"
     inkscape:document-units="mm"
     showgrid="false"
     units="px"
     width="240px"
     inkscape:zoom="2.1375"
     inkscape:cx="21.520468"
     inkscape:cy="119.76608"
     inkscape:window-width="945"
     inkscape:window-height="1040"
     inkscape:window-x="965"
     inkscape:window-y="10"
     inkscape:window-maximized="1"
     inkscape:current-layer="layer1"
     inkscape:showpageshadow="0"
     inkscape:deskcolor="#505050" />
  <defs
     id="defs2">
    <marker
       style="overflow:visible"
       id="Arrow2Mend"
       refX="0"
       refY="0"
       orient="auto"
       inkscape:stockid="Arrow2Mend"
       inkscape:isstock="true">
      <path
         transform="scale(-0.6)"
         d="M 8.7185878,4.0337352 -2.2072895,0.01601326 8.7185884,-4.0017078 c -1.7454984,2.3720609 -1.7354408,5.6174519 -6e-7,8.035443 z"
         style="fill:context-stroke;fill-rule:evenodd;stroke:context-stroke;stroke-width:0.625;stroke-linejoin:round"
         id="path1036" />
    </marker>
    <marker
       style="overflow:visible;"
       id="Arrow1Send"
       refX="0.0"
       refY="0.0"
       orient="auto"
       inkscape:stockid="Arrow1Send"
       inkscape:isstock="true">
      <path
         transform="scale(0.2) rotate(180) translate(6,0)"
         style="fill-rule:evenodd;fill:context-stroke;stroke:context-stroke;stroke-width:1.0pt;"
         d="M 0.0,0.0 L 5.0,-5.0 L -12.5,0.0 L 5.0,5.0 L 0.0,0.0 z "
         id="path1024" />
    </marker>
    <marker
       id="ExperimentalArrow"
       refX="5.0"
       refY="3.0"
       orient="auto-start-reverse"
       inkscape:stockid="ExperimentalArrow"
       inkscape:isstock="true">
      <path
         style="fill:context-stroke"
         d="m 10,3 -10,3 0,-6 z"
         id="path1262" />
    </marker>
    <marker
       style="overflow:visible"
       id="TriangleOutL"
       refX="0.0"
       refY="0.0"
       orient="auto"
       inkscape:stockid="TriangleOutL"
       inkscape:isstock="true">
      <path
         transform="scale(0.8)"
         style="fill-rule:evenodd;fill:context-stroke;stroke:context-stroke;stroke-width:1.0pt"
         d="M 5.77,0.0 L -2.88,5.0 L -2.88,-5.0 L 5.77,0.0 z "
         id="path1887" />
    </marker>
    <marker
       style="overflow:visible;"
       id="Arrow2Lend"
       refX="0.0"
       refY="0.0"
       orient="auto"
       inkscape:stockid="Arrow2Lend"
       inkscape:isstock="true">
      <path
         transform="scale(1.1) rotate(180) translate(1,0)"
         d="M 8.7185878,4.0337352 L -2.2072895,0.016013256 L 8.7185884,-4.0017078 C 6.9730900,-1.6296469 6.9831476,1.6157441 8.7185878,4.0337352 z "
         style="stroke:context-stroke;fill-rule:evenodd;fill:context-stroke;stroke-width:0.62500000;stroke-linejoin:round;"
         id="path1766" />
    </marker>
  </defs>
  <g
     inkscape:label="Layer 1"
     inkscape:groupmode="layer"
     id="layer1">
    <g
       id="g2623" />
    <g
       id="g2096"
       transform="translate(-0.01072359,0.8355839)">
      <path
         style="color:#000000;fill:#ffffff;-inkscape-stroke:none;opacity:0.992"
         d="m 46.572266,116.4375 -45.4746098,78.75195 90.9394528,0.006 -8.046875,-13.9375 z m -0.002,37.16992 13.279297,23.00195 h -26.5625 z"
         id="path926"
         transform="matrix(0.21552699,0,0,0.21552699,21.724124,2.1435822)" />
      <path
         style="color:#000000;fill:#ffffff;-inkscape-stroke:none;opacity:0.992"
         d="m 46.572266,116.4375 -45.4746098,78.75195 90.9394528,0.006 -8.046875,-13.9375 z m -0.002,37.16992 13.279297,23.00195 h -26.5625 z"
         id="path926-3"
         transform="matrix(0.21552699,0,0,0.21552699,2.1244382,2.1435822)" />
      <path
         style="color:#000000;fill:#ffffff;-inkscape-stroke:none;opacity:0.992"
         d="m 46.572266,116.4375 -45.4746098,78.75195 90.9394528,0.006 -8.046875,-13.9375 z m -0.002,37.16992 13.279297,23.00195 h -26.5625 z"
         id="path926-6"
         transform="matrix(0.21552699,0,0,0.21552699,41.32381,2.1435822)" />
    </g>
    <g
       id="path1743">
      <path
         style="color:#000000;fill:#ffffff;-inkscape-stroke:none"
         d="m 6.1640625,22.355469 v 1.851562 H 54.535156 v -1.851562 z"
         id="path321" />
      <g
         id="g311">
        <g
           id="path313">
          <path
             style="color:#000000;fill:#ffffff;fill-rule:evenodd;stroke-width:0.69453;stroke-linejoin:round;-inkscape-stroke:none"
             d="m 44.846897,18.798098 12.141359,4.464685 -12.14136,4.464685 c 1.939682,-2.635948 1.928505,-6.242382 10e-7,-8.92937 z"
             id="path317" />
          <path
             style="color:#000000;fill:#ffffff;fill-rule:evenodd;stroke-linejoin:round;-inkscape-stroke:none"
             d="M 44.966797,18.472656 A 0.34729973,0.34729973 0 0 0 44.564453,19 c 1.843047,2.56792 1.851639,6.007837 0.002,8.521484 a 0.34729973,0.34729973 0 0 0 0.400391,0.53125 l 12.140625,-4.464843 a 0.34729973,0.34729973 0 0 0 0,-0.650391 z m 0.580078,0.953125 10.4375,3.837891 -10.429688,3.833984 c 1.340668,-2.386391 1.331567,-5.256072 -0.0078,-7.671875 z"
             id="path319" />
        </g>
      </g>
    </g>
  </g>
</svg>
