<?xml version="1.0" encoding="UTF-8" standalone="no"?>
<svg
   height="24px"
   viewBox="0 -960 960 960"
   width="24px"
   fill="#e3e3e3"
   version="1.1"
   id="svg1"
   sodipodi:docname="autoangles.svg"
   inkscape:version="1.4.2 (ebf0e940d0, 2025-05-08)"
   xmlns:inkscape="http://www.inkscape.org/namespaces/inkscape"
   xmlns:sodipodi="http://sodipodi.sourceforge.net/DTD/sodipodi-0.dtd"
   xmlns="http://www.w3.org/2000/svg"
   xmlns:svg="http://www.w3.org/2000/svg">
  <defs
     id="defs1" />
  <sodipodi:namedview
     id="namedview1"
     pagecolor="#000000"
     bordercolor="#000000"
     borderopacity="0.25"
     inkscape:showpageshadow="2"
     inkscape:pageopacity="0.0"
     inkscape:pagecheckerboard="true"
     inkscape:deskcolor="#d1d1d1"
     inkscape:zoom="14.745952"
     inkscape:cx="13.020523"
     inkscape:cy="23.667513"
     inkscape:window-width="1900"
     inkscape:window-height="1040"
     inkscape:window-x="10"
     inkscape:window-y="10"
     inkscape:window-maximized="1"
     inkscape:current-layer="svg1" />
  <path
     id="path2"
     style="fill:#ffffff;fill-rule:evenodd;stroke-width:1.04803;stroke-linejoin:round"
     d="m 519.58524,-322.60895 a 6.7554904,6.3729188 0 0 0 -5.81662,4.21482 c -20.74889,54.5989 -75.63412,90.56678 -136.31149,88.82948 a 6.7554904,6.3729188 0 0 0 -4.13063,11.61066 l 205.60524,136.783074 a 6.7554904,6.3729188 0 0 0 10.45308,-6.759629 L 526.66637,-317.83745 a 6.7554904,6.3729188 0 0 0 -6.15383,-4.7715 6.7554904,6.3729188 0 0 0 -0.9273,0 z m -1.77026,23.45988 53.86705,197.54022 -176.5221,-117.45849 c 53.00674,-4.63627 98.78548,-34.67723 122.65505,-80.08173 z m 0,0 c -23.86957,45.4045 -69.64831,75.44546 -122.65505,80.08173 l 176.5221,117.45849 z m 212.18057,-23.45988 a 6.7554904,6.3729188 0 0 0 -5.81663,4.21482 c -20.74889,54.5989 -75.63411,90.56678 -136.31148,88.82948 a 6.7554904,6.3729188 0 0 0 -4.13065,11.61066 l 205.60526,136.783074 a 6.7554904,6.3729188 0 0 0 10.45307,-6.759629 L 737.07666,-317.83745 a 6.7554904,6.3729188 0 0 0 -6.15381,-4.7715 6.7554904,6.3729188 0 0 0 -0.9273,0 z m -1.77027,23.45988 53.86705,197.54022 -176.5221,-117.45849 c 53.00673,-4.63627 98.78547,-34.67723 122.65505,-80.08173 z m 0,0 c -23.86958,45.4045 -69.64832,75.44546 -122.65505,80.08173 l 176.5221,117.45849 z m -419.05033,-23.45988 a 6.7554904,6.3729188 0 0 0 -5.81663,4.21482 c -20.7489,54.5989 -75.63412,90.56678 -136.31148,88.82948 a 6.7554904,6.3729188 0 0 0 -4.13065,11.61066 l 205.60525,136.783074 a 6.7554904,6.3729188 0 0 0 10.45308,-6.759629 L 316.25607,-317.83745 a 6.7554904,6.3729188 0 0 0 -6.15383,-4.7715 6.7554904,6.3729188 0 0 0 -0.92729,0 z m -1.77028,23.45988 53.86705,197.54022 -176.52209,-117.45849 c 53.00673,-4.63627 98.78547,-34.67723 122.65504,-80.08173 z m 0,0 c -23.86957,45.4045 -69.64831,75.44546 -122.65504,80.08173 l 176.52209,117.45849 z M 246.035,-880 c -5.75481,0 -11.29607,0.98611 -16.6912,3.02195 -5.39513,2.03584 -10.26762,5.15322 -14.58373,9.2249 -3.59675,4.07169 -6.52474,8.45087 -8.68279,13.20117 -2.15806,4.75029 -3.20337,9.8399 -3.20337,15.26881 0,5.42889 1.04531,10.65635 3.20337,15.74595 2.15805,5.0896 5.7548,9.68616 10.79026,13.75784 23.01925,19.67979 39.95774,39.90036 50.74801,60.59808 10.79027,20.69772 16.18541,42.53529 16.18541,65.60816 0,17.64396 -3.22024,36.66105 -9.6944,57.01946 -6.47416,20.35842 -18.0175,49.90992 -34.56258,88.59091 -19.42248,43.43127 -33.05645,79.4137 -40.96932,107.91548 -7.91287,28.50177 -11.88616,55.29111 -11.88616,80.39983 0,34.60929 7.0474,67.3365 21.07476,98.21342 2.29601,5.05397 4.79374,10.08163 7.50261,15.10976 29.03455,-9.22649 54.36952,-27.35216 71.82274,-51.69128 -8.65389,-20.80066 -12.98205,-42.05598 -12.98205,-63.69956 10e-6,-19.6798 3.22023,-40.39342 9.6944,-62.10907 6.47416,-21.71563 18.68627,-52.88415 36.67005,-93.60096 18.70315,-42.07406 31.66833,-76.22212 38.86185,-102.34874 7.19351,-26.12664 10.79027,-51.00207 10.79027,-74.75355 0,-34.6093 -7.71616,-67.06082 -23.18224,-97.25912 -15.46605,-30.19832 -39.07539,-59.17725 -70.72685,-87.00041 -4.3161,-3.39307 -8.95816,-6.15524 -13.99363,-8.19108 C 257.18495,-879.01389 251.78981,-880 246.035,-880 Z m 210.41031,0 c -5.75481,0 -11.29607,0.98611 -16.69121,3.02195 -5.39514,2.03584 -10.26761,5.15322 -14.58373,9.2249 -3.59676,4.07169 -6.52474,8.31303 -8.68279,12.72401 -2.15806,4.41098 -3.20336,9.28322 -3.20336,14.71214 0,5.42891 1.27572,10.87373 3.79345,16.30263 2.51773,5.4289 5.88407,10.16331 10.20018,14.23499 23.01924,20.35841 39.95773,40.57897 50.74799,60.59808 10.79028,20.0191 16.18541,41.58099 16.18541,64.65386 0,17.64395 -3.22022,36.79889 -9.69438,57.49662 -6.47417,20.69771 -18.0175,50.38706 -34.5626,89.06805 -19.42248,44.10988 -33.05644,80.09232 -40.96931,107.91548 -7.91286,27.82315 -11.88615,54.25728 -11.88615,79.36599 0,34.60931 7.0474,67.55388 21.07474,98.77011 2.33811,5.20317 4.90499,10.42145 7.67121,15.58691 28.75119,-9.1708 53.82422,-27.11569 71.23266,-51.1346 -9.07424,-20.67334 -13.65644,-42.10763 -13.65644,-64.25624 0,-19.6798 3.22022,-40.39342 9.69438,-62.10907 6.47417,-21.71563 18.68628,-52.88415 36.67008,-93.60096 18.70313,-42.07406 31.89873,-76.22212 39.45192,-102.34874 7.5532,-26.12664 11.29607,-51.00207 11.29607,-74.75355 0,-33.93068 -7.71617,-66.16483 -23.18223,-96.70245 -15.46605,-30.53762 -39.07539,-59.73392 -70.72685,-87.55708 -4.31612,-3.39307 -8.95817,-6.15524 -13.99364,-8.19108 C 467.59524,-879.01389 462.20011,-880 456.44531,-880 Z m 211.50618,0 c -5.75481,0 -11.52649,1.20348 -17.2813,3.57863 -5.7548,2.37514 -10.77341,5.55085 -15.08952,9.62252 -3.59675,4.07169 -6.29432,8.31303 -8.0927,12.72401 -1.79837,4.41099 -2.69757,9.36276 -2.69757,14.79167 0,5.42889 1.04531,10.65635 3.20336,15.74595 2.15805,5.0896 5.37829,9.68616 9.69439,13.75784 23.01924,19.67979 39.95773,39.90036 50.748,60.59808 10.79027,20.69772 16.18541,42.53529 16.18541,65.60816 0,17.64396 -3.22023,36.66105 -9.6944,57.01946 -6.47415,20.35842 -18.01749,49.90992 -34.56258,88.59091 -19.4225,43.43127 -33.05644,79.4137 -40.96931,107.91548 -7.91287,28.50177 -11.88616,55.29111 -11.88616,80.39983 0,34.60929 7.04739,67.3365 21.07475,98.21342 2.29602,5.05397 4.79375,10.08163 7.5026,15.10976 28.82787,-9.16081 53.9617,-27.13578 71.40126,-51.21413 -9.10967,-20.96639 -13.65644,-42.35313 -13.65644,-64.17671 0,-19.00118 3.22022,-39.3596 9.69439,-61.07523 6.47415,-21.71565 18.68627,-52.88416 36.67006,-93.60099 18.70314,-42.75266 31.89875,-77.25593 39.45193,-103.38255 7.55319,-26.12664 11.29608,-51.00207 11.29608,-74.75355 0,-33.93068 -7.71618,-66.16483 -23.18224,-96.70245 -15.46605,-30.53762 -39.07539,-59.73392 -70.72685,-87.55708 -4.31611,-3.39307 -8.81206,-6.15524 -13.48784,-8.19108 C 678.87102,-879.01389 673.7063,-880 667.95149,-880 Z" />
</svg>
