<?xml version="1.0" encoding="UTF-8" standalone="no"?>
<!-- Created with Inkscape (http://www.inkscape.org/) -->

<svg
   width="512"
   height="512"
   viewBox="0 0 512 512"
   version="1.1"
   id="svg5"
   xml:space="preserve"
   inkscape:version="1.2.2 (732a01da63, 2022-12-09)"
   sodipodi:docname="CicleInsideCounterclockwise.svg"
   xmlns:inkscape="http://www.inkscape.org/namespaces/inkscape"
   xmlns:sodipodi="http://sodipodi.sourceforge.net/DTD/sodipodi-0.dtd"
   xmlns="http://www.w3.org/2000/svg"
   xmlns:svg="http://www.w3.org/2000/svg"
   xmlns:rdf="http://www.w3.org/1999/02/22-rdf-syntax-ns#"
   xmlns:cc="http://creativecommons.org/ns#"
   xmlns:dc="http://purl.org/dc/elements/1.1/"><title
     id="title5612">CircleInsideCounterclock</title><sodipodi:namedview
     id="namedview7"
     pagecolor="#505050"
     bordercolor="#eeeeee"
     borderopacity="1"
     inkscape:showpageshadow="0"
     inkscape:pageopacity="0"
     inkscape:pagecheckerboard="false"
     inkscape:deskcolor="#505050"
     inkscape:document-units="px"
     showgrid="false"
     inkscape:zoom="1.475"
     inkscape:cx="123.38983"
     inkscape:cy="330.50847"
     inkscape:window-width="3840"
     inkscape:window-height="2126"
     inkscape:window-x="-11"
     inkscape:window-y="-11"
     inkscape:window-maximized="1"
     inkscape:current-layer="layer1" /><defs
     id="defs2" /><g
     inkscape:label="Ebene 1"
     inkscape:groupmode="layer"
     id="layer1"><path
       style="fill:#ffffff"
       d="m 235.5,462.91233 c -30.92945,-3.1766 -60.82439,-13.18273 -87.4719,-29.27772 l -9.47189,-5.72098 -30.52811,-4.00754 c -16.790454,-2.20414 -30.925352,-4.40446 -31.410883,-4.88959 -1.994045,-1.99242 0.868223,-3.87782 15.2462,-10.04283 8.303813,-3.56052 14.994063,-6.79501 14.867213,-7.18776 -0.12684,-0.39276 -4.10136,-5.34276 -8.832247,-11 C 69.302226,356.59032 53.339084,318.82041 49.023301,275.14405 44.724201,231.63652 55.152014,186.4611 78.365385,148.0281 l 5.720987,-9.47189 4.007536,-30.52811 c 2.204145,-16.790454 4.404464,-30.925352 4.889597,-31.410883 1.992413,-1.994045 3.877818,0.868223 10.042825,15.2462 3.56052,8.303813 6.79501,14.994063 7.18776,14.867213 0.39276,-0.12684 5.34276,-4.10136 11,-8.832247 34.19559,-28.596157 71.9655,-44.559299 115.64186,-48.875082 20.97724,-2.072819 26.72879,-1.056431 31.82405,5.623808 5.27202,6.911975 3.76947,16.62007 -3.42121,22.104669 -3.20195,2.442246 -4.51413,2.700928 -17.60927,3.471479 -33.1151,1.948576 -63.18525,11.937339 -89.92527,29.871563 -10.49827,7.04107 -24.05179,18.56618 -23.28771,19.80249 0.25412,0.41119 6.61281,3.40367 14.1304,6.64995 13.03549,5.62905 15.791,7.5146 13.81584,9.45396 C 161.65864,146.71223 118.54319,153 114.39185,153 c -1.78577,0 -9.49602,11.99439 -15.82341,24.61558 -6.87236,13.70824 -11.886701,28.23927 -15.295949,44.32606 -2.410034,11.37192 -2.661475,14.58956 -2.661475,34.05836 0,19.4688 0.251441,22.68644 2.661475,34.05836 5.013531,23.65672 13.919528,44.97924 26.822329,64.21739 7.04107,10.49827 18.56618,24.05179 19.80249,23.28771 0.41119,-0.25412 3.40367,-6.61281 6.64995,-14.1304 5.62905,-13.03549 7.5146,-15.791 9.45396,-13.81584 0.71101,0.72414 6.99878,43.83959 6.99878,47.99093 0,1.78577 11.99439,9.49602 24.61558,15.82341 13.70824,6.87236 28.23927,11.8867 44.32606,15.29595 11.37192,2.41003 14.58956,2.66147 34.05836,2.66147 19.4688,0 22.68644,-0.25144 34.05836,-2.66147 23.65672,-5.01353 44.97924,-13.91953 64.21739,-26.82233 10.49827,-7.04107 24.05179,-18.56618 23.28771,-19.80249 -0.25412,-0.41119 -6.61281,-3.40367 -14.1304,-6.64995 -13.05584,-5.63784 -15.78015,-7.50565 -13.81446,-9.47134 1.35289,-1.35289 78.53541,-11.22739 79.5814,-10.1814 1.04599,1.04599 -8.82851,78.22851 -10.1814,79.5814 -1.99503,1.99503 -3.8784,-0.8633 -10.04493,-15.24482 -3.56052,-8.30381 -6.79501,-14.99406 -7.18776,-14.86721 -0.39276,0.12684 -5.34276,4.10136 -11,8.83225 C 346.35377,451.25811 291.10771,468.6235 235.5,462.91233 Z M 176.07705,337.34141 c -1.26047,-0.88286 -2.05741,-2.51367 -2.02708,-4.14811 0.0275,-1.48132 3.96498,-15.47043 8.75,-31.08692 7.40844,-24.17835 9.02683,-28.51331 10.9013,-29.19975 1.53455,-0.56197 2.82595,-0.29131 4.26373,0.89362 1.68545,1.38904 2.44847,4.35031 4.17417,16.19975 1.41468,9.71391 2.64793,15.05393 3.73627,16.1782 1.13555,1.17304 5.97082,2.30661 16.06337,3.76588 14.03414,2.02917 18.06119,3.48287 18.06119,6.51978 0,3.34849 -3.70834,4.96914 -28.5147,12.46175 -35.56373,10.74181 -32.96817,10.1249 -35.40825,8.4158 z m 126.02933,-8.11824 c -24.16586,-7.4243 -28.51366,-9.05094 -29.19975,-10.92444 -0.56197,-1.53455 -0.29131,-2.82595 0.89362,-4.26373 1.38904,-1.68545 4.35031,-2.44847 16.19975,-4.17417 9.71391,-1.41468 15.05393,-2.64793 16.1782,-3.73627 1.17304,-1.13555 2.30661,-5.97082 3.76588,-16.06337 C 311.97325,276.02705 313.42695,272 316.46386,272 c 3.42572,0 5.00596,3.74153 13.52693,32.02772 7.71096,25.59729 8.7076,29.73524 7.58025,31.47228 -0.71947,1.10857 -2.58457,2.09947 -4.18452,2.22317 -1.58759,0.12274 -15.66365,-3.70226 -31.28014,-8.5 z M 192.63487,238.72228 c -1.12953,-0.82593 -4.88665,-11.69882 -10.62566,-30.75 -7.71096,-25.59729 -8.7076,-29.73524 -7.58025,-31.47228 0.71947,-1.10857 2.58457,-2.09947 4.18452,-2.22317 1.58759,-0.12274 15.66365,3.70226 31.28014,8.5 24.16586,7.4243 28.51366,9.05094 29.19975,10.92444 0.56197,1.53455 0.29131,2.82595 -0.89362,4.26373 -1.38904,1.68545 -4.35031,2.44847 -16.19975,4.17417 -9.71391,1.41468 -15.05393,2.64793 -16.1782,3.73627 -1.17304,1.13555 -2.30661,5.97082 -3.76588,16.06337 -2.465,17.04838 -4.38383,20.46677 -9.42105,16.78347 z"
       id="path330" /></g><metadata
     id="metadata5610"><rdf:RDF><cc:Work
         rdf:about=""><dc:title>CircleInsideCounterclock</dc:title><dc:creator><cc:Agent><dc:title>NeoRash</dc:title></cc:Agent></dc:creator><dc:rights><cc:Agent><dc:title>Creative Commons CC0</dc:title></cc:Agent></dc:rights><cc:license
           rdf:resource="http://creativecommons.org/publicdomain/zero/1.0/" /></cc:Work><cc:License
         rdf:about="http://creativecommons.org/publicdomain/zero/1.0/"><cc:permits
           rdf:resource="http://creativecommons.org/ns#Reproduction" /><cc:permits
           rdf:resource="http://creativecommons.org/ns#Distribution" /><cc:permits
           rdf:resource="http://creativecommons.org/ns#DerivativeWorks" /></cc:License></rdf:RDF></metadata></svg>
