<?xml version="1.0" encoding="UTF-8" standalone="no"?>
<svg
   viewBox="0 0 33 33"
   version="1.1"
   id="svg4"
   sodipodi:docname="clock-plus.svg"
   inkscape:version="1.1.2 (0a00cf5339, 2022-02-04)"
   width="33"
   height="33"
   xmlns:inkscape="http://www.inkscape.org/namespaces/inkscape"
   xmlns:sodipodi="http://sodipodi.sourceforge.net/DTD/sodipodi-0.dtd"
   xmlns="http://www.w3.org/2000/svg"
   xmlns:svg="http://www.w3.org/2000/svg">
  <defs
     id="defs8" />
  <sodipodi:namedview
     id="namedview6"
     pagecolor="#ffffff"
     bordercolor="#666666"
     borderopacity="1.0"
     inkscape:pageshadow="2"
     inkscape:pageopacity="0.0"
     inkscape:pagecheckerboard="0"
     showgrid="false"
     inkscape:zoom="3.0122749"
     inkscape:cx="-5.9755503"
     inkscape:cy="7.9674004"
     inkscape:window-width="945"
     inkscape:window-height="1040"
     inkscape:window-x="965"
     inkscape:window-y="10"
     inkscape:window-maximized="1"
     inkscape:current-layer="svg4"
     lock-margins="true"
     fit-margin-top="6"
     fit-margin-left="6"
     fit-margin-right="6"
     fit-margin-bottom="6" />
  <path
     d="M 18.47,19.08 15,17 v -6 h 1.5 v 5.25 l 3.08,1.83 c -0.41,0.28 -0.79,0.62 -1.11,1 m -1.39,4.84 C 16.72,23.97 16.37,24 16,24 11.58,24 8,20.42 8,16 c 0,-4.42 3.58,-8 8,-8 4.42,0 8,3.58 8,8 0,0.37 -0.03,0.72 -0.08,1.08 0.69,0.1 1.33,0.32 1.92,0.64 C 25.94,17.16 26,16.59 26,16 26,10.5 21.5,6 16,6 10.5,6 6,10.5 6,16 c 0,5.5 4.47,10 10,10 0.59,0 1.16,-0.06 1.72,-0.16 -0.32,-0.59 -0.54,-1.23 -0.64,-1.92 M 22,19 v 3 h -3 v 2 h 3 v 3 h 2 v -3 h 3 v -2 h -3 v -3 z"
     id="path2"
     style="fill:#ffffff;fill-opacity:1" />
</svg>
