<?xml version="1.0" encoding="UTF-8" standalone="no"?>
<svg
   xmlns:dc="http://purl.org/dc/elements/1.1/"
   xmlns:cc="http://creativecommons.org/ns#"
   xmlns:rdf="http://www.w3.org/1999/02/22-rdf-syntax-ns#"
   xmlns:svg="http://www.w3.org/2000/svg"
   xmlns="http://www.w3.org/2000/svg"
   xmlns:sodipodi="http://sodipodi.sourceforge.net/DTD/sodipodi-0.dtd"
   xmlns:inkscape="http://www.inkscape.org/namespaces/inkscape"
   version="1.1"
   width="24"
   height="24"
   viewBox="0 0 24 24"
   id="svg4"
   sodipodi:docname="discord.svg"
   inkscape:version="0.92.4 5da689c313, 2019-01-14">
  <metadata
     id="metadata10">
    <rdf:RDF>
      <cc:Work
         rdf:about="">
        <dc:format>image/svg+xml</dc:format>
        <dc:type
           rdf:resource="http://purl.org/dc/dcmitype/StillImage" />
      </cc:Work>
    </rdf:RDF>
  </metadata>
  <defs
     id="defs8" />
  <sodipodi:namedview
     pagecolor="#ffffff"
     bordercolor="#666666"
     borderopacity="1"
     objecttolerance="10"
     gridtolerance="10"
     guidetolerance="10"
     inkscape:pageopacity="0"
     inkscape:pageshadow="2"
     inkscape:window-width="1920"
     inkscape:window-height="1052"
     id="namedview6"
     showgrid="false"
     inkscape:zoom="13.906433"
     inkscape:cx="20.488939"
     inkscape:cy="13.161644"
     inkscape:window-x="0"
     inkscape:window-y="0"
     inkscape:window-maximized="1"
     inkscape:current-layer="svg4" />
  <path
     d="M22,24L16.75,19L17.38,21H4.5A2.5,2.5 0 0,1 2,18.5V3.5A2.5,2.5 0 0,1 4.5,1H19.5A2.5,2.5 0 0,1 22,3.5V24M12,6.8C9.32,6.8 7.44,7.95 7.44,7.95C8.47,7.03 10.27,6.5 10.27,6.5L10.1,6.33C8.41,6.36 6.88,7.53 6.88,7.53C5.16,11.12 5.27,14.22 5.27,14.22C6.67,16.03 8.75,15.9 8.75,15.9L9.46,15C8.21,14.73 7.42,13.62 7.42,13.62C7.42,13.62 9.3,14.9 12,14.9C14.7,14.9 16.58,13.62 16.58,13.62C16.58,13.62 15.79,14.73 14.54,15L15.25,15.9C15.25,15.9 17.33,16.03 18.73,14.22C18.73,14.22 18.84,11.12 17.12,7.53C17.12,7.53 15.59,6.36 13.9,6.33L13.73,6.5C13.73,6.5 15.53,7.03 16.56,7.95C16.56,7.95 14.68,6.8 12,6.8M9.93,10.59C10.58,10.59 11.11,11.16 11.1,11.86C11.1,12.55 10.58,13.13 9.93,13.13C9.29,13.13 8.77,12.55 8.77,11.86C8.77,11.16 9.28,10.59 9.93,10.59M14.1,10.59C14.75,10.59 15.27,11.16 15.27,11.86C15.27,12.55 14.75,13.13 14.1,13.13C13.46,13.13 12.94,12.55 12.94,11.86C12.94,11.16 13.45,10.59 14.1,10.59Z"
     id="path2"
     style="fill:#ffffff;fill-opacity:1" />
</svg>
