<?xml version="1.0" encoding="UTF-8" standalone="no"?>
<svg
   xmlns:dc="http://purl.org/dc/elements/1.1/"
   xmlns:cc="http://creativecommons.org/ns#"
   xmlns:rdf="http://www.w3.org/1999/02/22-rdf-syntax-ns#"
   xmlns:svg="http://www.w3.org/2000/svg"
   xmlns="http://www.w3.org/2000/svg"
   xmlns:sodipodi="http://sodipodi.sourceforge.net/DTD/sodipodi-0.dtd"
   xmlns:inkscape="http://www.inkscape.org/namespaces/inkscape"
   version="1.1"
   width="24"
   height="24"
   viewBox="0 0 24 24"
   id="svg4"
   sodipodi:docname="exit-run.svg"
   inkscape:version="0.92.4 5da689c313, 2019-01-14">
  <metadata
     id="metadata10">
    <rdf:RDF>
      <cc:Work
         rdf:about="">
        <dc:format>image/svg+xml</dc:format>
        <dc:type
           rdf:resource="http://purl.org/dc/dcmitype/StillImage" />
      </cc:Work>
    </rdf:RDF>
  </metadata>
  <defs
     id="defs8" />
  <sodipodi:namedview
     pagecolor="#ffffff"
     bordercolor="#666666"
     borderopacity="1"
     objecttolerance="10"
     gridtolerance="10"
     guidetolerance="10"
     inkscape:pageopacity="0"
     inkscape:pageshadow="2"
     inkscape:window-width="1920"
     inkscape:window-height="1052"
     id="namedview6"
     showgrid="false"
     inkscape:zoom="9.8333333"
     inkscape:cx="11.186441"
     inkscape:cy="5.2881356"
     inkscape:window-x="0"
     inkscape:window-y="0"
     inkscape:window-maximized="1"
     inkscape:current-layer="svg4" />
  <path
     d="M13.34,8.17C12.41,8.17 11.65,7.4 11.65,6.47A1.69,1.69 0 0,1 13.34,4.78C14.28,4.78 15.04,5.54 15.04,6.47C15.04,7.4 14.28,8.17 13.34,8.17M10.3,19.93L4.37,18.75L4.71,17.05L8.86,17.9L10.21,11.04L8.69,11.64V14.5H7V10.54L11.4,8.67L12.07,8.59C12.67,8.59 13.17,8.93 13.5,9.44L14.36,10.79C15.04,12 16.39,12.82 18,12.82V14.5C16.14,14.5 14.44,13.67 13.34,12.4L12.84,14.94L14.61,16.63V23H12.92V17.9L11.14,16.21L10.3,19.93M21,23H19V3H6V16.11L4,15.69V1H21V23M6,23H4V19.78L6,20.2V23Z"
     id="path2"
     style="fill-opacity:1;fill:#ffffff" />
</svg>
