<?xml version="1.0" encoding="UTF-8" standalone="no"?>
<svg
   viewBox="0 0 24 24"
   version="1.1"
   id="svg1"
   sodipodi:docname="filter-menu.svg"
   inkscape:version="1.3.2 (091e20ef0f, 2023-11-25, custom)"
   xmlns:inkscape="http://www.inkscape.org/namespaces/inkscape"
   xmlns:sodipodi="http://sodipodi.sourceforge.net/DTD/sodipodi-0.dtd"
   xmlns="http://www.w3.org/2000/svg"
   xmlns:svg="http://www.w3.org/2000/svg">
  <defs
     id="defs1" />
  <sodipodi:namedview
     id="namedview1"
     pagecolor="#ffffff"
     bordercolor="#999999"
     borderopacity="1"
     inkscape:showpageshadow="0"
     inkscape:pageopacity="0"
     inkscape:pagecheckerboard="0"
     inkscape:deskcolor="#d1d1d1"
     inkscape:zoom="32.583333"
     inkscape:cx="12"
     inkscape:cy="11.984655"
     inkscape:window-width="1920"
     inkscape:window-height="1049"
     inkscape:window-x="0"
     inkscape:window-y="0"
     inkscape:window-maximized="1"
     inkscape:current-layer="svg1" />
  <path
     d="M11 11L16.76 3.62A1 1 0 0 0 16.59 2.22A1 1 0 0 0 16 2H2A1 1 0 0 0 1.38 2.22A1 1 0 0 0 1.21 3.62L7 11V16.87A1 1 0 0 0 7.29 17.7L9.29 19.7A1 1 0 0 0 10.7 19.7A1 1 0 0 0 11 18.87V11M13 16L18 21L23 16Z"
     id="path1"
     style="fill:#ffffff;fill-opacity:1" />
</svg>
