<?xml version="1.0" encoding="UTF-8" standalone="no"?>
<svg
   version="1.1"
   width="24"
   height="24"
   viewBox="0 0 24 24"
   id="svg892"
   sodipodi:docname="flip-vertical.svg"
   inkscape:version="1.1.1 (3bf5ae0d25, 2021-09-20)"
   xmlns:inkscape="http://www.inkscape.org/namespaces/inkscape"
   xmlns:sodipodi="http://sodipodi.sourceforge.net/DTD/sodipodi-0.dtd"
   xmlns="http://www.w3.org/2000/svg"
   xmlns:svg="http://www.w3.org/2000/svg">
  <defs
     id="defs896" />
  <sodipodi:namedview
     id="namedview894"
     pagecolor="#505050"
     bordercolor="#eeeeee"
     borderopacity="1"
     inkscape:pageshadow="0"
     inkscape:pageopacity="0"
     inkscape:pagecheckerboard="0"
     showgrid="false"
     inkscape:zoom="23.041667"
     inkscape:cx="3.4502712"
     inkscape:cy="12"
     inkscape:window-width="1346"
     inkscape:window-height="728"
     inkscape:window-x="10"
     inkscape:window-y="10"
     inkscape:window-maximized="1"
     inkscape:current-layer="svg892" />
  <path
     d="M3 15V17H5V15M15 19V21H17V19M19 3H5C3.9 3 3 3.9 3 5V9H5V5H19V9H21V5C21 3.9 20.1 3 19 3M21 19H19V21C20.1 21 21 20.1 21 19M1 11V13H23V11M7 19V21H9V19M19 15V17H21V15M11 19V21H13V19M3 19C3 20.1 3.9 21 5 21V19Z"
     id="path890"
     style="fill:#fffff2;fill-opacity:1" />
</svg>
