<?xml version="1.0" encoding="UTF-8" standalone="no"?>
<svg
   version="1.1"
   width="24"
   height="24"
   viewBox="0 0 24 24"
   id="svg957"
   sodipodi:docname="flip-horizontal.svg"
   inkscape:version="1.1.1 (3bf5ae0d25, 2021-09-20)"
   xmlns:inkscape="http://www.inkscape.org/namespaces/inkscape"
   xmlns:sodipodi="http://sodipodi.sourceforge.net/DTD/sodipodi-0.dtd"
   xmlns="http://www.w3.org/2000/svg"
   xmlns:svg="http://www.w3.org/2000/svg">
  <defs
     id="defs961" />
  <sodipodi:namedview
     id="namedview959"
     pagecolor="#505050"
     bordercolor="#eeeeee"
     borderopacity="1"
     inkscape:pageshadow="0"
     inkscape:pageopacity="0"
     inkscape:pagecheckerboard="0"
     showgrid="false"
     inkscape:zoom="23.041667"
     inkscape:cx="12"
     inkscape:cy="5.0560579"
     inkscape:window-width="1346"
     inkscape:window-height="728"
     inkscape:window-x="10"
     inkscape:window-y="10"
     inkscape:window-maximized="1"
     inkscape:current-layer="svg957" />
  <path
     d="M15 21H17V19H15M19 9H21V7H19M3 5V19C3 20.1 3.9 21 5 21H9V19H5V5H9V3H5C3.9 3 3 3.9 3 5M19 3V5H21C21 3.9 20.1 3 19 3M11 23H13V1H11M19 17H21V15H19M15 5H17V3H15M19 13H21V11H19M19 21C20.1 21 21 20.1 21 19H19Z"
     id="path955"
     style="fill:#ffffff;fill-opacity:1" />
</svg>
