<?xml version="1.0" encoding="UTF-8" standalone="no"?>
<!-- Created with Inkscape (http://www.inkscape.org/) -->

<svg
   width="240"
   height="240"
   viewBox="0 0 63.499999 63.500002"
   version="1.1"
   id="svg5"
   inkscape:version="1.2.2 (b0a8486541, 2022-12-01)"
   sodipodi:docname="flip-angle.svg"
   inkscape:export-filename="/home/lino/prj/Project-Heartbeat/graphics/icons/flip-angles.png"
   inkscape:export-xdpi="204.8"
   inkscape:export-ydpi="204.8"
   xmlns:inkscape="http://www.inkscape.org/namespaces/inkscape"
   xmlns:sodipodi="http://sodipodi.sourceforge.net/DTD/sodipodi-0.dtd"
   xmlns="http://www.w3.org/2000/svg"
   xmlns:svg="http://www.w3.org/2000/svg">
  <sodipodi:namedview
     id="namedview7"
     pagecolor="#505050"
     bordercolor="#eeeeee"
     borderopacity="1"
     inkscape:pageshadow="0"
     inkscape:pageopacity="0"
     inkscape:pagecheckerboard="true"
     inkscape:document-units="mm"
     showgrid="false"
     units="px"
     width="240px"
     inkscape:zoom="1.5114407"
     inkscape:cx="86.010652"
     inkscape:cy="134.30894"
     inkscape:window-width="945"
     inkscape:window-height="1040"
     inkscape:window-x="965"
     inkscape:window-y="10"
     inkscape:window-maximized="1"
     inkscape:current-layer="layer1"
     inkscape:showpageshadow="0"
     inkscape:deskcolor="#505050" />
  <defs
     id="defs2">
    <marker
       style="overflow:visible;"
       id="Arrow2Send"
       refX="0.0"
       refY="0.0"
       orient="auto"
       inkscape:stockid="Arrow2Send"
       inkscape:isstock="true">
      <path
         transform="scale(0.3) rotate(180) translate(-2.3,0)"
         d="M 8.7185878,4.0337352 L -2.2072895,0.016013256 L 8.7185884,-4.0017078 C 6.9730900,-1.6296469 6.9831476,1.6157441 8.7185878,4.0337352 z "
         style="stroke:context-stroke;fill-rule:evenodd;fill:context-stroke;stroke-width:0.62500000;stroke-linejoin:round;"
         id="path2822" />
    </marker>
    <marker
       style="overflow:visible;"
       id="Arrow1Lend"
       refX="0.0"
       refY="0.0"
       orient="auto"
       inkscape:stockid="Arrow1Lend"
       inkscape:isstock="true">
      <path
         transform="scale(0.8) rotate(180) translate(12.5,0)"
         style="fill-rule:evenodd;fill:context-stroke;stroke:context-stroke;stroke-width:1.0pt;"
         d="M 0.0,0.0 L 5.0,-5.0 L -12.5,0.0 L 5.0,5.0 L 0.0,0.0 z "
         id="path2792" />
    </marker>
    <marker
       style="overflow:visible;"
       id="Arrow2Mend"
       refX="0.0"
       refY="0.0"
       orient="auto"
       inkscape:stockid="Arrow2Mend"
       inkscape:isstock="true">
      <path
         transform="scale(0.6) rotate(180) translate(0,0)"
         d="M 8.7185878,4.0337352 L -2.2072895,0.016013256 L 8.7185884,-4.0017078 C 6.9730900,-1.6296469 6.9831476,1.6157441 8.7185878,4.0337352 z "
         style="stroke:context-stroke;fill-rule:evenodd;fill:context-stroke;stroke-width:0.62500000;stroke-linejoin:round;"
         id="path1036" />
    </marker>
    <marker
       style="overflow:visible;"
       id="Arrow1Send"
       refX="0.0"
       refY="0.0"
       orient="auto"
       inkscape:stockid="Arrow1Send"
       inkscape:isstock="true">
      <path
         transform="scale(0.2) rotate(180) translate(6,0)"
         style="fill-rule:evenodd;fill:context-stroke;stroke:context-stroke;stroke-width:1.0pt;"
         d="M 0.0,0.0 L 5.0,-5.0 L -12.5,0.0 L 5.0,5.0 L 0.0,0.0 z "
         id="path1024" />
    </marker>
    <marker
       id="ExperimentalArrow"
       refX="5.0"
       refY="3.0"
       orient="auto-start-reverse"
       inkscape:stockid="ExperimentalArrow"
       inkscape:isstock="true">
      <path
         style="fill:context-stroke"
         d="m 10,3 -10,3 0,-6 z"
         id="path1262" />
    </marker>
    <marker
       style="overflow:visible"
       id="TriangleOutL"
       refX="0.0"
       refY="0.0"
       orient="auto"
       inkscape:stockid="TriangleOutL"
       inkscape:isstock="true">
      <path
         transform="scale(0.8)"
         style="fill-rule:evenodd;fill:context-stroke;stroke:context-stroke;stroke-width:1.0pt"
         d="M 5.77,0.0 L -2.88,5.0 L -2.88,-5.0 L 5.77,0.0 z "
         id="path1887" />
    </marker>
    <marker
       style="overflow:visible;"
       id="Arrow2Lend"
       refX="0.0"
       refY="0.0"
       orient="auto"
       inkscape:stockid="Arrow2Lend"
       inkscape:isstock="true">
      <path
         transform="scale(1.1) rotate(180) translate(1,0)"
         d="M 8.7185878,4.0337352 L -2.2072895,0.016013256 L 8.7185884,-4.0017078 C 6.9730900,-1.6296469 6.9831476,1.6157441 8.7185878,4.0337352 z "
         style="stroke:context-stroke;fill-rule:evenodd;fill:context-stroke;stroke-width:0.62500000;stroke-linejoin:round;"
         id="path1766" />
    </marker>
    <marker
       style="overflow:visible"
       id="Arrow2Mend-3"
       refX="0"
       refY="0"
       orient="auto"
       inkscape:stockid="Arrow2Mend"
       inkscape:isstock="true">
      <path
         transform="scale(-0.6)"
         d="M 8.7185878,4.0337352 -2.2072895,0.01601326 8.7185884,-4.0017078 c -1.7454984,2.3720609 -1.7354408,5.6174519 -6e-7,8.035443 z"
         style="fill:context-stroke;fill-rule:evenodd;stroke:context-stroke;stroke-width:0.625;stroke-linejoin:round"
         id="path1036-6" />
    </marker>
    <marker
       style="overflow:visible"
       id="Arrow2Mend-3-5"
       refX="0"
       refY="0"
       orient="auto"
       inkscape:stockid="Arrow2Mend"
       inkscape:isstock="true">
      <path
         transform="scale(-0.6)"
         d="M 8.7185878,4.0337352 -2.2072895,0.01601326 8.7185884,-4.0017078 c -1.7454984,2.3720609 -1.7354408,5.6174519 -6e-7,8.035443 z"
         style="fill:context-stroke;fill-rule:evenodd;stroke:context-stroke;stroke-width:0.625;stroke-linejoin:round"
         id="path1036-6-3" />
    </marker>
    <marker
       style="overflow:visible"
       id="Arrow2Mend-36"
       refX="0"
       refY="0"
       orient="auto"
       inkscape:stockid="Arrow2Mend"
       inkscape:isstock="true">
      <path
         transform="scale(-0.6)"
         d="M 8.7185878,4.0337352 -2.2072895,0.01601326 8.7185884,-4.0017078 c -1.7454984,2.3720609 -1.7354408,5.6174519 -6e-7,8.035443 z"
         style="fill:context-stroke;fill-rule:evenodd;stroke:context-stroke;stroke-width:0.625;stroke-linejoin:round"
         id="path1036-7" />
    </marker>
    <marker
       style="overflow:visible"
       id="Arrow2Mend-36-2"
       refX="0"
       refY="0"
       orient="auto"
       inkscape:stockid="Arrow2Mend"
       inkscape:isstock="true">
      <path
         transform="scale(-0.6)"
         d="M 8.7185878,4.0337352 -2.2072895,0.01601326 8.7185884,-4.0017078 c -1.7454984,2.3720609 -1.7354408,5.6174519 -6e-7,8.035443 z"
         style="fill:context-stroke;fill-rule:evenodd;stroke:context-stroke;stroke-width:0.625;stroke-linejoin:round"
         id="path1036-7-7" />
    </marker>
  </defs>
  <g
     inkscape:label="Layer 1"
     inkscape:groupmode="layer"
     id="layer1">
    <g
       id="g2623" />
    <g
       id="g2719"
       transform="translate(-19.878303,-0.5168232)">
      <path
         style="color:#000000;fill:#ffffff;-inkscape-stroke:none;opacity:0.992"
         d="m 46.572266,116.4375 -45.4746098,78.75195 90.9394528,0.006 -8.046875,-13.9375 z m -0.002,37.16992 13.279297,23.00195 h -26.5625 z"
         id="path926"
         transform="matrix(0.20769178,0,0,0.20769178,22.078268,17.451856)" />
      <g
         id="path1743-5">
        <path
           style="color:#000000;fill:#ffffff;-inkscape-stroke:none"
           d="m 29.068359,6.5410156 c -5.759602,18.7670034 0.0332,32.2539064 0.0332,32.2539064 l 1.619141,-0.699219 c 0,0 -5.560837,-12.809574 0.0332,-31.0371093 z"
           id="path376" />
        <g
           id="g366">
          <g
             id="path368">
            <path
               style="color:#000000;fill:#ffffff;fill-rule:evenodd;stroke-width:0.6615;stroke-linejoin:round;-inkscape-stroke:none"
               d="m 30.172322,28.280993 0.67992,12.302243 -8.487919,-8.930997 c 3.037238,0.700901 6.186548,-0.670466 7.807999,-3.371246 z"
               id="path372" />
            <path
               style="color:#000000;fill:#ffffff;fill-rule:evenodd;stroke-linejoin:round;-inkscape-stroke:none"
               d="m 30.251953,27.960937 a 0.33078306,0.33078306 0 0 0 -0.363281,0.150391 c -1.5496,2.581101 -4.5529,3.887131 -7.449219,3.21875 A 0.33078306,0.33078306 0 0 0 22.125,31.880859 l 8.488281,8.929688 a 0.33078306,0.33078306 0 0 0 0.56836,-0.246094 L 30.501953,28.263672 a 0.33078306,0.33078306 0 0 0 -0.25,-0.302735 z m -0.365234,1.167969 0.585937,10.574219 -7.289062,-7.669922 c 2.592525,0.270613 5.096814,-0.821073 6.703125,-2.904297 z"
               id="path374" />
          </g>
        </g>
      </g>
    </g>
    <path
       style="color:#000000;fill:#ffffff;-inkscape-stroke:none;opacity:0.992"
       d="m 46.572266,116.4375 -45.4746098,78.75195 90.9394528,0.006 -8.046875,-13.9375 z m -0.002,37.16992 13.279297,23.00195 h -26.5625 z"
       id="path926-0"
       transform="matrix(-0.20769178,0,0,0.20769178,61.301329,-19.155213)" />
    <g
       id="path1743-5-9">
      <path
         style="color:#000000;fill:#ffffff;stroke-dasharray:3.52742, 3.52742;-inkscape-stroke:none"
         d="m 54.457031,25.679687 -1.652344,0.615235 0.06836,0.18164 0.113281,0.320313 0.132813,0.394531 c 0.16887,0.514631 0.323429,1.036272 0.466796,1.5625 l 0.08594,0.316406 0.08594,0.333985 0.04102,0.167969 1.712891,-0.423829 -0.04492,-0.175781 -0.08984,-0.349609 -0.08789,-0.332031 -0.002,-0.002 c -0.150831,-0.553624 -0.313914,-1.105465 -0.49414,-1.654296 v -0.0039 L 54.652344,26.21875 54.53125,25.875 Z m 1.773438,6.992188 -1.740235,0.287109 0.01953,0.128907 0.07422,0.480468 0.07227,0.494141 0.06641,0.509766 0.0625,0.521484 0.06055,0.535156 0.05273,0.548828 0.01953,0.214844 1.755859,-0.154297 -0.01953,-0.224609 -0.05469,-0.566406 -0.06055,-0.556641 -0.06641,-0.541016 -0.07031,-0.527343 -0.07227,-0.513672 -0.07813,-0.5 z m 0.634765,7.152344 -1.763672,0.02539 0.0059,0.515625 0.002,0.646485 -0.0059,0.658203 -0.01563,0.667969 -0.02539,0.679687 -0.01563,0.302734 1.761719,0.08594 0.01563,-0.3125 0.02539,-0.703125 0.01758,-0.691406 0.0059,-0.679688 -0.002,-0.669922 z m -2.099609,6.955078 -0.01953,0.169922 -0.04492,0.375 c -0.04699,0.377544 -0.09746,0.754324 -0.152344,1.130859 l -0.05664,0.382813 -0.06055,0.388671 c -0.05334,0.331111 -0.108905,0.658938 -0.167969,0.984375 l 1.734375,0.314454 c 0.06221,-0.342773 0.11918,-0.684111 0.173828,-1.023438 l 0.002,-0.002 0.06055,-0.396484 0.05859,-0.392579 0.002,-0.002 c 0.05675,-0.389305 0.107663,-0.779456 0.15625,-1.169922 h 0.002 l 0.04492,-0.384765 0.02148,-0.175781 z m -1.21875,6.828125 -0.101563,0.412109 -0.105468,0.414063 -0.109375,0.416015 -0.113282,0.417969 -0.115234,0.421875 -0.121094,0.421875 -0.125,0.423828 -0.130859,0.429688 1.6875,0.511718 0.132812,-0.4375 0.128907,-0.435546 0.125,-0.435547 0.11914,-0.433594 0.117188,-0.429688 0.113281,-0.429687 0.107422,-0.425781 0.103516,-0.417969 z"
         id="path354" />
      <g
         id="g344">
        <g
           id="path346">
          <path
             style="color:#000000;fill:#ffffff;fill-rule:evenodd;stroke-width:0.661391;stroke-linejoin:round;-inkscape-stroke:none"
             d="m 53.207318,35.737358 -0.679808,-12.30022 8.486523,8.929528 c -3.036738,-0.700786 -6.185531,0.670356 -7.806715,3.370692 z"
             id="path350" />
          <path
             style="color:#000000;fill:#ffffff;fill-rule:evenodd;stroke-linejoin:round;-inkscape-stroke:none"
             d="m 52.396484,23.132812 a 0.33072858,0.33072858 0 0 0 -0.199218,0.322266 l 0.679687,12.300781 a 0.33072858,0.33072858 0 0 0 0.613281,0.152344 c 1.549345,-2.580676 4.553378,-3.887021 7.449219,-3.21875 a 0.33072858,0.33072858 0 0 0 0.314453,-0.550781 l -8.486328,-8.929688 a 0.33072858,0.33072858 0 0 0 -0.371094,-0.07617 z m 0.509766,1.183594 7.289062,7.669922 c -2.592331,-0.271027 -5.096804,0.819419 -6.703125,2.902344 z"
             id="path352" />
        </g>
      </g>
    </g>
    <g
       id="path2754">
      <path
         style="color:#000000;fill:#ffffff;-inkscape-stroke:none"
         d="m 17.576172,29.785156 v 3.96875 h 24.607422 v -3.96875 z"
         id="path340" />
      <g
         id="g330">
        <g
           id="path332">
          <path
             style="color:#000000;fill:#ffffff;fill-rule:evenodd;stroke-width:0.744141;stroke-linejoin:round;-inkscape-stroke:none"
             d="m 34.541784,26.966401 13.008623,4.7836 -13.008624,4.783599 c 2.078234,-2.824235 2.066259,-6.688278 10e-7,-9.567199 z"
             id="path336" />
          <path
             style="color:#000000;fill:#ffffff;fill-rule:evenodd;stroke-linejoin:round;-inkscape-stroke:none"
             d="m 34.669922,26.617187 a 0.3721077,0.3721077 0 0 0 -0.429688,0.566407 c 1.974697,2.751347 1.983763,6.435708 0.002,9.128906 a 0.3721077,0.3721077 0 0 0 0.427735,0.570312 l 13.009765,-4.783203 a 0.3721077,0.3721077 0 0 0 0,-0.699218 z M 35.291016,27.638672 46.470703,31.75 35.300781,35.857422 c 1.43603,-2.557059 1.425759,-5.630527 -0.0098,-8.21875 z"
             id="path338" />
        </g>
      </g>
    </g>
  </g>
</svg>
