<?xml version="1.0" encoding="UTF-8" standalone="no"?>
<svg
   version="1.1"
   width="24"
   height="24"
   viewBox="0 0 24 24"
   id="svg4"
   sodipodi:docname="form-textbox.svg"
   inkscape:version="1.1.1 (3bf5ae0d25, 2021-09-20)"
   xmlns:inkscape="http://www.inkscape.org/namespaces/inkscape"
   xmlns:sodipodi="http://sodipodi.sourceforge.net/DTD/sodipodi-0.dtd"
   xmlns="http://www.w3.org/2000/svg"
   xmlns:svg="http://www.w3.org/2000/svg">
  <defs
     id="defs8" />
  <sodipodi:namedview
     id="namedview6"
     pagecolor="#ffffff"
     bordercolor="#666666"
     borderopacity="1.0"
     inkscape:pageshadow="2"
     inkscape:pageopacity="0.0"
     inkscape:pagecheckerboard="0"
     showgrid="false"
     inkscape:zoom="11.520833"
     inkscape:cx="-0.47739602"
     inkscape:cy="10.80651"
     inkscape:window-width="1346"
     inkscape:window-height="728"
     inkscape:window-x="10"
     inkscape:window-y="10"
     inkscape:window-maximized="1"
     inkscape:current-layer="svg4" />
  <path
     d="m 15.621968,8.3780327 h 3.621967 v 7.2439353 h -3.621967 v 1.448786 a 0.72439348,0.72439348 0 0 0 0.724393,0.724394 h 1.448787 v 1.448787 h -1.810984 c -0.398416,0 -1.08659,-0.325977 -1.08659,-0.724393 0,0.398416 -0.688174,0.724393 -1.08659,0.724393 H 12 v -1.448787 h 1.448787 A 0.72439348,0.72439348 0 0 0 14.17318,17.070754 V 6.9292457 A 0.72439348,0.72439348 0 0 0 13.448787,6.2048522 H 12 v -1.448787 h 1.810984 c 0.398416,0 1.08659,0.3259771 1.08659,0.7243935 0,-0.3984164 0.688174,-0.7243935 1.08659,-0.7243935 h 1.810984 v 1.448787 h -1.448787 a 0.72439348,0.72439348 0 0 0 -0.724393,0.7243935 v 1.448787 m -10.8659029,0 h 7.9683289 v 1.448787 H 6.2048521 V 14.17318 h 6.5195419 v 1.448788 H 4.7560652 V 8.3780327 M 17.795148,14.17318 V 9.8268197 h -2.17318 V 14.17318 h 2.17318 M 9.4646229,12 A 1.0865902,1.0865902 0 0 0 8.3780327,10.91341 1.0865902,1.0865902 0 0 0 7.2914423,12 1.0865902,1.0865902 0 0 0 8.3780327,13.08659 1.0865902,1.0865902 0 0 0 9.4646229,12 m 3.2597711,-0.804077 c -0.44188,-0.40566 -1.130054,-0.36944 -1.535714,0.07969 -0.40566,0.434636 -0.369441,1.12281 0.08693,1.52847 0.398416,0.376685 1.035882,0.376685 1.448787,0 z"
     id="path2"
     style="fill:#ffffff;fill-opacity:1;stroke-width:0.724394" />
</svg>
