<?xml version="1.0" encoding="UTF-8" standalone="no"?>
<svg
   xmlns:dc="http://purl.org/dc/elements/1.1/"
   xmlns:cc="http://creativecommons.org/ns#"
   xmlns:rdf="http://www.w3.org/1999/02/22-rdf-syntax-ns#"
   xmlns:svg="http://www.w3.org/2000/svg"
   xmlns="http://www.w3.org/2000/svg"
   xmlns:sodipodi="http://sodipodi.sourceforge.net/DTD/sodipodi-0.dtd"
   xmlns:inkscape="http://www.inkscape.org/namespaces/inkscape"
   height="16"
   viewBox="0 0 16 16"
   width="16"
   version="1.1"
   id="svg15"
   sodipodi:docname="icon_note_OK.svg"
   inkscape:version="0.92.4 5da689c313, 2019-01-14">
  <metadata
     id="metadata21">
    <rdf:RDF>
      <cc:Work
         rdf:about="">
        <dc:format>image/svg+xml</dc:format>
        <dc:type
           rdf:resource="http://purl.org/dc/dcmitype/StillImage" />
        <dc:title></dc:title>
      </cc:Work>
    </rdf:RDF>
  </metadata>
  <defs
     id="defs19" />
  <sodipodi:namedview
     pagecolor="#000000"
     bordercolor="#666666"
     borderopacity="1"
     objecttolerance="10"
     gridtolerance="10"
     guidetolerance="10"
     inkscape:pageopacity="0"
     inkscape:pageshadow="2"
     inkscape:window-width="2560"
     inkscape:window-height="1028"
     id="namedview17"
     showgrid="false"
     inkscape:zoom="14.75"
     inkscape:cx="1.0169492"
     inkscape:cy="2.3050847"
     inkscape:window-x="0"
     inkscape:window-y="24"
     inkscape:window-maximized="1"
     inkscape:current-layer="svg15" />
  <linearGradient
     id="a"
     gradientUnits="userSpaceOnUse"
     x1="8"
     x2="8"
     y1="1"
     y2="15">
    <stop
       offset="0"
       stop-color="#ff7a7a"
       id="stop2" />
    <stop
       offset=".5"
       stop-color="#e1dc7a"
       id="stop4" />
    <stop
       offset="1"
       stop-color="#66ff9e"
       id="stop6" />
  </linearGradient>
  <g
     transform="translate(0 -1036.4)"
     id="g13"
     style="fill:#ffffff;fill-opacity:1">
    <path
       d="m11.971 1.002a1.0001 1.0001 0 0 0 -.24609.037109l-7 2a1.0001 1.0001 0 0 0 -.72461.96094v5.5508a2.5 2.5 0 0 0 -.5-.050781 2.5 2.5 0 0 0 -2.5 2.5 2.5 2.5 0 0 0 2.5 2.5 2.5 2.5 0 0 0 2.4961-2.4121 1.0001 1.0001 0 0 0 .0039062-.087891v-7.2441l5-1.4277v3.1719l2-1v-3.5a1.0001 1.0001 0 0 0 -1.0293-.99805z"
       fill="url(#a)"
       transform="translate(0 1036.4)"
       id="path11"
       style="fill:#ffffff;fill-opacity:1" />
  </g>
  <path
     d="M 14.588814,7.1169491 15.855933,8.3931186 9.9457288,14.357628 6.8050848,11.189831 8.0722034,9.9136619 9.9457288,11.796238 14.588814,7.1169491"
     id="path2"
     inkscape:connector-curvature="0"
     sodipodi:nodetypes="ccccccc"
     style="fill:#00ff6a;fill-opacity:1;stroke-width:0.90508473" />
</svg>
