<?xml version="1.0" encoding="UTF-8" standalone="no"?>
<svg
   xmlns:dc="http://purl.org/dc/elements/1.1/"
   xmlns:cc="http://creativecommons.org/ns#"
   xmlns:rdf="http://www.w3.org/1999/02/22-rdf-syntax-ns#"
   xmlns:svg="http://www.w3.org/2000/svg"
   xmlns="http://www.w3.org/2000/svg"
   xmlns:sodipodi="http://sodipodi.sourceforge.net/DTD/sodipodi-0.dtd"
   xmlns:inkscape="http://www.inkscape.org/namespaces/inkscape"
   height="16"
   viewBox="0 0 16 16"
   width="16"
   version="1.1"
   id="svg12"
   sodipodi:docname="icon_information_sign.svg"
   inkscape:version="0.92.4 5da689c313, 2019-01-14">
  <metadata
     id="metadata18">
    <rdf:RDF>
      <cc:Work
         rdf:about="">
        <dc:format>image/svg+xml</dc:format>
        <dc:type
           rdf:resource="http://purl.org/dc/dcmitype/StillImage" />
      </cc:Work>
    </rdf:RDF>
  </metadata>
  <defs
     id="defs16" />
  <sodipodi:namedview
     pagecolor="#ffffff"
     bordercolor="#666666"
     borderopacity="1"
     objecttolerance="10"
     gridtolerance="10"
     guidetolerance="10"
     inkscape:pageopacity="0"
     inkscape:pageshadow="2"
     inkscape:window-width="2560"
     inkscape:window-height="1028"
     id="namedview14"
     showgrid="false"
     inkscape:zoom="41.7193"
     inkscape:cx="8.0409336"
     inkscape:cy="5.836788"
     inkscape:window-x="1920"
     inkscape:window-y="24"
     inkscape:window-maximized="1"
     inkscape:current-layer="g10" />
  <g
     stroke-width=".570241"
     id="g10">
    <path
       d="M 4.5292969 1.2070312 L 1.1074219 4.6269531 L 1.1074219 11.470703 L 4.5292969 14.892578 L 11.373047 14.892578 L 14.792969 11.470703 L 14.792969 4.6269531 L 11.373047 1.2070312 L 4.5292969 1.2070312 z M 8.0390625 2.8476562 A 1.394188 1.366851 0 0 1 9.4335938 4.2148438 A 1.394188 1.366851 0 0 1 8.0390625 5.5820312 A 1.394188 1.366851 0 0 1 6.6445312 4.2148438 A 1.394188 1.366851 0 0 1 8.0390625 2.8476562 z M 6.6992188 6.3476562 L 9.3242188 6.3476562 L 9.3242188 12.853516 L 6.6992188 12.853516 L 6.6992188 6.3476562 z "
       id="path2"
       style="fill:#ffffff;fill-opacity:1" />
    <g
       fill="#fff"
       id="g8" />
  </g>
</svg>
