<?xml version="1.0" encoding="UTF-8" standalone="no"?>
<!-- Created with Inkscape (http://www.inkscape.org/) -->

<svg
   width="240"
   height="240"
   viewBox="0 0 63.499999 63.500002"
   version="1.1"
   id="svg5"
   inkscape:version="1.2.2 (b0a8486541, 2022-12-01)"
   sodipodi:docname="increment-angles-inverted.svg"
   inkscape:export-filename="/home/lino/prj/Project-Heartbeat/graphics/icons/increment-angles-inverted.png"
   inkscape:export-xdpi="204.8"
   inkscape:export-ydpi="204.8"
   xmlns:inkscape="http://www.inkscape.org/namespaces/inkscape"
   xmlns:sodipodi="http://sodipodi.sourceforge.net/DTD/sodipodi-0.dtd"
   xmlns="http://www.w3.org/2000/svg"
   xmlns:svg="http://www.w3.org/2000/svg">
  <sodipodi:namedview
     id="namedview7"
     pagecolor="#505050"
     bordercolor="#eeeeee"
     borderopacity="1"
     inkscape:pageshadow="0"
     inkscape:pageopacity="0"
     inkscape:pagecheckerboard="true"
     inkscape:document-units="mm"
     showgrid="false"
     units="px"
     width="240px"
     inkscape:zoom="1.0444753"
     inkscape:cx="130.68763"
     inkscape:cy="89.039924"
     inkscape:window-width="945"
     inkscape:window-height="1040"
     inkscape:window-x="965"
     inkscape:window-y="10"
     inkscape:window-maximized="1"
     inkscape:current-layer="layer1"
     inkscape:showpageshadow="0"
     inkscape:deskcolor="#505050" />
  <defs
     id="defs2">
    <marker
       style="overflow:visible;"
       id="Arrow2Mend"
       refX="0.0"
       refY="0.0"
       orient="auto"
       inkscape:stockid="Arrow2Mend"
       inkscape:isstock="true">
      <path
         transform="scale(0.6) rotate(180) translate(0,0)"
         d="M 8.7185878,4.0337352 L -2.2072895,0.016013256 L 8.7185884,-4.0017078 C 6.9730900,-1.6296469 6.9831476,1.6157441 8.7185878,4.0337352 z "
         style="stroke:context-stroke;fill-rule:evenodd;fill:context-stroke;stroke-width:0.62500000;stroke-linejoin:round;"
         id="path1036" />
    </marker>
    <marker
       style="overflow:visible;"
       id="Arrow1Send"
       refX="0.0"
       refY="0.0"
       orient="auto"
       inkscape:stockid="Arrow1Send"
       inkscape:isstock="true">
      <path
         transform="scale(0.2) rotate(180) translate(6,0)"
         style="fill-rule:evenodd;fill:context-stroke;stroke:context-stroke;stroke-width:1.0pt;"
         d="M 0.0,0.0 L 5.0,-5.0 L -12.5,0.0 L 5.0,5.0 L 0.0,0.0 z "
         id="path1024" />
    </marker>
    <marker
       id="ExperimentalArrow"
       refX="5.0"
       refY="3.0"
       orient="auto-start-reverse"
       inkscape:stockid="ExperimentalArrow"
       inkscape:isstock="true">
      <path
         style="fill:context-stroke"
         d="m 10,3 -10,3 0,-6 z"
         id="path1262" />
    </marker>
    <marker
       style="overflow:visible"
       id="TriangleOutL"
       refX="0.0"
       refY="0.0"
       orient="auto"
       inkscape:stockid="TriangleOutL"
       inkscape:isstock="true">
      <path
         transform="scale(0.8)"
         style="fill-rule:evenodd;fill:context-stroke;stroke:context-stroke;stroke-width:1.0pt"
         d="M 5.77,0.0 L -2.88,5.0 L -2.88,-5.0 L 5.77,0.0 z "
         id="path1887" />
    </marker>
    <marker
       style="overflow:visible;"
       id="Arrow2Lend"
       refX="0.0"
       refY="0.0"
       orient="auto"
       inkscape:stockid="Arrow2Lend"
       inkscape:isstock="true">
      <path
         transform="scale(1.1) rotate(180) translate(1,0)"
         d="M 8.7185878,4.0337352 L -2.2072895,0.016013256 L 8.7185884,-4.0017078 C 6.9730900,-1.6296469 6.9831476,1.6157441 8.7185878,4.0337352 z "
         style="stroke:context-stroke;fill-rule:evenodd;fill:context-stroke;stroke-width:0.62500000;stroke-linejoin:round;"
         id="path1766" />
    </marker>
    <marker
       style="overflow:visible"
       id="Arrow2Mend-3"
       refX="0"
       refY="0"
       orient="auto"
       inkscape:stockid="Arrow2Mend"
       inkscape:isstock="true">
      <path
         transform="scale(-0.6)"
         d="M 8.7185878,4.0337352 -2.2072895,0.01601326 8.7185884,-4.0017078 c -1.7454984,2.3720609 -1.7354408,5.6174519 -6e-7,8.035443 z"
         style="fill:context-stroke;fill-rule:evenodd;stroke:context-stroke;stroke-width:0.625;stroke-linejoin:round"
         id="path1036-6" />
    </marker>
    <marker
       style="overflow:visible"
       id="Arrow2Mend-3-5"
       refX="0"
       refY="0"
       orient="auto"
       inkscape:stockid="Arrow2Mend"
       inkscape:isstock="true">
      <path
         transform="scale(-0.6)"
         d="M 8.7185878,4.0337352 -2.2072895,0.01601326 8.7185884,-4.0017078 c -1.7454984,2.3720609 -1.7354408,5.6174519 -6e-7,8.035443 z"
         style="fill:context-stroke;fill-rule:evenodd;stroke:context-stroke;stroke-width:0.625;stroke-linejoin:round"
         id="path1036-6-3" />
    </marker>
  </defs>
  <g
     inkscape:label="Layer 1"
     inkscape:groupmode="layer"
     id="layer1">
    <g
       id="g2623" />
    <path
       style="color:#000000;fill:#ffffff;-inkscape-stroke:none;opacity:0.992"
       d="m 46.572266,116.4375 -45.4746098,78.75195 90.9394528,0.006 -8.046875,-13.9375 z m -0.002,37.16992 13.279297,23.00195 h -26.5625 z"
       id="path926"
       transform="matrix(0.1992184,0,0,0.1992184,26.356183,18.162558)" />
    <path
       style="color:#000000;fill:#ffffff;-inkscape-stroke:none;opacity:0.992"
       d="m 46.572266,116.4375 -45.4746098,78.75195 90.9394528,0.006 -8.046875,-13.9375 z m -0.002,37.16992 13.279297,23.00195 h -26.5625 z"
       id="path926-3"
       transform="matrix(0.1992184,0,0,0.1992184,8.2395761,18.162558)" />
    <path
       style="color:#000000;fill:#ffffff;-inkscape-stroke:none;opacity:0.992"
       d="m 46.572266,116.4375 -45.4746098,78.75195 90.9394528,0.006 -8.046875,-13.9375 z m -0.002,37.16992 13.279297,23.00195 h -26.5625 z"
       id="path926-6"
       transform="matrix(0.1992184,0,0,0.1992184,44.472792,18.162558)" />
    <g
       id="path1743">
      <path
         style="color:#000000;fill:#ffffff;-inkscape-stroke:none"
         d="M 55.681641,6.5136719 54.0625,7.0097656 c 5.27081,17.1743374 0.01758,30.8808594 0.01758,30.8808594 l 1.582031,0.605469 c 0,0 5.457724,-14.262688 0.01953,-31.9824221 z"
         id="path869" />
      <g
         id="g859">
        <g
           id="path861">
          <path
             style="color:#000000;fill:#ffffff;fill-rule:evenodd;stroke-width:0.6351;stroke-linejoin:round;-inkscape-stroke:none"
             d="m 61.8678,31.384767 -7.782821,8.908417 0.157426,-11.828247 c 1.616755,2.518359 4.700189,3.688089 7.625395,2.91983 z"
             id="path865" />
          <path
             style="color:#000000;fill:#ffffff;fill-rule:evenodd;stroke-linejoin:round;-inkscape-stroke:none"
             d="m 54.154297,28.160156 a 0.31758176,0.31758176 0 0 0 -0.228516,0.300781 l -0.158203,11.828125 a 0.31758176,0.31758176 0 0 0 0.556641,0.212891 l 7.783203,-8.908203 a 0.31758176,0.31758176 0 0 0 -0.320313,-0.515625 c -2.795581,0.734215 -5.735601,-0.383642 -7.277343,-2.785156 a 0.31758176,0.31758176 0 0 0 -0.355469,-0.132813 z m 0.394531,1.115235 c 1.599556,1.925243 4.053656,2.855864 6.554688,2.501953 l -6.689454,7.65625 z"
             id="path867" />
        </g>
      </g>
    </g>
    <g
       id="path1743-7">
      <path
         style="color:#000000;fill:#ffffff;-inkscape-stroke:none"
         d="m 28.664062,6.4277344 -1.435546,0.8984375 c 9.528766,15.2129921 8.009765,30.6875001 8.009765,30.6875001 l 1.685547,0.166015 c 0,0 1.586818,-16.031554 -8.259766,-31.7519526 z"
         id="path855" />
      <g
         id="g845">
        <g
           id="path847">
          <path
             style="color:#000000;fill:#ffffff;fill-rule:evenodd;stroke-width:0.6351;stroke-linejoin:round;-inkscape-stroke:none"
             d="M 41.028883,29.681572 35.876786,40.329956 32.902971,28.880562 c 2.224768,2.001608 5.507701,2.314953 8.125912,0.80101 z"
             id="path851" />
          <path
             style="color:#000000;fill:#ffffff;fill-rule:evenodd;stroke-linejoin:round;-inkscape-stroke:none"
             d="m 32.738281,28.609375 a 0.31758176,0.31758176 0 0 0 -0.142578,0.351562 l 2.974609,11.449219 a 0.31758176,0.31758176 0 0 0 0.591797,0.05859 L 41.314453,29.820312 A 0.31758176,0.31758176 0 0 0 40.869141,29.40625 c -2.502191,1.446856 -5.632362,1.14702 -7.753907,-0.761719 a 0.31758176,0.31758176 0 0 0 -0.376953,-0.03516 z m 0.675781,0.972656 c 2.051295,1.433519 4.662241,1.683673 6.980469,0.681641 l -4.427734,9.152344 z"
             id="path853" />
        </g>
      </g>
    </g>
    <g
       id="path1743-7-5">
      <path
         style="color:#000000;fill:#ffffff;-inkscape-stroke:none"
         d="M 2.0253906,6.2578125 0.87109375,7.4960937 C 13.956483,19.672285 16.324219,38.208984 16.324219,38.208984 l 1.679687,-0.210937 c 0,0 -2.342605,-19.051774 -15.9785154,-31.7402345 z"
         id="path841" />
      <g
         id="g831">
        <g
           id="path833">
          <path
             style="color:#000000;fill:#ffffff;fill-rule:evenodd;stroke-width:0.6351;stroke-linejoin:round;-inkscape-stroke:none"
             d="m 20.129997,28.803857 -2.67077,11.523852 -5.431185,-10.508778 c 2.612195,1.460297 5.883179,1.040183 8.101955,-1.015074 z"
             id="path837" />
          <path
             style="color:#000000;fill:#ffffff;fill-rule:evenodd;stroke-linejoin:round;-inkscape-stroke:none"
             d="m 20.162109,28.488281 a 0.31758176,0.31758176 0 0 0 -0.248047,0.08203 c -2.120455,1.964183 -5.239472,2.363247 -7.730468,0.970704 a 0.31758176,0.31758176 0 0 0 -0.4375,0.423828 l 5.43164,10.507812 a 0.31758176,0.31758176 0 0 0 0.591797,-0.07422 L 20.439453,28.875 a 0.31758176,0.31758176 0 0 0 -0.277344,-0.386719 z m -0.521484,1.021485 -2.294922,9.904296 -4.666015,-9.02539 c 2.317989,0.945393 4.921082,0.611469 6.960937,-0.878906 z"
             id="path839" />
        </g>
      </g>
    </g>
  </g>
</svg>
