<?xml version="1.0" encoding="UTF-8" standalone="no"?>
<svg
   version="1.1"
   width="24"
   height="24"
   viewBox="0 0 28.8 28.8"
   id="svg4"
   sodipodi:docname="lyric-start.svg"
   inkscape:version="1.2.2 (b0a8486541, 2022-12-01)"
   inkscape:export-filename="/home/lino/prj/Project-Heartbeat/graphics/icons/lyric-start.png"
   inkscape:export-xdpi="960"
   inkscape:export-ydpi="960"
   xmlns:inkscape="http://www.inkscape.org/namespaces/inkscape"
   xmlns:sodipodi="http://sodipodi.sourceforge.net/DTD/sodipodi-0.dtd"
   xmlns="http://www.w3.org/2000/svg"
   xmlns:svg="http://www.w3.org/2000/svg">
  <defs
     id="defs8">
    <inkscape:path-effect
       effect="powerclip"
       id="path-effect824"
       is_visible="true"
       lpeversion="1"
       inverse="true"
       flatten="false"
       hide_clip="false"
       message="Use fill-rule evenodd on &lt;b&gt;fill and stroke&lt;/b&gt; dialog if no flatten result after convert clip to paths." />
    <clipPath
       clipPathUnits="userSpaceOnUse"
       id="clipPath820">
      <path
         id="lpe_path-effect824"
         style="opacity:0.992;fill:#ffffff;stroke:#000000;stroke-width:0"
         class="powerclip"
         d="M 1,-2 H 23 V 26 H 1 Z m 16.493125,21.6656 a 2.7460001,2.7460001 0 0 0 -2.746,-2.746 2.7460001,2.7460001 0 0 0 -2.746,2.746 2.7460001,2.7460001 0 0 0 2.746,2.746 2.7460001,2.7460001 0 0 0 2.746,-2.746 z" />
    </clipPath>
  </defs>
  <sodipodi:namedview
     id="namedview6"
     pagecolor="#ffffff"
     bordercolor="#666666"
     borderopacity="1.0"
     inkscape:pageshadow="2"
     inkscape:pageopacity="0.0"
     inkscape:pagecheckerboard="true"
     showgrid="false"
     inkscape:snap-nodes="true"
     inkscape:snap-bbox="false"
     inkscape:bbox-nodes="true"
     inkscape:snap-page="true"
     inkscape:zoom="16"
     inkscape:cx="5"
     inkscape:cy="11.5625"
     inkscape:window-width="945"
     inkscape:window-height="1040"
     inkscape:window-x="965"
     inkscape:window-y="10"
     inkscape:window-maximized="1"
     inkscape:current-layer="svg4"
     width="240px"
     scale-x="1.2"
     inkscape:showpageshadow="0"
     inkscape:deskcolor="#d1d1d1" />
  <path
     d="M 12,3 V 13.55 C 11.41,13.21 10.73,13 10,13 c -2.21,0 -4,1.79 -4,4 0,2.21 1.79,4 4,4 2.21,0 4,-1.79 4,-4 V 7 h 4 V 3 Z"
     id="path2"
     clip-path="url(#clipPath820)"
     style="fill:#ffffff"
     transform="translate(2.4,1.952008)" />
  <path
     d="m 19.399293,21.922743 h -1.925249 v 1.925249 h -0.64175 v -1.925249 h -1.925249 v -0.64175 h 1.925249 v -1.925249 h 0.64175 v 1.925249 h 1.925249 z"
     id="path10"
     style="fill:#ffffff;fill-opacity:1;stroke-width:0.320875" />
</svg>
