<?xml version="1.0" encoding="UTF-8" standalone="no"?>
<svg
   xmlns:dc="http://purl.org/dc/elements/1.1/"
   xmlns:cc="http://creativecommons.org/ns#"
   xmlns:rdf="http://www.w3.org/1999/02/22-rdf-syntax-ns#"
   xmlns:svg="http://www.w3.org/2000/svg"
   xmlns="http://www.w3.org/2000/svg"
   xmlns:sodipodi="http://sodipodi.sourceforge.net/DTD/sodipodi-0.dtd"
   xmlns:inkscape="http://www.inkscape.org/namespaces/inkscape"
   version="1.1"
   width="24"
   height="24"
   viewBox="0 0 24 24"
   id="svg922"
   sodipodi:docname="metronome.svg"
   inkscape:version="1.0.2 (e86c870879, 2021-01-15)">
  <metadata
     id="metadata928">
    <rdf:RDF>
      <cc:Work
         rdf:about="">
        <dc:format>image/svg+xml</dc:format>
        <dc:type
           rdf:resource="http://purl.org/dc/dcmitype/StillImage" />
        <dc:title></dc:title>
      </cc:Work>
    </rdf:RDF>
  </metadata>
  <defs
     id="defs926" />
  <sodipodi:namedview
     pagecolor="#ffffff"
     bordercolor="#666666"
     borderopacity="1"
     objecttolerance="10"
     gridtolerance="10"
     guidetolerance="10"
     inkscape:pageopacity="0"
     inkscape:pageshadow="2"
     inkscape:window-width="1900"
     inkscape:window-height="1040"
     id="namedview924"
     showgrid="false"
     inkscape:zoom="32"
     inkscape:cx="11.951906"
     inkscape:cy="14.132294"
     inkscape:window-x="10"
     inkscape:window-y="10"
     inkscape:window-maximized="0"
     inkscape:current-layer="svg922" />
  <path
     d="M 11.563571,4.6352592 9.0686512,5.3044505 5.7881594,17.568107 c -0.021822,0.109108 -0.043643,0.225488 -0.043643,0.34187 0,0.807393 0.6473698,1.454764 1.4547636,1.454764 h 8.728582 c 0.807393,0 1.454764,-0.647371 1.454764,-1.454764 0,-0.116382 -0.02182,-0.232762 -0.04364,-0.34187 l -0.989239,-3.716921 -1.149264,1.149264 0.145477,0.727382 h -2.756777 l 2.065764,-2.065765 -1.025608,-1.025608 -3.091373,3.091373 H 7.7811854 L 10.319748,6.2718682 h 2.487646 L 13.869372,10.221551 15.055004,9.0286453 14.058491,5.3044505 11.563571,4.6352592 M 11.018034,6.99925 v 7.091973 l 1.091073,-1.091074 V 6.99925 h -1.091073 m 6.211841,2.0366689 -2.05849,2.0584901 -0.516441,-0.51644 -1.025609,1.032882 2.051217,2.051216 1.032882,-1.025608 -0.51644,-0.516441 2.05849,-2.058491 z"
     id="path920"
     style="fill:#ffffff;fill-opacity:1;stroke-width:0.727382" />
</svg>
