<?xml version="1.0" encoding="UTF-8" standalone="no"?>
<svg
   viewBox="0 0 16 16"
   version="1.1"
   id="svg913"
   sodipodi:docname="music.svg"
   inkscape:version="1.1.2 (0a00cf5339, 2022-02-04)"
   width="16"
   height="16"
   xmlns:inkscape="http://www.inkscape.org/namespaces/inkscape"
   xmlns:sodipodi="http://sodipodi.sourceforge.net/DTD/sodipodi-0.dtd"
   xmlns="http://www.w3.org/2000/svg"
   xmlns:svg="http://www.w3.org/2000/svg">
  <defs
     id="defs917" />
  <sodipodi:namedview
     id="namedview915"
     pagecolor="#505050"
     bordercolor="#eeeeee"
     borderopacity="1"
     inkscape:pageshadow="0"
     inkscape:pageopacity="0"
     inkscape:pagecheckerboard="0"
     showgrid="false"
     inkscape:zoom="21.375"
     inkscape:cx="11.976608"
     inkscape:cy="12"
     inkscape:window-width="1346"
     inkscape:window-height="728"
     inkscape:window-x="10"
     inkscape:window-y="10"
     inkscape:window-maximized="1"
     inkscape:current-layer="svg913" />
  <path
     d="m 14.5,1 v 9.722222 A 2.3947368,2.7222222 0 0 1 12.105263,13.444445 2.3947368,2.7222222 0 0 1 9.710526,10.722222 2.3947368,2.7222222 0 0 1 12.105263,8 c 0.369474,0 0.718421,0.093333 1.026316,0.2644445 V 3.6988888 L 6.2894737,5.3555555 V 12.277778 A 2.3947368,2.7222222 0 0 1 3.8947368,15 2.3947368,2.7222222 0 0 1 1.5,12.277778 2.3947368,2.7222222 0 0 1 3.8947368,9.555555 c 0.3694737,0 0.7184211,0.09333 1.0263158,0.264445 V 3.3333333 Z"
     id="path911"
     style="fill:#ffffff;fill-opacity:1;stroke-width:0.729495" />
</svg>
