<?xml version="1.0" encoding="UTF-8" standalone="no"?>
<svg
   version="1.1"
   width="24"
   height="24"
   viewBox="0 0 24 24"
   id="svg4"
   sodipodi:docname="rotate-relative-right.svg"
   inkscape:version="1.1.1 (3bf5ae0d25, 2021-09-20)"
   xmlns:inkscape="http://www.inkscape.org/namespaces/inkscape"
   xmlns:sodipodi="http://sodipodi.sourceforge.net/DTD/sodipodi-0.dtd"
   xmlns="http://www.w3.org/2000/svg"
   xmlns:svg="http://www.w3.org/2000/svg">
  <defs
     id="defs8" />
  <sodipodi:namedview
     id="namedview6"
     pagecolor="#505050"
     bordercolor="#eeeeee"
     borderopacity="1"
     inkscape:pageshadow="0"
     inkscape:pageopacity="0"
     inkscape:pagecheckerboard="0"
     showgrid="false"
     inkscape:snap-nodes="true"
     inkscape:snap-bbox="false"
     inkscape:snap-bbox-edge-midpoints="true"
     inkscape:bbox-paths="false"
     inkscape:snap-center="true"
     inkscape:zoom="11.520833"
     inkscape:cx="9.8517179"
     inkscape:cy="8.7233273"
     inkscape:window-width="1346"
     inkscape:window-height="728"
     inkscape:window-x="10"
     inkscape:window-y="10"
     inkscape:window-maximized="1"
     inkscape:current-layer="svg4" />
  <path
     d="m 20.395817,14.895037 a 4.0942008,4.0942008 0 0 1 -5.790074,0 C 14.123237,14.412531 13.775832,13.823874 13.59248,13.206265 h -1.408918 c 0.217128,0.969838 0.699634,1.89625 1.457169,2.653784 a 5.4589344,5.4589344 0 0 0 7.720098,0 l 1.447519,1.447519 v -3.86005 h -3.86005 M 13.640731,8.1399505 12.193212,6.6924319 v 3.8600491 h 3.86005 L 14.605743,9.1049628 a 4.0942008,4.0942008 0 0 1 5.790074,0 c 0.482506,0.4825062 0.829911,1.0711642 1.013263,1.6887712 h 1.408918 C 22.600871,9.823897 22.118364,8.8974852 21.360829,8.1399505 a 5.4589344,5.4589344 0 0 0 -7.720098,0 z"
     id="path2"
     style="fill:#ffffff;fill-opacity:1;stroke-width:0.682367" />
  <path
     style="fill:none;stroke:#ffffff;stroke-width:1.5;stroke-linecap:butt;stroke-linejoin:miter;stroke-miterlimit:4;stroke-dasharray:none;stroke-opacity:1"
     d="M 1.182002,12 H 22.817998"
     id="path1110" />
</svg>
