<?xml version="1.0" encoding="UTF-8" standalone="no"?>
<svg
   version="1.1"
   width="24"
   height="24"
   viewBox="0 0 24 24"
   id="svg4"
   sodipodi:docname="rotate-relative-center.svg"
   inkscape:version="1.1.1 (3bf5ae0d25, 2021-09-20)"
   xmlns:inkscape="http://www.inkscape.org/namespaces/inkscape"
   xmlns:sodipodi="http://sodipodi.sourceforge.net/DTD/sodipodi-0.dtd"
   xmlns="http://www.w3.org/2000/svg"
   xmlns:svg="http://www.w3.org/2000/svg">
  <defs
     id="defs8" />
  <sodipodi:namedview
     id="namedview6"
     pagecolor="#505050"
     bordercolor="#eeeeee"
     borderopacity="1"
     inkscape:pageshadow="0"
     inkscape:pageopacity="0"
     inkscape:pagecheckerboard="0"
     showgrid="false"
     inkscape:snap-nodes="true"
     inkscape:snap-bbox="false"
     inkscape:snap-bbox-edge-midpoints="true"
     inkscape:bbox-paths="false"
     inkscape:snap-center="true"
     inkscape:zoom="11.520833"
     inkscape:cx="9.8517179"
     inkscape:cy="8.7233273"
     inkscape:window-width="1346"
     inkscape:window-height="728"
     inkscape:window-x="10"
     inkscape:window-y="10"
     inkscape:window-maximized="1"
     inkscape:current-layer="svg4" />
  <path
     d="m 14.895037,14.895037 a 4.0942008,4.0942008 0 0 1 -5.7900741,0 C 8.6224567,14.412531 8.2750522,13.823874 8.0916999,13.206265 H 6.6827818 c 0.2171278,0.969838 0.699634,1.89625 1.4571688,2.653784 a 5.4589344,5.4589344 0 0 0 7.7200984,0 l 1.447519,1.447519 v -3.86005 h -3.86005 M 8.1399506,8.1399505 6.6924319,6.6924319 V 10.552481 H 10.552482 L 9.1049629,9.1049628 a 4.0942008,4.0942008 0 0 1 5.7900741,0 c 0.482506,0.4825062 0.829911,1.0711642 1.013263,1.6887712 h 1.408918 C 17.100091,9.823897 16.617584,8.8974852 15.860049,8.1399505 a 5.4589344,5.4589344 0 0 0 -7.7200984,0 z"
     id="path2"
     style="fill:#ffffff;fill-opacity:1;stroke-width:0.682367" />
  <path
     style="fill:none;stroke:#ffffff;stroke-width:1.5;stroke-linecap:butt;stroke-linejoin:miter;stroke-miterlimit:4;stroke-dasharray:none;stroke-opacity:1"
     d="M 1.182002,12 H 22.817998"
     id="path1110" />
</svg>
