<?xml version="1.0" encoding="UTF-8" standalone="no"?>
<svg
   version="1.1"
   width="24"
   height="24"
   viewBox="0 0 24 24"
   id="svg4"
   sodipodi:docname="rotate-relative-left.svg"
   inkscape:version="1.1.1 (3bf5ae0d25, 2021-09-20)"
   xmlns:inkscape="http://www.inkscape.org/namespaces/inkscape"
   xmlns:sodipodi="http://sodipodi.sourceforge.net/DTD/sodipodi-0.dtd"
   xmlns="http://www.w3.org/2000/svg"
   xmlns:svg="http://www.w3.org/2000/svg">
  <defs
     id="defs8" />
  <sodipodi:namedview
     id="namedview6"
     pagecolor="#505050"
     bordercolor="#eeeeee"
     borderopacity="1"
     inkscape:pageshadow="0"
     inkscape:pageopacity="0"
     inkscape:pagecheckerboard="0"
     showgrid="false"
     inkscape:snap-nodes="true"
     inkscape:snap-bbox="false"
     inkscape:snap-bbox-edge-midpoints="true"
     inkscape:bbox-paths="false"
     inkscape:snap-center="true"
     inkscape:zoom="11.520833"
     inkscape:cx="9.8517179"
     inkscape:cy="8.7233273"
     inkscape:window-width="1346"
     inkscape:window-height="728"
     inkscape:window-x="10"
     inkscape:window-y="10"
     inkscape:window-maximized="1"
     inkscape:current-layer="svg4" />
  <path
     d="m 9.3942572,14.895037 a 4.0942008,4.0942008 0 0 1 -5.7900741,0 C 3.1216769,14.412531 2.7742724,13.823874 2.5909201,13.206265 H 1.182002 c 0.2171278,0.969838 0.699634,1.89625 1.4571688,2.653784 a 5.4589344,5.4589344 0 0 0 7.7200982,0 l 1.447519,1.447519 v -3.86005 H 7.9467382 M 2.6391708,8.1399505 1.1916521,6.6924319 V 10.552481 H 5.0517022 L 3.6041831,9.1049628 a 4.0942008,4.0942008 0 0 1 5.7900741,0 C 9.8767632,9.587469 10.224168,10.176127 10.40752,10.793734 h 1.408918 C 11.599311,9.823897 11.116804,8.8974852 10.359269,8.1399505 a 5.4589344,5.4589344 0 0 0 -7.7200982,0 z"
     id="path2"
     style="fill:#ffffff;fill-opacity:1;stroke-width:0.682367" />
  <path
     style="fill:none;stroke:#ffffff;stroke-width:1.5;stroke-linecap:butt;stroke-linejoin:miter;stroke-miterlimit:4;stroke-dasharray:none;stroke-opacity:1"
     d="M 1.182002,12 H 22.817998"
     id="path1110" />
</svg>
