<?xml version="1.0" encoding="UTF-8" standalone="no"?>
<svg
   xmlns:dc="http://purl.org/dc/elements/1.1/"
   xmlns:cc="http://creativecommons.org/ns#"
   xmlns:rdf="http://www.w3.org/1999/02/22-rdf-syntax-ns#"
   xmlns:svg="http://www.w3.org/2000/svg"
   xmlns="http://www.w3.org/2000/svg"
   xmlns:sodipodi="http://sodipodi.sourceforge.net/DTD/sodipodi-0.dtd"
   xmlns:inkscape="http://www.inkscape.org/namespaces/inkscape"
   version="1.1"
   width="24"
   height="24"
   viewBox="0 0 24 24"
   id="svg4"
   sodipodi:docname="tools.svg"
   inkscape:version="0.92.4 5da689c313, 2019-01-14">
  <metadata
     id="metadata10">
    <rdf:RDF>
      <cc:Work
         rdf:about="">
        <dc:format>image/svg+xml</dc:format>
        <dc:type
           rdf:resource="http://purl.org/dc/dcmitype/StillImage" />
      </cc:Work>
    </rdf:RDF>
  </metadata>
  <defs
     id="defs8" />
  <sodipodi:namedview
     pagecolor="#ffffff"
     bordercolor="#666666"
     borderopacity="1"
     objecttolerance="10"
     gridtolerance="10"
     guidetolerance="10"
     inkscape:pageopacity="0"
     inkscape:pageshadow="2"
     inkscape:window-width="894"
     inkscape:window-height="480"
     id="namedview6"
     showgrid="false"
     inkscape:zoom="9.8333333"
     inkscape:cx="12"
     inkscape:cy="12"
     inkscape:window-x="0"
     inkscape:window-y="0"
     inkscape:window-maximized="0"
     inkscape:current-layer="svg4" />
  <path
     d="M21.71 20.29L20.29 21.71A1 1 0 0 1 18.88 21.71L7 9.85A3.81 3.81 0 0 1 6 10A4 4 0 0 1 2.22 4.7L4.76 7.24L5.29 6.71L6.71 5.29L7.24 4.76L4.7 2.22A4 4 0 0 1 10 6A3.81 3.81 0 0 1 9.85 7L21.71 18.88A1 1 0 0 1 21.71 20.29M2.29 18.88A1 1 0 0 0 2.29 20.29L3.71 21.71A1 1 0 0 0 5.12 21.71L10.59 16.25L7.76 13.42M20 2L16 4V6L13.83 8.17L15.83 10.17L18 8H20L22 4Z"
     id="path2"
     style="fill:#ffffff;fill-opacity:1" />
</svg>
