<svg xmlns:dc="http://purl.org/dc/elements/1.1/" xmlns:cc="http://creativecommons.org/ns#" xmlns:rdf="http://www.w3.org/1999/02/22-rdf-syntax-ns#" xmlns:svg="http://www.w3.org/2000/svg" xmlns="http://www.w3.org/2000/svg" xmlns:sodipodi="http://sodipodi.sourceforge.net/DTD/sodipodi-0.dtd" xmlns:inkscape="http://www.inkscape.org/namespaces/inkscape" viewBox="0 0 100 100" height="100" width="100" version="1.1" id="svg45" inkscape:version="0.92.4 5da689c313, 2019-01-14">
   <svg:path id="background_path" style="fill:#ffffff;fill-opacity:1;stroke:#ffffff;stroke-width:7.0;stroke-opacity:1;filter:url(#backFilter);" d="m 27.775913,23.57271 v 52.85458 h 26.159693 c 4.474678,0 8.174902,-0.358471 11.186697,-1.240214 v 0 c 3.011819,-0.798662 5.50731,-1.898653 7.486498,-3.32221 1.979237,-1.442578 3.356021,-3.13606 4.302577,-5.173741 a 11.038913,12.828033 0 0 0 0,-0.01758 13.724593,15.948991 0 0 0 0,-0.01758 c 0.77443,-1.905547 1.204809,-3.979792 1.204809,-6.144428 0,-3.789125 -1.376961,-6.767451 -4.044427,-9.027192 a 12.994901,15.101035 0 0 0 0,-0.01172 15.192866,17.655233 0 0 0 0,-0.01172 c -1.807086,-1.423436 -4.044425,-2.314581 -6.539916,-2.970654 2.065314,-0.764489 3.872325,-1.708509 5.163083,-3.097604 2.065314,-2.192048 3.09787,-4.773896 3.09787,-7.894398 0,-2.616307 -0.516203,-4.816276 -1.721011,-6.72645 a 9.6041166,11.160693 0 0 0 0,-0.0098 10.513981,12.218023 0 0 0 0,-0.0078 c -1.118783,-1.795765 -2.753769,-3.253047 -4.732931,-4.31438 -1.979188,-1.047641 -4.302603,-1.78045 -6.970195,-2.216759 -2.667592,-0.434039 -5.50731,-0.650379 -8.605155,-0.650379 z m 14.112465,10.111158 h 7.228347 c 3.614148,0 8.002801,0.521803 9.465661,1.335915 1.204809,0.725608 1.807086,1.917587 1.807086,3.757749 0,1.783913 -0.688354,3.059232 -2.151389,3.810484 -1.54886,0.829623 -6.195715,1.353491 -10.326192,1.353491 h -6.023613 z m 0,20.384422 h 8.260954 c 1.634935,0 4.818881,0.14323 6.195715,0.341792 1.204808,0.262209 2.237465,0.647113 3.18392,1.150371 0.77443,0.429183 1.376707,1.056876 1.893163,1.867156 0.430379,0.700267 0.688353,1.583872 0.688353,2.730423 0,2.42117 -0.860506,3.810243 -2.581542,4.646407 -2.065313,1.019957 -6.539916,1.511693 -10.068039,1.511693 h -7.572548 z"/>
    <defs><filter inkscape:collect="always" style="color-interpolation-filters:sRGB" id="backFilter" x="-1" width="40" y="-1" height="40">
      <feGaussianBlur inkscape:collect="always" stdDeviation="7.0858655" id="gaussianBlurBack"/>
    </filter></defs>
  <sodipodi:namedview pagecolor="#ffffff" bordercolor="#666666" borderopacity="1" objecttolerance="10" gridtolerance="10" guidetolerance="10" inkscape:pageopacity="0" inkscape:pageshadow="2" inkscape:window-width="2560" inkscape:window-height="1080" id="namedview47" showgrid="false" inkscape:zoom="3.9506912" inkscape:cx="72.194105" inkscape:cy="20.670582" inkscape:window-x="0" inkscape:window-y="0" inkscape:window-maximized="0" inkscape:current-layer="svg45"/>
<svg:path id="main_path" style="fill:#272646;fill-opacity:1;stroke:#ffffff;stroke-width:5;stroke-opacity:1;stroke-miterlimit:4;stroke-dasharray:none" d="m 27.775913,23.57271 v 52.85458 h 26.159693 c 4.474678,0 8.174902,-0.358471 11.186697,-1.240214 v 0 c 3.011819,-0.798662 5.50731,-1.898653 7.486498,-3.32221 1.979237,-1.442578 3.356021,-3.13606 4.302577,-5.173741 a 11.038913,12.828033 0 0 0 0,-0.01758 13.724593,15.948991 0 0 0 0,-0.01758 c 0.77443,-1.905547 1.204809,-3.979792 1.204809,-6.144428 0,-3.789125 -1.376961,-6.767451 -4.044427,-9.027192 a 12.994901,15.101035 0 0 0 0,-0.01172 15.192866,17.655233 0 0 0 0,-0.01172 c -1.807086,-1.423436 -4.044425,-2.314581 -6.539916,-2.970654 2.065314,-0.764489 3.872325,-1.708509 5.163083,-3.097604 2.065314,-2.192048 3.09787,-4.773896 3.09787,-7.894398 0,-2.616307 -0.516203,-4.816276 -1.721011,-6.72645 a 9.6041166,11.160693 0 0 0 0,-0.0098 10.513981,12.218023 0 0 0 0,-0.0078 c -1.118783,-1.795765 -2.753769,-3.253047 -4.732931,-4.31438 -1.979188,-1.047641 -4.302603,-1.78045 -6.970195,-2.216759 -2.667592,-0.434039 -5.50731,-0.650379 -8.605155,-0.650379 z m 14.112465,10.111158 h 7.228347 c 3.614148,0 8.002801,0.521803 9.465661,1.335915 1.204809,0.725608 1.807086,1.917587 1.807086,3.757749 0,1.783913 -0.688354,3.059232 -2.151389,3.810484 -1.54886,0.829623 -6.195715,1.353491 -10.326192,1.353491 h -6.023613 z m 0,20.384422 h 8.260954 c 1.634935,0 4.818881,0.14323 6.195715,0.341792 1.204808,0.262209 2.237465,0.647113 3.18392,1.150371 0.77443,0.429183 1.376707,1.056876 1.893163,1.867156 0.430379,0.700267 0.688353,1.583872 0.688353,2.730423 0,2.42117 -0.860506,3.810243 -2.581542,4.646407 -2.065313,1.019957 -6.539916,1.511693 -10.068039,1.511693 h -7.572548 z"/>
    <svg:path id="main_path-7-5" style="font-style:normal;font-variant:normal;font-weight:bold;font-stretch:condensed;font-size:82.4767px;line-height:1.25;font-family:'Helvetica Neue';-inkscape-font-specification:'Helvetica Neue Bold Condensed';letter-spacing:0px;word-spacing:0px;fill:#9294a8;fill-opacity:1;stroke:none;stroke-width:2.15039;stroke-opacity:1" d="m 33.066406,28.863281 v 42.273438 h 20.869141 c 4.227392,0 7.346194,-0.337893 9.701172,-1.027344 l 0.06445,-0.01953 0.06641,-0.01758 c 2.554143,-0.677298 4.399968,-1.534113 5.736328,-2.492188 1.186031,-0.867387 1.97016,-1.857632 2.515625,-2.96875 0.512092,-1.27731 0.804688,-2.657557 0.804688,-4.099609 0,-2.17853 -0.832767,-3.839188 -2.158203,-4.970703 -1.025501,-0.773664 -2.422387,-1.392517 -4.480469,-1.933594 l -16.208985,-4.261719 15.71875,-5.818359 c 1.726537,-0.639088 2.587781,-1.160282 3.123047,-1.736328 l 0.01367,-0.01367 0.01172,-0.01367 c 1.042006,-1.105946 1.658203,-2.603882 1.658203,-4.265625 0,-1.83378 -0.390716,-3.090036 -0.904297,-3.904297 l -0.05664,-0.08984 C 68.971652,32.611872 68.084329,31.776764 66.847656,31.111328 65.471404,30.384814 63.73508,29.808325 61.515625,29.445312 59.16728,29.063219 56.61323,28.863281 53.763672,28.863281 Z" sodipodi:nodetypes="ccsssccccscccccsccccccc"/>
    <svg:path id="main_path-7-8" style="font-style:normal;font-variant:normal;font-weight:bold;font-stretch:condensed;font-size:82.4767px;line-height:1.25;font-family:'Helvetica Neue';-inkscape-font-specification:'Helvetica Neue Bold Condensed';letter-spacing:0px;word-spacing:0px;fill:#272646;fill-opacity:1;stroke:none;stroke-width:2.15039;stroke-opacity:1" d="m 41.888378,33.683868 h 7.228347 c 3.614148,0 8.002801,0.521803 9.465661,1.335915 1.204809,0.725608 1.807086,1.917587 1.807086,3.757749 0,1.783913 -0.688354,3.059232 -2.151389,3.810484 -1.54886,0.829623 -6.195715,1.353491 -10.326192,1.353491 h -6.023613 z m 0,20.384422 h 8.260954 c 1.634935,0 4.818881,0.14323 6.195715,0.341792 1.204808,0.262209 2.237465,0.647113 3.18392,1.150371 0.77443,0.429183 1.376707,1.056876 1.893163,1.867156 0.430379,0.700267 0.688353,1.583872 0.688353,2.730423 0,2.42117 -0.860506,3.810243 -2.581542,4.646407 -2.065313,1.019957 -6.539916,1.511693 -10.068039,1.511693 h -7.572548 z" sodipodi:nodetypes="cscscscccscccscscc"/>
  </svg>