<svg xmlns:dc="http://purl.org/dc/elements/1.1/" xmlns:cc="http://creativecommons.org/ns#" xmlns:rdf="http://www.w3.org/1999/02/22-rdf-syntax-ns#" xmlns:svg="http://www.w3.org/2000/svg" xmlns="http://www.w3.org/2000/svg" xmlns:sodipodi="http://sodipodi.sourceforge.net/DTD/sodipodi-0.dtd" xmlns:inkscape="http://www.inkscape.org/namespaces/inkscape" viewBox="0 0 100 100" height="100" width="100" version="1.1" id="svg45" inkscape:version="0.92.4 5da689c313, 2019-01-14">
   <svg:path id="background_path" style="fill:#ffffff;fill-opacity:1;stroke:#ffffff;stroke-width:7.0;stroke-opacity:1;filter:url(#backFilter);" d="m 27.775913,23.57271 v 52.85458 h 26.159693 c 4.474678,0 8.174902,-0.358471 11.186697,-1.240214 v 0 c 3.011819,-0.798662 5.50731,-1.898653 7.486498,-3.32221 1.979237,-1.442578 3.356021,-3.13606 4.302577,-5.173741 v -0.01758 -0.01758 c 0.77443,-1.905547 1.204809,-3.979792 1.204809,-6.144428 0,-3.789125 -1.376961,-6.767451 -4.044427,-9.027192 v -0.01172 -0.01172 c -1.807086,-1.423436 -4.044425,-2.314581 -6.539916,-2.970654 2.065314,-0.764489 3.872325,-1.708509 5.163083,-3.097604 2.065314,-2.192048 3.09787,-4.773896 3.09787,-7.894398 0,-2.616307 -0.516203,-4.816276 -1.721011,-6.72645 v -0.0098 -0.0078 c -1.118783,-1.795765 -2.753769,-3.253047 -4.732931,-4.31438 -1.979188,-1.047641 -4.302603,-1.78045 -6.970195,-2.216759 -2.667592,-0.434039 -5.50731,-0.650379 -8.605155,-0.650379 z" sodipodi:nodetypes="ccsssccccscccccsccccccc"/>
  <defs><filter inkscape:collect="always" style="color-interpolation-filters:sRGB" id="backFilter" x="-1" width="40" y="-1" height="40">
      <feGaussianBlur inkscape:collect="always" stdDeviation="7.0858655" id="gaussianBlurBack"/>
    </filter></defs>
  <sodipodi:namedview pagecolor="#ffffff" bordercolor="#666666" borderopacity="1" objecttolerance="10" gridtolerance="10" guidetolerance="10" inkscape:pageopacity="0" inkscape:pageshadow="2" inkscape:window-width="2560" inkscape:window-height="1080" id="namedview47" showgrid="false" inkscape:zoom="3.9506912" inkscape:cx="72.194105" inkscape:cy="20.670582" inkscape:window-x="0" inkscape:window-y="0" inkscape:window-maximized="0" inkscape:current-layer="svg45"/>
<svg:path id="main_path" style="fill:#272646;fill-opacity:1;stroke:#ffffff;stroke-width:5;stroke-opacity:1;stroke-miterlimit:4;stroke-dasharray:none" d="m 27.775913,23.57271 v 52.85458 h 26.159693 c 4.474678,0 8.174902,-0.358471 11.186697,-1.240214 v 0 c 3.011819,-0.798662 5.50731,-1.898653 7.486498,-3.32221 1.979237,-1.442578 3.356021,-3.13606 4.302577,-5.173741 v -0.01758 -0.01758 c 0.77443,-1.905547 1.204809,-3.979792 1.204809,-6.144428 0,-3.789125 -1.376961,-6.767451 -4.044427,-9.027192 v -0.01172 -0.01172 c -1.807086,-1.423436 -4.044425,-2.314581 -6.539916,-2.970654 2.065314,-0.764489 3.872325,-1.708509 5.163083,-3.097604 2.065314,-2.192048 3.09787,-4.773896 3.09787,-7.894398 0,-2.616307 -0.516203,-4.816276 -1.721011,-6.72645 v -0.0098 -0.0078 c -1.118783,-1.795765 -2.753769,-3.253047 -4.732931,-4.31438 -1.979188,-1.047641 -4.302603,-1.78045 -6.970195,-2.216759 -2.667592,-0.434039 -5.50731,-0.650379 -8.605155,-0.650379 z" sodipodi:nodetypes="ccsssccccscccccsccccccc"/>
  </svg>