<?xml version="1.0" encoding="UTF-8" standalone="no"?>
<svg
   xmlns:dc="http://purl.org/dc/elements/1.1/"
   xmlns:cc="http://creativecommons.org/ns#"
   xmlns:rdf="http://www.w3.org/1999/02/22-rdf-syntax-ns#"
   xmlns:svg="http://www.w3.org/2000/svg"
   xmlns="http://www.w3.org/2000/svg"
   xmlns:sodipodi="http://sodipodi.sourceforge.net/DTD/sodipodi-0.dtd"
   xmlns:inkscape="http://www.inkscape.org/namespaces/inkscape"
   version="1.1"
   id="svg815"
   width="100"
   height="100"
   viewBox="0 0 100 100"
   sodipodi:docname="B_sustain.svg"
   inkscape:version="1.0.2 (e86c870879, 2021-01-15)">
  <metadata
     id="metadata821">
    <rdf:RDF>
      <cc:Work
         rdf:about="">
        <dc:format>image/svg+xml</dc:format>
        <dc:type
           rdf:resource="http://purl.org/dc/dcmitype/StillImage" />
        <dc:title />
      </cc:Work>
    </rdf:RDF>
  </metadata>
  <defs
     id="defs819">
    <inkscape:path-effect
       effect="offset"
       id="path-effect894"
       is_visible="true"
       lpeversion="1"
       linejoin_type="miter"
       unit="mm"
       offset="-1.4"
       miter_limit="4"
       attempt_force_join="true"
       update_on_knot_move="true" />
    <inkscape:path-effect
       effect="offset"
       id="path-effect1018"
       is_visible="true"
       lpeversion="1"
       linejoin_type="miter"
       unit="mm"
       offset="-0.8"
       miter_limit="4"
       attempt_force_join="true"
       update_on_knot_move="true" />
    <inkscape:path-effect
       effect="offset"
       id="path-effect890"
       is_visible="true"
       lpeversion="1"
       linejoin_type="extrp_arc1"
       unit="mm"
       offset="0"
       miter_limit="4"
       attempt_force_join="true"
       update_on_knot_move="true" />
    <inkscape:path-effect
       effect="offset"
       id="path-effect843"
       is_visible="true"
       lpeversion="1"
       linejoin_type="extrp_arc1"
       unit="mm"
       offset="0.28905944"
       miter_limit="4"
       attempt_force_join="true"
       update_on_knot_move="true" />
    <clipPath
       clipPathUnits="userSpaceOnUse"
       id="clipPath4597">
      <path
         d="m 143.8989,191.06182 -1.05237,2.656 h 2.15486 z m -4.44335,6.04698 h 2.00452 l 0.7684,-1.87089 h 3.14446 l 0.6643,1.87089 h 2.33024 l -3.70889,-8.44623 h -1.51191 z"
         style="fill:#87d639;fill-opacity:1;fill-rule:evenodd;stroke:#000000;stroke-width:0.26499999;stroke-linecap:butt;stroke-linejoin:miter;stroke-miterlimit:4;stroke-dasharray:none;stroke-opacity:1"
         id="path4599"
         inkscape:connector-curvature="0" />
    </clipPath>
    <clipPath
       clipPathUnits="userSpaceOnUse"
       id="clipPath888">
      <text
         id="text892"
         y="197.22488"
         x="140.47195"
         style="font-style:normal;font-weight:normal;font-size:12.1546px;line-height:1.25;font-family:sans-serif;letter-spacing:0px;word-spacing:0px;fill:#e02828;fill-opacity:1;stroke:#000000;stroke-width:0.303865;stroke-opacity:1"
         xml:space="preserve"><tspan
           style="font-style:normal;font-variant:normal;font-weight:bold;font-stretch:condensed;font-family:'Helvetica Neue';-inkscape-font-specification:'Helvetica Neue Bold Condensed';fill:#e02828;fill-opacity:1;stroke:#000000;stroke-width:0.303865;stroke-opacity:1"
           y="197.22488"
           x="140.47195"
           id="tspan890"
           sodipodi:role="line">B</tspan></text>
    </clipPath>
  </defs>
  <sodipodi:namedview
     pagecolor="#ffffff"
     bordercolor="#666666"
     borderopacity="1"
     objecttolerance="10"
     gridtolerance="10"
     guidetolerance="10"
     inkscape:pageopacity="0"
     inkscape:pageshadow="2"
     inkscape:window-width="2560"
     inkscape:window-height="1080"
     id="namedview817"
     showgrid="false"
     showguides="true"
     inkscape:guide-bbox="true"
     inkscape:zoom="8.3300002"
     inkscape:cx="22.236005"
     inkscape:cy="66.439324"
     inkscape:window-x="1920"
     inkscape:window-y="0"
     inkscape:window-maximized="1"
     inkscape:current-layer="g846"
     inkscape:document-rotation="0">
    <sodipodi:guide
       position="57.383456,68.503623"
       orientation="0,1"
       id="guide829"
       inkscape:locked="false" />
    <sodipodi:guide
       position="39.37575,34.453782"
       orientation="0,1"
       id="guide831"
       inkscape:locked="false" />
    <sodipodi:guide
       position="62.816209,79.793562"
       orientation="0,1"
       id="guide839"
       inkscape:locked="false" />
    <sodipodi:guide
       position="55.68572,20.542598"
       orientation="0,1"
       id="guide841"
       inkscape:locked="false" />
  </sodipodi:namedview>
  <g
     id="g846"
     style="opacity:1">
    <path
       id="main_path"
       style="font-style:normal;font-variant:normal;font-weight:bold;font-stretch:condensed;font-size:82.4767px;line-height:1.25;font-family:'Helvetica Neue';-inkscape-font-specification:'Helvetica Neue Bold Condensed';letter-spacing:0px;word-spacing:0px;fill:#e02828;fill-opacity:1;stroke:#000000;stroke-width:2.31815;stroke-opacity:1"
       d="m 23.672605,23.572266 v 52.855468 h 30.484376 c 5.125861,0 9.458746,-0.358477 12.966796,-1.240234 h 0.0039 c 3.456164,-0.798677 6.355993,-1.898685 8.654297,-3.322266 2.329018,-1.442602 3.915894,-3.136113 4.984374,-5.173828 a 12.828248,12.828248 0 0 0 0.0098,-0.01758 15.949259,15.949259 0 0 0 0.0078,-0.01758 c 0.909267,-1.905579 1.435546,-3.979859 1.435547,-6.144531 0,-3.78919 -1.615688,-6.767565 -4.669922,-9.027344 a 15.101289,15.101289 0 0 0 -0.01563,-0.01172 17.65553,17.65553 0 0 0 -0.01758,-0.01172 c -2.07924,-1.42346 -4.705294,-2.31462 -7.603515,-2.970704 2.384779,-0.764502 4.505534,-1.708538 6.027344,-3.097656 2.401479,-2.192086 3.617187,-4.773976 3.617187,-7.894531 0,-2.616351 -0.657311,-4.816357 -2.013672,-6.726563 a 11.16088,11.16088 0 0 0 -0.0078,-0.0098 12.218228,12.218228 0 0 0 -0.0059,-0.0078 c -1.330566,-1.795797 -3.174536,-3.253103 -5.5,-4.314453 -2.295468,-1.047659 -5.063991,-1.78048 -8.162109,-2.216797 -3.081997,-0.434046 -6.400257,-0.65039 -9.953125,-0.65039 z m 16.400391,10.111328 h 8.394531 c 4.290253,0 9.298738,0.521812 11.001954,1.335937 1.401617,0.725621 2.193359,1.91762 2.193359,3.757813 0,1.783943 -0.857855,3.059283 -2.503906,3.810547 -1.817774,0.829637 -7.233141,1.353515 -12.023438,1.353515 h -7.0625 z m 0,20.384765 h 9.605469 c 1.886423,0 5.589661,0.143232 7.205078,0.341797 1.437352,0.262214 2.640841,0.647124 3.712891,1.150391 0.914251,0.429189 1.613282,1.056894 2.205078,1.867187 0.511446,0.700278 0.798828,1.583898 0.798828,2.730469 0,2.42121 -0.960206,3.810307 -2.955078,4.646485 -2.390003,1.019974 -7.638517,1.511718 -11.69336,1.511718 h -8.878906 z" />
    <path
       id="main_path-6-9"
       style="font-style:normal;font-variant:normal;font-weight:bold;font-stretch:condensed;font-size:82.4767px;line-height:1.25;font-family:'Helvetica Neue';-inkscape-font-specification:'Helvetica Neue Bold Condensed';letter-spacing:0px;word-spacing:0px;fill:#9294a8;fill-opacity:1;stroke:none;stroke-width:2.31815;stroke-opacity:1"
       d="M 28.962891,28.863281 V 71.136719 H 54.15625 c 4.909999,0 8.756079,-0.345713 11.677734,-1.080078 l 0.101563,-0.02539 c 0.0022,-5.19e-4 0.0036,-0.0014 0.0059,-0.002 3.072319,-0.71053 5.371122,-1.62051 7.052735,-2.662109 1.546559,-0.957945 2.453534,-1.990618 3.029297,-3.054688 0.584078,-1.245234 0.904296,-2.528728 0.904296,-3.800781 0,-1.888801 -0.804588,-3.464801 -2.484375,-4.728516 -1.31825,-0.882231 -3.13972,-1.553407 -5.699218,-2.132812 L 49.833984,49.371094 68.296875,43.451172 c 2.089524,-0.669851 3.364813,-1.317464 4.076172,-1.966797 1.312431,-1.197996 1.892578,-2.583611 1.892578,-3.986328 0,-1.598102 -0.398998,-2.736695 -1.017578,-3.623047 -0.735651,-0.981132 -1.832335,-1.898296 -3.416016,-2.621094 -1.71977,-0.784909 -3.960432,-1.404754 -6.703125,-1.791015 -2.807435,-0.395379 -5.873421,-0.59961 -9.214844,-0.59961 z m 55.792968,10.332031 c -0.01022,0.101155 -0.027,0.198675 -0.03906,0.298829 0.01153,-0.100302 0.02931,-0.197553 0.03906,-0.298829 z m -0.216797,1.453126 c -0.05286,0.265725 -0.113241,0.52845 -0.179687,0.787109 0.06426,-0.259837 0.128776,-0.520294 0.179687,-0.787109 z m -0.304687,1.248046 c -0.612346,2.093416 -1.67091,3.959258 -3.130859,5.664063 0.01097,0.0085 0.02226,0.01683 0.0332,0.02539 1.463934,-1.706782 2.503699,-3.585241 3.097656,-5.689454 z m -3.097656,5.689454 c -0.0066,0.0077 -0.01287,0.0157 -0.01953,0.02344 2.55645,2.002875 4.411976,4.400979 5.445312,7.25 -1.021726,-2.859753 -2.863565,-5.269261 -5.425781,-7.273437 z M 67.429688,80.478516 c -2.879666,0.640035 -6.062094,1.010035 -9.525391,1.160156 3.558136,-0.136244 6.832207,-0.493511 9.759765,-1.160156 z"
       sodipodi:nodetypes="ccsccscccsccccsscccsscc"
       inkscape:path-effect="#path-effect894"
       inkscape:original-d="m 23.672605,23.572266 v 52.855468 h 30.484376 c 5.125861,0 9.458746,-0.358477 12.966796,-1.240234 h 0.0039 c 3.456164,-0.798677 6.355993,-1.898685 8.654297,-3.322266 2.329018,-1.442602 3.915894,-3.136113 4.984374,-5.173828 l 0.0098,-0.01758 0.0078,-0.01758 c 0.909267,-1.905579 1.435546,-3.979859 1.435547,-6.144531 0,-3.78919 -1.615688,-6.767565 -4.669922,-9.027344 l -0.01563,-0.01172 -0.01758,-0.01172 c -2.07924,-1.42346 -4.705294,-2.31462 -7.603515,-2.970704 2.384779,-0.764502 4.505534,-1.708538 6.027344,-3.097656 2.401479,-2.192086 3.617187,-4.773976 3.617187,-7.894531 0,-2.616351 -0.657311,-4.816357 -2.013672,-6.726563 l -0.0078,-0.0098 -0.0059,-0.0078 c -1.330566,-1.795797 -3.174536,-3.253103 -5.5,-4.314453 -2.295468,-1.047659 -5.063991,-1.78048 -8.162109,-2.216797 -3.081997,-0.434046 -6.400257,-0.65039 -9.953125,-0.65039 z" />
    <path
       id="main_path-6-2"
       style="font-style:normal;font-variant:normal;font-weight:bold;font-stretch:condensed;font-size:82.4767px;line-height:1.25;font-family:'Helvetica Neue';-inkscape-font-specification:'Helvetica Neue Bold Condensed';letter-spacing:0px;word-spacing:0px;fill:#272646;fill-opacity:1;stroke:none;stroke-width:2.31815;stroke-opacity:1"
       d="m 40.072996,33.683594 h 8.394531 c 4.290253,0 9.298738,0.521812 11.001954,1.335937 1.401617,0.725621 2.193359,1.91762 2.193359,3.757813 0,1.783943 -0.857855,3.059283 -2.503906,3.810547 -1.817774,0.829637 -7.233141,1.353515 -12.023438,1.353515 h -7.0625 z m 0,20.384765 h 9.605469 c 1.886423,0 5.589661,0.143232 7.205078,0.341797 1.437352,0.262214 2.640841,0.647124 3.712891,1.150391 0.914251,0.429189 1.613282,1.056894 2.205078,1.867187 0.511446,0.700278 0.798828,1.583898 0.798828,2.730469 0,2.42121 -0.960206,3.810307 -2.955078,4.646485 -2.390003,1.019974 -7.638517,1.511718 -11.69336,1.511718 h -8.878906 z"
       sodipodi:nodetypes="cscssscccscssscscc" />
  </g>
</svg>
